<svg width="33" height="30" viewBox="0 0 33 30" fill="none" xmlns="http://www.w3.org/2000/svg">
<path d="M10.1743 10.2198H31.9413C32.3573 10.2198 32.6552 10.6205 32.536 11.0188L29.7925 21.2389C29.7131 21.5006 29.4724 21.6804 29.1989 21.6804H12.2565C11.9679 21.6804 11.7167 21.4795 11.6512 21.198L9.56907 10.9779C9.48027 10.5901 9.77589 10.2198 10.1743 10.2198Z" fill="#831377"/>
<path d="M26.9149 1.94934L13.66 0.00674074C13.3212 -0.0434891 13.0057 0.192502 12.9566 0.531261L10.9189 14.4321C10.8686 14.7708 11.1046 15.0862 11.4435 15.1353L24.6983 17.0779C25.0372 17.1281 25.3526 16.8921 25.4017 16.5534L27.4395 2.65256C27.4897 2.3138 27.2537 1.9984 26.9149 1.94934Z" fill="#B3D420" fill-opacity="0.6"/>
<path d="M22.7329 27.2828C22.7329 26.5457 23.0321 25.8764 23.5146 25.3939C23.9984 24.9115 24.6667 24.6112 25.4052 24.6112C26.1401 24.6112 26.8085 24.9115 27.2922 25.3939C27.7771 25.8799 28.0762 26.5469 28.0762 27.2828C28.0762 28.0187 27.7771 28.6869 27.2945 29.1705C26.8085 29.6553 26.1413 29.9543 25.4052 29.9543C24.6679 29.9543 23.9984 29.6553 23.5146 29.1717L23.4796 29.1331C23.018 28.653 22.7329 28.0012 22.7329 27.2828ZM31.1983 8.37181L28.1814 19.649C28.1066 19.9247 27.8566 20.1081 27.582 20.1081L9.6148 20.1092L8.22785 21.0917V22.8217H29.7378C30.0801 22.8217 30.3594 23.0997 30.3594 23.4431C30.3594 23.7854 30.0813 24.0646 29.7378 24.0646H7.60625C7.26389 24.0646 6.9858 23.7865 6.9858 23.4431V20.774C6.98696 20.58 7.07812 20.3896 7.24637 20.2693L8.77352 19.1876L5.87111 8.33793L4.77628 4.25179L0.289446 1.42025C0.000840417 1.23686 -0.0867981 0.854868 0.0943109 0.566339C0.276588 0.278977 0.659845 0.191349 0.948451 0.37241L5.61521 3.31728C5.75659 3.39671 5.86526 3.52988 5.91083 3.69692L6.94373 7.55645L30.6059 7.55531C30.9483 7.55531 31.2275 7.83214 31.2275 8.17674C31.2275 8.24332 31.217 8.30875 31.196 8.37067L31.1983 8.37181ZM27.1064 18.8675L29.8009 8.79822H7.27791L9.97235 18.8675H27.1064ZM8.9336 27.2828C8.9336 26.548 9.23271 25.8799 9.71528 25.3963C10.2014 24.9115 10.8697 24.6112 11.6058 24.6112C12.3396 24.6112 13.008 24.9103 13.4917 25.3939C13.9789 25.8822 14.2769 26.548 14.2769 27.2828C14.2769 28.0175 13.9778 28.6857 13.4952 29.1693C13.0115 29.6553 12.3431 29.9543 11.6058 29.9543C10.8709 29.9543 10.2014 29.6553 9.71762 29.1728C9.23272 28.6869 8.9336 28.0199 8.9336 27.2828ZM10.5916 26.27C10.3357 26.5282 10.1745 26.8868 10.1745 27.2828C10.1745 27.6788 10.3357 28.0374 10.5916 28.2967C10.8498 28.5526 11.2097 28.7137 11.6058 28.7137C12.0008 28.7137 12.3583 28.5526 12.6177 28.2944C12.8759 28.0374 13.036 27.6776 13.036 27.2828C13.036 26.8868 12.8759 26.5293 12.6189 26.2712C12.3607 26.013 12.0019 25.853 11.6058 25.853C11.2097 25.853 10.851 26.013 10.5916 26.27ZM24.3921 26.2712C24.1351 26.5293 23.9738 26.888 23.9738 27.2828C23.9738 27.6648 24.1245 28.0129 24.3664 28.2699L24.3921 28.2944C24.6504 28.5526 25.0102 28.7137 25.4052 28.7137C25.8001 28.7137 26.1588 28.5526 26.4182 28.2967C26.6741 28.0386 26.8353 27.6788 26.8353 27.2828C26.8353 26.8868 26.6741 26.5293 26.4182 26.27C26.16 26.013 25.8001 25.853 25.4052 25.853C25.0102 25.853 24.6515 26.013 24.3921 26.2712Z" fill="#FEFEFE"/>
</svg>
