<svg width="27" height="26" viewBox="0 0 27 26" fill="none" xmlns="http://www.w3.org/2000/svg">
<path d="M22.7336 1.64723L11.5399 0.00566314C11.2519 -0.0365176 10.9873 0.1615 10.9452 0.447392L9.22315 12.203C9.18217 12.49 9.38001 12.756 9.66565 12.7982L20.8605 14.4397C21.1473 14.4819 21.4131 14.2839 21.4541 13.9968L23.1761 2.2424C23.2182 1.95533 23.0192 1.68941 22.7336 1.64723Z" fill="#F50035"/>
<path d="M7.71958 16.0063C7.95488 15.8399 8.28031 15.8961 8.44654 16.1317C8.61278 16.3672 8.55659 16.6929 8.32129 16.8581L6.94812 17.8306V19.2964H25.1165C25.4057 19.2964 25.641 19.5331 25.641 19.8213C25.641 20.1107 25.4045 20.3462 25.1165 20.3462H6.42484C6.13452 20.3462 5.90039 20.1096 5.90039 19.8213V17.5646C5.9039 17.4006 5.98117 17.2401 6.12399 17.1382L7.72075 16.0075L7.71958 16.0063Z" fill="#FEFEFE"/>
<path d="M26.3501 7.07559L23.8016 16.6132C23.7384 16.8475 23.5265 17.001 23.2959 17.001L8.02132 17.0022C7.76846 17.0022 7.55774 16.8229 7.50741 16.5862L4.96242 7.06272L4.95891 7.04865L4.03527 3.59337L0.244718 1.19959C5.30297e-05 1.04493 -0.0736934 0.722693 0.0808318 0.47781C0.234186 0.232927 0.557281 0.160294 0.801946 0.313785L4.74351 2.80362C4.86292 2.87041 4.95657 2.98409 4.99403 3.12469L5.86733 6.38786L25.8526 6.38666C26.1417 6.38666 26.377 6.62333 26.377 6.91157C26.377 6.96898 26.3677 7.0229 26.3513 7.07445L26.3501 7.07559ZM19.1998 23.068C19.1998 22.4447 19.4527 21.8799 19.8601 21.471C20.2686 21.0621 20.8317 20.809 21.4568 20.809C22.0784 20.809 22.6415 21.0621 23.0512 21.471C23.461 21.8787 23.7138 22.4435 23.7138 23.068C23.7138 23.6913 23.461 24.2561 23.0536 24.6662L23.0173 24.699C22.6122 25.088 22.0609 25.327 21.4568 25.327C20.8329 25.327 20.2698 25.0739 19.8601 24.6662C19.4527 24.2573 19.1998 23.6937 19.1998 23.068ZM20.6022 22.2126C20.3833 22.4317 20.2487 22.7341 20.2487 23.068C20.2487 23.4008 20.3845 23.7054 20.6022 23.9233C20.8212 24.1424 21.1232 24.2772 21.4568 24.2772C21.7787 24.2772 22.0714 24.1518 22.288 23.9479L22.3114 23.9233C22.5303 23.7054 22.6649 23.4019 22.6649 23.068C22.6649 22.7352 22.5291 22.4317 22.3114 22.2126C22.0936 21.9935 21.7916 21.8588 21.4568 21.8588C21.1244 21.8588 20.8212 21.9947 20.6022 22.2126ZM7.5437 23.068C7.5437 22.4447 7.79772 21.8799 8.20511 21.471L8.2414 21.4382C8.64644 21.0492 9.19782 20.809 9.80187 20.809C10.4247 20.809 10.9889 21.0621 11.3986 21.471C11.806 21.8787 12.0589 22.4435 12.0589 23.068C12.0589 23.6925 11.806 24.2561 11.3986 24.6662C10.9901 25.0739 10.4258 25.327 9.80187 25.327C9.18026 25.327 8.61718 25.0739 8.20745 24.6662C7.79772 24.2573 7.5437 23.6925 7.5437 23.068ZM8.9473 22.2126C8.72839 22.4317 8.59376 22.7341 8.59376 23.068C8.59376 23.4008 8.72956 23.7054 8.9473 23.9233C9.16387 24.1424 9.46706 24.2772 9.80187 24.2772C10.1343 24.2772 10.4375 24.1412 10.6564 23.9233C10.8753 23.7054 11.01 23.4019 11.01 23.068C11.01 22.7352 10.8742 22.4317 10.6564 22.2126C10.4375 21.9935 10.1355 21.8588 9.80187 21.8588C9.47994 21.8588 9.18728 21.9853 8.97071 22.188L8.9473 22.2126ZM22.8932 15.9535L25.1678 7.43769H6.14595L8.42051 15.9535H22.892H22.8932Z" fill="#FEFEFE"/>
</svg>
