<svg width="87" height="80" viewBox="0 0 87 80" fill="none" xmlns="http://www.w3.org/2000/svg">
<path d="M27.7112 27.1765H85.2363C86.3367 27.1765 87.1244 28.2374 86.8059 29.2898L79.5575 56.288C79.348 56.979 78.7096 57.4521 77.9879 57.4521H33.2149C32.4502 57.4521 31.7873 56.9245 31.6166 56.1804L26.1129 29.1822C25.8761 28.1557 26.6567 27.1765 27.7112 27.1765Z" fill="#F4803F"/>
<path d="M71.9544 5.33107L36.9249 0.199816C36.0296 0.0693481 35.1961 0.688698 35.0641 1.58477L29.6765 38.3078C29.546 39.2024 30.1658 40.034 31.0625 40.1659L66.0921 45.2971C66.9873 45.4276 67.821 44.8097 67.953 43.9122L73.3404 7.19058C73.471 6.29595 72.8512 5.46297 71.9544 5.33107Z" fill="#A53692" fill-opacity="0.6"/>
<path d="M25.9178 51.5209L20.9248 55.0564V62.1088H79.414" stroke="black" stroke-width="3" stroke-miterlimit="10" stroke-linecap="round" stroke-linejoin="round"/>
<path d="M26.0713 72.2538C26.0713 69.2616 28.4974 66.8358 31.4918 66.8358C34.4861 66.8358 36.9137 69.2616 36.9137 72.2538C36.9137 75.2459 34.4861 77.6703 31.4918 77.6703C28.4974 77.6703 26.0713 75.2459 26.0713 72.2538Z" stroke="black" stroke-width="3" stroke-miterlimit="10" stroke-linecap="round" stroke-linejoin="round"/>
<path d="M62.54 72.2538C62.54 69.2616 64.9662 66.8358 67.962 66.8358C70.9549 66.8358 73.3825 69.2616 73.3825 72.2538C73.3825 75.2459 70.9549 77.6703 67.962 77.6703C64.9662 77.6703 62.54 75.2459 62.54 72.2538Z" stroke="black" stroke-width="3" stroke-miterlimit="10" stroke-linecap="round" stroke-linejoin="round"/>
<path d="M17.919 21.7843L14.8658 10.3763L2.45801 2.55252" stroke="black" stroke-width="3" stroke-miterlimit="10" stroke-linecap="round" stroke-linejoin="round"/>
<path d="M81.7138 21.7843L73.7151 51.6642H25.9191L17.9189 21.7843H81.7138Z" stroke="black" stroke-width="3" stroke-miterlimit="10" stroke-linecap="round" stroke-linejoin="round"/>
</svg>
