<svg width="9" height="12" viewBox="0 0 9 12" fill="none" xmlns="http://www.w3.org/2000/svg">
<path fill-rule="evenodd" clip-rule="evenodd" d="M8.29129 4.15438C8.29129 7.10931 5.1955 10.3087 4.3549 11.1247C4.23891 11.2373 4.05357 11.2373 3.93758 11.1247C3.09698 10.3099 0 7.10931 0 4.15438C0 1.8597 1.85699 0 4.14564 0C6.43429 0 8.29009 1.8609 8.29009 4.15438H8.29129Z" fill="#FEFEFE"/>
<path d="M4.13241 6.62041C5.59649 6.62041 6.78337 5.43103 6.78337 3.96386C6.78337 2.49668 5.59649 1.30725 4.13241 1.30725C2.66832 1.30725 1.48145 2.49668 1.48145 3.96386C1.48145 5.43103 2.66832 6.62041 4.13241 6.62041Z" fill="#373435"/>
</svg>
