<svg width="78" height="47" viewBox="0 0 78 47" fill="none" xmlns="http://www.w3.org/2000/svg">
<path d="M17.3373 19.9304H12.6956L13.3992 27.7163H7.96507C6.5123 27.7163 5.34049 26.5446 5.34049 25.0894V4.27081C5.34049 2.86126 6.5123 1.69075 7.96507 1.69075H20.992C22.446 1.69075 23.6143 2.86126 23.6143 4.27081V25.0894C23.6143 26.5446 22.446 27.7163 20.992 27.7163H18.0408L17.3384 19.9304H17.3373ZM18.179 29.4023H24.2687C26.8488 29.4023 28.9583 27.2464 28.9583 24.6687V4.73714C28.9583 2.11138 26.8488 0 24.2687 0H4.68492C2.1095 0 0 2.11138 0 4.73714V24.6687C0 27.2464 2.1095 29.4023 4.68492 29.4023H13.5409L13.8686 32.8729H18.4587L18.1778 29.4023H18.179Z" fill="#FEFEFE"/>
<path d="M36.6388 28.0445C35.796 28.0445 35.0468 27.3427 35.0468 26.4955V19.9798L38.9345 23.0262L42.8222 26.0269V26.4944C42.8222 27.3415 42.1186 28.0433 41.2313 28.0433H36.6377L36.6388 28.0445ZM41.1376 29.1717C42.4944 29.1717 43.5702 28.0925 43.6686 26.7767L46.2896 28.7932V24.5283L43.713 22.4169V20.8691C43.713 20.4016 43.5702 19.9306 43.3384 19.5568H42.8234V21.667L38.9356 18.4777L36.7325 16.6487V13.9303C36.7325 13.0375 37.4384 12.3345 38.2801 12.3345H40.3404C41.1833 12.3345 41.888 13.0375 41.888 13.9303V15.2907H43.3396V13.8366C43.3396 12.1013 41.9817 10.6953 40.2479 10.6953H35.9868C34.2507 10.6953 32.8483 12.1013 32.8483 13.8366V15.8543C32.8483 16.8361 33.3142 17.6821 33.9698 18.2902C32.6598 18.3839 31.584 19.5088 31.584 20.8691V26.5447C31.584 27.9976 32.7535 29.1717 34.1571 29.1717H41.14H41.1376Z" fill="#FEFEFE"/>
<path d="M72.1048 25.0892C72.1048 26.5444 70.933 27.7161 69.527 27.7161H66.5278L65.8278 19.9302H61.2365L61.8921 27.7161H56.4591C55.0052 27.7161 53.8322 26.5444 53.8322 25.0892V4.27061C53.8322 2.86107 55.0052 1.69055 56.4591 1.69055H69.5282C70.9341 1.69055 72.106 2.86107 72.106 4.27061V25.0892H72.1048ZM72.7603 0.000976562H53.2246C50.6 0.000976562 48.4917 2.11236 48.4917 4.73811V24.6697C48.4917 27.2474 50.6 29.4033 53.2246 29.4033H62.0314L62.3592 32.8739H66.9504L66.6695 29.4033H72.7592C75.3358 29.4033 77.4921 27.2474 77.4921 24.6697V4.73811C77.4921 2.11236 75.3358 0.000976562 72.7592 0.000976562H72.7603Z" fill="#FEFEFE"/>
<path d="M19.8189 42.9086C19.8189 44.5946 19.1634 45.0645 18.0852 45.0645C17.6661 45.0645 17.2435 44.9719 16.9614 44.9251L16.7261 46.3311C17.0995 46.474 17.7586 46.5678 18.2725 46.5678C20.3363 46.5678 21.692 45.6749 21.692 42.9554V36.6729H19.8201V42.9097L19.8189 42.9086Z" fill="#FEFEFE"/>
<path d="M46.0568 42.2978H44.7433L45.5394 39.9064C45.7279 39.344 45.866 38.6398 46.0568 38.0774V38.1266C46.2453 38.6879 46.3846 39.344 46.5707 39.9064L47.4124 42.2978H46.0568ZM46.0568 36.6714H44.9295L41.6528 46.4269H43.5703L44.4636 43.6593H47.6945L48.6334 46.4269H50.6516L47.3188 36.6714H46.058H46.0568Z" fill="#FEFEFE"/>
<path d="M59.0346 40.0942C59.0346 41.5975 59.0814 42.816 59.1739 44.1283C58.6611 43.0492 58.098 41.9244 57.3957 40.8441L54.7242 36.6729H52.6147V46.4283H54.3485V42.9109C54.3485 41.3619 54.3016 40.0497 54.256 38.7831H54.3016C54.7687 39.8622 55.4735 41.0807 56.1278 42.113L58.7993 46.4283H60.7683V36.6729H59.0346V40.0953V40.0942Z" fill="#FEFEFE"/>
<path d="M28.1585 42.2978H26.8486L27.5978 39.9064C27.7851 39.344 27.9724 38.6398 28.1129 38.0774H28.1585V38.1266C28.299 38.6879 28.4395 39.344 28.6724 39.9064L29.4708 42.2978H28.1585ZM28.1585 36.6714H26.9867L23.7065 46.4269H25.6299L26.5196 43.6593H29.7998L30.7363 46.4269H32.7521L29.3783 36.6714H28.1597H28.1585Z" fill="#FEFEFE"/>
<path d="M37.95 41.3605C37.7158 41.4085 37.4817 41.4085 37.2464 41.4085C36.8765 41.4085 36.5932 41.4085 36.3556 41.3605V38.0317C36.544 37.9848 36.9186 37.938 37.4372 37.938C37.6234 37.938 37.7603 37.9848 37.9488 37.9848C38.9333 38.1266 39.5456 38.6879 39.5456 39.6252C39.5456 40.5637 38.9345 41.173 37.9488 41.3593L37.95 41.3605ZM40.3884 37.3767C39.8253 36.9537 39.0281 36.6714 37.95 36.6268C37.7615 36.5776 37.5754 36.5776 37.3424 36.5776C36.0781 36.5776 35.1404 36.6714 34.4849 36.7651V46.4269H36.3556V42.722C36.5932 42.7677 36.9186 42.7677 37.2464 42.7677H37.95C38.9825 42.6728 39.9202 42.3459 40.5277 41.7846C41.0873 41.2691 41.4186 40.4712 41.4186 39.5338C41.4186 38.6398 40.996 37.8477 40.3896 37.3779L40.3884 37.3767Z" fill="#FEFEFE"/>
</svg>
