<svg width="127" height="126" viewBox="0 0 127 126" fill="none" xmlns="http://www.w3.org/2000/svg">
<path d="M12.3692 55.9678L0 53.4831L0.176435 52.6129L11.7475 54.9188L13.228 47.5525L14.033 47.6962L12.3703 55.9689L12.3692 55.9678ZM2.44906 41.7048L2.75636 40.8521L13.2981 44.6555C13.7012 44.8015 14.0073 44.8167 14.2211 44.7057C14.4326 44.5924 14.5857 44.402 14.6815 44.1345C14.7469 43.9558 14.796 43.7666 14.8311 43.5645C14.8661 43.3624 14.8825 43.1802 14.879 43.0155L15.6244 43.0949C15.6221 43.3098 15.5987 43.5645 15.5543 43.8635C15.5088 44.1614 15.4503 44.4114 15.3779 44.6111C15.2085 45.0795 14.9304 45.4043 14.5413 45.5842C14.1545 45.7664 13.7199 45.7711 13.2373 45.5959L2.44789 41.7036L2.44906 41.7048ZM18.0829 38.4048C17.7767 38.9784 17.3783 39.4515 16.891 39.8218C16.4061 40.1932 15.8698 40.4537 15.2891 40.6056C14.7037 40.7563 14.1008 40.796 13.478 40.7248C12.8517 40.6512 12.2546 40.4619 11.6821 40.1559C10.9121 39.7435 10.308 39.198 9.86869 38.5193C9.42935 37.8418 9.18281 37.0965 9.12555 36.287C9.07181 35.4798 9.24474 34.6995 9.64785 33.9472C10.0615 33.1739 10.6212 32.5945 11.3234 32.2043C12.028 31.8165 12.7886 31.6144 13.6054 31.6016C14.4209 31.5887 15.2038 31.7838 15.9539 32.1845C16.017 32.2184 16.0801 32.2523 16.1421 32.285C16.2052 32.3188 16.2554 32.3527 16.2916 32.3854L12.4661 39.5262C13.1018 39.8124 13.7491 39.9386 14.4104 39.9024C15.0718 39.8673 15.6712 39.6874 16.2145 39.3662C16.7532 39.0438 17.175 38.6011 17.4764 38.038C17.7779 37.4738 17.9181 36.864 17.8936 36.2052C17.869 35.5476 17.6809 34.9962 17.328 34.5523L17.8854 33.9636C18.1868 34.3269 18.3995 34.7591 18.521 35.2614C18.6425 35.7625 18.6682 36.287 18.597 36.8325C18.5257 37.3792 18.3563 37.9037 18.0864 38.4037L18.0829 38.4048ZM11.8352 39.2295L15.2833 32.7943C14.6254 32.4976 13.9758 32.3621 13.3308 32.3936C12.6846 32.424 12.0969 32.6039 11.5594 32.9263C11.0254 33.2522 10.6036 33.7007 10.2963 34.2755C9.98903 34.8502 9.84999 35.4471 9.87803 36.0662C9.90841 36.6877 10.0884 37.2741 10.4202 37.8278C10.7509 38.3815 11.2229 38.8499 11.8352 39.2307V39.2295ZM25.8869 26.8671L25.326 27.554L21.3463 24.3147C20.4326 23.5706 19.6556 23.156 19.0164 23.0719C18.3773 22.9878 17.827 23.2307 17.3631 23.7984C17.0348 24.2026 16.8069 24.678 16.6807 25.2247C16.5545 25.7714 16.5405 26.3251 16.6398 26.8858C16.738 27.4465 16.9436 27.9617 17.2603 28.4324L21.6805 32.0303L21.1196 32.7183L13.9676 26.8975L14.4946 26.2492L16.211 27.6463C16.0019 27.1568 15.8932 26.6382 15.8862 26.0997C15.8768 25.5576 15.9551 25.025 16.1222 24.5063C16.2881 23.983 16.5428 23.5111 16.8864 23.0894C17.2077 22.6945 17.55 22.4189 17.9134 22.2647C18.2745 22.107 18.6577 22.0532 19.062 22.1C19.4651 22.1455 19.8951 22.2927 20.3473 22.538C20.8007 22.7845 21.2797 23.1151 21.7833 23.5239L25.8869 26.8648V26.8671ZM25.4931 23.3989C25.1379 22.9749 24.9545 22.4972 24.9486 21.9727C24.9416 21.447 25.0865 20.9085 25.3856 20.363C25.6812 19.8128 26.1206 19.2941 26.7025 18.8093C27.0659 18.5068 27.4701 18.2229 27.9141 17.9601C28.3582 17.6961 28.78 17.4905 29.1796 17.341L28.6222 16.6751C28.0777 16.0222 27.4561 15.6635 26.7539 15.5899C26.0528 15.5164 25.3681 15.757 24.7044 16.3107C24.3504 16.6062 24.0431 16.9859 23.7837 17.4519C23.5231 17.9157 23.307 18.4507 23.1352 19.0581L22.4376 18.807C22.6445 18.1108 22.8957 17.5022 23.1936 16.9824C23.4916 16.4626 23.855 16.0233 24.2838 15.6671C25.1286 14.9603 26.0049 14.6508 26.9116 14.7384C27.8195 14.826 28.6304 15.2979 29.3502 16.1588L32.2783 19.6609C32.3683 19.7684 32.4617 19.8291 32.5564 19.842C32.6522 19.8548 32.7538 19.8233 32.8613 19.7485L33.3287 20.3081C33.2539 20.3863 33.1897 20.4471 33.1348 20.4926C33.0798 20.5393 33.0343 20.5767 32.9981 20.6071C32.8018 20.7251 32.6078 20.7648 32.4138 20.7262C32.2187 20.6877 32.0563 20.5989 31.9254 20.4622L31.4592 19.9027C31.4732 20.5849 31.319 21.2554 30.9953 21.9107C30.6728 22.5672 30.2288 23.1303 29.6656 23.6022C29.2193 23.9737 28.7379 24.2143 28.2191 24.3241C27.7027 24.4351 27.2026 24.4094 26.72 24.2482C26.2398 24.0893 25.8285 23.8055 25.4885 23.3989H25.4931ZM30.861 19.9027C30.8528 19.7088 30.8259 19.5383 30.7827 19.3934C30.7371 19.2462 30.6752 19.1282 30.5992 19.0371L29.6224 17.8701C29.1889 18.0173 28.7706 18.2078 28.3628 18.4402C27.9562 18.6727 27.5648 18.946 27.1932 19.2567C26.4851 19.8502 26.0271 20.4704 25.8203 21.1187C25.6135 21.7694 25.7116 22.3324 26.1124 22.8125C26.3625 23.1104 26.6698 23.3218 27.0378 23.448C27.4024 23.5707 27.7891 23.5952 28.1946 23.5158C28.6 23.4375 28.9844 23.2482 29.3478 22.9434C29.8573 22.517 30.2464 22.0264 30.5151 21.4727C30.7827 20.9167 30.8972 20.3922 30.8586 19.9039L30.861 19.9027ZM47.3337 12.8145L46.5357 13.2046L44.2864 8.59165C43.7746 7.54383 43.2336 6.84761 42.6681 6.50885C42.0991 6.17009 41.481 6.16309 40.8091 6.49017C40.1279 6.82192 39.6418 7.3581 39.3485 8.09753C39.0576 8.83462 38.9887 9.63363 39.1417 10.491L41.6317 15.5946L40.8325 15.9836L38.5832 11.3707C38.0656 10.3123 37.5269 9.61258 36.9684 9.27616C36.4087 8.93974 35.7941 8.93391 35.1223 9.26099C34.4411 9.59274 33.9527 10.1242 33.6535 10.852C33.3579 11.5797 33.2832 12.3799 33.4315 13.2513L35.9297 18.3736L35.1316 18.7626L31.0888 10.4758L31.839 10.1102L32.8088 12.0984C32.8298 11.248 33.0284 10.5062 33.4023 9.86841C33.7774 9.23295 34.2962 8.75517 34.9552 8.4316C35.6469 8.09518 36.3141 8.02277 36.9544 8.21434C37.5959 8.40942 38.124 8.82293 38.54 9.45957C38.5715 8.52506 38.7678 7.73773 39.1265 7.09526C39.4864 6.45395 40.0122 5.96566 40.7039 5.6269C41.162 5.40496 41.5885 5.29866 41.9822 5.31034C42.3748 5.31969 42.7534 5.43184 43.1133 5.64444C43.4732 5.85471 43.8097 6.16777 44.124 6.57895C44.436 6.98897 44.7339 7.48308 45.012 8.05663L47.3314 12.8109L47.3337 12.8145ZM53.9132 11.8753C53.2858 12.0049 52.6782 12.005 52.0881 11.873C51.498 11.741 50.9617 11.5015 50.4768 11.1499C49.9919 10.7971 49.5806 10.3614 49.2441 9.84857C48.9076 9.33108 48.6739 8.76218 48.5442 8.13723C48.4098 7.48774 48.3935 6.86164 48.4986 6.25304C48.6026 5.64794 48.8083 5.08608 49.1191 4.56742C49.4276 4.04994 49.8272 3.61306 50.3156 3.2521C50.8028 2.89115 51.3555 2.65167 51.9724 2.53602C52.6081 2.39117 53.218 2.38769 53.8034 2.52786C54.3888 2.6657 54.9286 2.90634 55.4252 3.25678C55.9206 3.60722 56.3377 4.04058 56.6742 4.55456C57.0108 5.07205 57.248 5.6526 57.3812 6.29975C57.512 6.92704 57.5249 7.54032 57.4209 8.14892C57.3169 8.75518 57.1112 9.31705 56.7993 9.8357C56.4908 10.3532 56.0912 10.7878 55.6028 11.1429C55.1132 11.498 54.55 11.7433 53.9132 11.8753ZM49.417 7.9737C49.5643 8.67809 49.8575 9.29135 50.298 9.80767C50.7385 10.3275 51.2608 10.7048 51.8661 10.9384C52.4725 11.1744 53.1011 11.2316 53.7531 11.109C54.4005 10.963 54.9566 10.6569 55.4228 10.192C55.8891 9.72824 56.2186 9.16286 56.4137 8.49936C56.61 7.83936 56.6392 7.15952 56.5083 6.46448C56.3471 5.75075 56.0456 5.13045 55.6039 4.60478C55.1634 4.08263 54.6376 3.69482 54.0301 3.44951C53.4213 3.20187 52.795 3.15163 52.1477 3.29648C51.498 3.43198 50.9407 3.73219 50.4745 4.19711C50.0083 4.66086 49.6788 5.22509 49.4825 5.88626C49.2862 6.54859 49.2651 7.24712 49.417 7.9737ZM63.4045 11.0587C62.6707 11.0599 61.9883 10.9373 61.3609 10.6908C60.7311 10.4443 60.1808 10.0658 59.7064 9.55887L60.113 8.93507C60.6236 9.41985 61.14 9.77029 61.66 9.98874C62.1823 10.2072 62.7513 10.3146 63.3671 10.3123C64.1605 10.31 64.8031 10.1429 65.2939 9.81352C65.7858 9.4806 66.0288 9.02034 66.0276 8.4316C66.0265 8.0321 65.9096 7.72255 65.6795 7.50294C65.4481 7.28683 65.1151 7.11044 64.6828 6.97494C64.2493 6.83943 63.7246 6.69693 63.1089 6.54624C62.4802 6.38153 61.9509 6.21214 61.5186 6.03575C61.0851 5.8617 60.7626 5.63159 60.5476 5.34773C60.3326 5.06855 60.2263 4.68305 60.2252 4.20061C60.224 3.59669 60.3735 3.09908 60.675 2.70075C60.9753 2.30708 61.3831 2.01037 61.8984 1.81646C62.4125 1.61904 62.985 1.52091 63.6113 1.51858C64.3346 1.51741 64.9655 1.63422 65.5054 1.86902C66.0463 2.10381 66.4576 2.41805 66.7427 2.8082L66.2648 3.37707C65.9681 2.99976 65.5825 2.71825 65.1081 2.53602C64.6337 2.35379 64.1114 2.26501 63.5435 2.26617C63.1182 2.26734 62.7151 2.32692 62.3365 2.44724C61.958 2.56639 61.653 2.75682 61.4228 3.02315C61.1926 3.29066 61.0781 3.64693 61.0793 4.09432C61.0793 4.44944 61.1669 4.72861 61.3375 4.92602C61.5104 5.12694 61.7687 5.28816 62.1122 5.41199C62.4557 5.53581 62.8834 5.66429 63.3916 5.80563C64.1161 5.98085 64.7389 6.1631 65.26 6.34883C65.7823 6.53807 66.1854 6.78104 66.4693 7.08009C66.7544 7.3803 66.8981 7.80081 66.8993 8.34633C66.9017 9.18271 66.5838 9.84504 65.9447 10.3287C65.3056 10.8134 64.4596 11.0576 63.4057 11.0599L63.4045 11.0587ZM77.5894 12.561C77.5263 12.5692 77.3966 12.5984 77.2015 12.6462C77.0052 12.6953 76.7668 12.7233 76.4841 12.7303C76.2025 12.7385 75.8987 12.7023 75.5773 12.6206C75.2677 12.5411 74.992 12.4068 74.7536 12.2187C74.5152 12.0271 74.3458 11.7923 74.2465 11.5085C74.146 11.227 74.1402 10.9092 74.2278 10.5646L75.9489 3.77075L74.6917 3.45302L74.8716 2.74746L76.1289 3.06519L76.9059 0L77.767 0.218455L76.99 3.28364L79.0733 3.81164L78.8946 4.51717L76.8112 3.99034L75.1415 10.5798C75.0796 10.9186 75.1357 11.2024 75.3133 11.4232C75.4886 11.6475 75.7187 11.7947 76.0062 11.8671C76.3625 11.9582 76.6874 11.9769 76.983 11.922C77.2774 11.8683 77.4527 11.8309 77.5064 11.8075L77.5906 12.561H77.5894ZM80.4498 9.66048L82.4969 4.74963L83.316 5.09075L81.3191 9.88478C80.8762 10.9455 80.7267 11.8064 80.8646 12.4734C81.0059 13.1369 81.4359 13.6216 82.1569 13.923C82.6383 14.1239 83.1454 14.2092 83.677 14.18C84.2087 14.152 84.7239 14.0153 85.224 13.77C85.7241 13.5235 86.1635 13.1801 86.5409 12.7339L88.7784 7.36628L89.5987 7.70736L86.5023 15.1356C86.4474 15.2676 86.4357 15.3773 86.4696 15.4685C86.5023 15.5584 86.5713 15.632 86.6752 15.6892L86.396 16.3609C86.2826 16.3259 86.195 16.2967 86.1354 16.271C86.0758 16.2453 86.0256 16.2184 85.9859 16.1892C85.8083 16.0899 85.6902 15.9486 85.626 15.7605C85.5629 15.5736 85.5676 15.3797 85.6377 15.1811L86.1541 13.895C85.4986 14.4171 84.766 14.7372 83.9551 14.8517C83.143 14.9697 82.359 14.8704 81.6042 14.5573C80.7068 14.1835 80.1612 13.5831 79.966 12.7607C79.7709 11.936 79.9321 10.9022 80.4509 9.65814L80.4498 9.66048ZM94.2257 21.5509L97.0592 11.9676L97.7895 12.561L95.192 21.1269L103.066 16.8586L103.756 17.4193L94.942 22.135L94.2257 21.5521V21.5509ZM99.125 25.9011L105.602 19.314L106.234 19.9377L99.7455 26.5132L99.125 25.9011ZM107.1 17.8211L108.223 16.6576L108.855 17.2826L107.707 18.4449L107.1 17.8211ZM104.95 25.2504C105.636 24.7306 106.379 24.3989 107.173 24.2563C107.969 24.115 108.735 24.1652 109.476 24.4082C110.214 24.65 110.832 25.0974 111.325 25.7492C111.811 26.3917 112.073 27.0879 112.109 27.8414C112.144 28.5937 112.033 29.291 111.776 29.9312L116.379 26.4455L116.916 27.1522L107.512 34.2766C107.398 34.3631 107.332 34.4518 107.316 34.5465C107.298 34.6423 107.32 34.7404 107.382 34.8408L106.802 35.2812C106.667 35.1446 106.579 35.0347 106.531 34.9518C106.429 34.7602 106.402 34.5581 106.449 34.3444C106.496 34.1306 106.594 33.9671 106.744 33.8526L107.566 33.23C106.846 33.3001 106.146 33.1903 105.467 32.9029C104.788 32.6155 104.245 32.202 103.837 31.6635C103.452 31.1542 103.199 30.6017 103.081 30.0083C102.965 29.4125 102.966 28.8226 103.083 28.2362C103.202 27.6475 103.419 27.0973 103.738 26.581C104.057 26.0646 104.462 25.6196 104.951 25.2493L104.95 25.2504ZM108.509 32.4064L110.922 30.5795C111.178 30.1776 111.342 29.7174 111.418 29.1999C111.492 28.6836 111.478 28.1743 111.373 27.6731C111.266 27.1743 111.078 26.7445 110.806 26.3871C110.485 25.9618 110.103 25.6453 109.664 25.435C109.224 25.2259 108.758 25.1114 108.268 25.0881C107.776 25.067 107.291 25.1336 106.811 25.2902C106.331 25.4455 105.887 25.6768 105.483 25.9829C105.07 26.2947 104.731 26.6709 104.464 27.1125C104.197 27.5505 104.018 28.0166 103.925 28.5107C103.834 29.0037 103.839 29.4908 103.944 29.9685C104.048 30.4475 104.256 30.8949 104.571 31.3096C104.765 31.5642 105.022 31.7967 105.343 32.0058C105.666 32.216 106.014 32.3819 106.396 32.5011C106.777 32.6214 107.151 32.6798 107.524 32.6716C107.895 32.6658 108.225 32.577 108.509 32.4064ZM110.113 35.7356C110.623 35.5172 111.132 35.4798 111.634 35.6247C112.141 35.7683 112.615 36.0615 113.053 36.5054C113.493 36.9482 113.864 37.5171 114.162 38.2144C114.349 38.649 114.504 39.1174 114.628 39.6185C114.753 40.1196 114.829 40.5822 114.857 41.0086L115.654 40.6675C116.434 40.3334 116.959 39.8416 117.23 39.1898C117.502 38.538 117.468 37.8149 117.128 37.0206C116.946 36.5954 116.67 36.1924 116.3 35.8104C115.931 35.4272 115.48 35.0675 114.947 34.7264L115.389 34.1318C115.997 34.5278 116.506 34.9448 116.919 35.3794C117.332 35.8151 117.646 36.2893 117.866 36.801C118.3 37.8137 118.344 38.7424 118 39.5847C117.655 40.428 116.97 41.0705 115.939 41.5121L111.742 43.3098C111.613 43.3647 111.528 43.4372 111.489 43.5248C111.45 43.6124 111.45 43.7187 111.491 43.8425L110.821 44.1287C110.769 44.0352 110.728 43.9558 110.7 43.8916C110.672 43.8261 110.648 43.7713 110.63 43.728C110.573 43.5073 110.592 43.3098 110.684 43.1346C110.777 42.9594 110.908 42.8297 111.078 42.7433L111.747 42.4571C111.089 42.2749 110.492 41.9349 109.956 41.4361C109.42 40.9373 109.008 40.3509 108.719 39.6757C108.491 39.1419 108.399 38.6116 108.443 38.0848C108.485 37.5579 108.654 37.086 108.946 36.6701C109.236 36.2566 109.626 35.9447 110.114 35.7356H110.113ZM111.918 41.8812C112.108 41.9291 112.277 41.9525 112.429 41.9525C112.583 41.9513 112.714 41.9268 112.823 41.88L114.222 41.2796C114.207 40.8229 114.143 40.3661 114.038 39.9094C113.932 39.4515 113.784 39.0006 113.593 38.5543C113.228 37.7051 112.764 37.0883 112.203 36.704C111.639 36.3209 111.072 36.2508 110.497 36.4972C110.138 36.6514 109.848 36.8839 109.622 37.1993C109.4 37.5135 109.266 37.8768 109.226 38.288C109.183 38.6992 109.255 39.1232 109.442 39.5578C109.703 40.1676 110.062 40.6804 110.515 41.0997C110.971 41.5156 111.44 41.7749 111.919 41.88L111.918 41.8812ZM117.2 49.3982C118.05 49.265 118.86 49.3257 119.628 49.578C120.394 49.8292 121.046 50.2392 121.584 50.8022C122.119 51.3665 122.448 52.0522 122.575 52.8593C122.7 53.6548 122.598 54.3943 122.272 55.073C121.947 55.7528 121.518 56.3135 120.987 56.7551L126.693 55.8696L126.83 56.7469L115.171 58.5587C115.03 58.5797 114.931 58.6288 114.87 58.7035C114.81 58.7795 114.783 58.8764 114.789 58.9944L114.069 59.1065C114.017 58.9231 113.99 58.7841 113.986 58.6883C113.989 58.4722 114.061 58.2807 114.204 58.1148C114.346 57.9489 114.51 57.852 114.698 57.8228L115.716 57.6639C115.051 57.3847 114.487 56.9572 114.025 56.3813C113.563 55.8054 113.282 55.1839 113.178 54.5169C113.08 53.885 113.121 53.2799 113.297 52.7005C113.478 52.1211 113.76 51.6001 114.14 51.141C114.524 50.6796 114.977 50.2976 115.503 49.9939C116.029 49.6914 116.597 49.4916 117.202 49.3982H117.2ZM116.937 57.3847L119.928 56.921C120.343 56.6885 120.706 56.3614 121.019 55.942C121.329 55.5227 121.558 55.0671 121.703 54.5765C121.847 54.087 121.884 53.6198 121.815 53.1747C121.733 52.6479 121.549 52.1888 121.262 51.7952C120.974 51.4027 120.616 51.0803 120.197 50.828C119.774 50.5768 119.316 50.4039 118.819 50.314C118.323 50.2229 117.821 50.2159 117.32 50.2941C116.808 50.3747 116.33 50.5441 115.886 50.8046C115.444 51.0651 115.066 51.3922 114.748 51.7823C114.436 52.1725 114.208 52.6024 114.075 53.0731C113.939 53.5439 113.911 54.0368 113.99 54.552C114.039 54.8674 114.156 55.1945 114.34 55.5321C114.525 55.8685 114.753 56.1815 115.03 56.4677C115.308 56.7527 115.612 56.9817 115.942 57.1522C116.272 57.3228 116.604 57.3987 116.936 57.3835L116.937 57.3847ZM113.559 65.5033C113.59 64.8514 113.747 64.2545 114.029 63.7113C114.305 63.167 114.679 62.7021 115.139 62.3154C115.602 61.9287 116.129 61.6344 116.722 61.4311C117.32 61.2291 117.94 61.1438 118.589 61.1753C119.461 61.2174 120.241 61.4498 120.929 61.875C121.618 62.299 122.16 62.8644 122.558 63.5723C122.954 64.2779 123.133 65.0582 123.092 65.9098C123.049 66.7859 122.794 67.5487 122.327 68.2028C121.856 68.857 121.255 69.3639 120.524 69.7261C119.792 70.087 119.001 70.2482 118.152 70.2073C118.081 70.2038 118.009 70.2003 117.938 70.1968C117.867 70.1933 117.808 70.1851 117.761 70.1711L118.152 62.0794C117.456 62.0923 116.815 62.2582 116.233 62.5736C115.652 62.889 115.186 63.3083 114.835 63.8305C114.487 64.3538 114.295 64.9332 114.265 65.5722C114.233 66.2123 114.37 66.8233 114.674 67.4073C114.977 67.9914 115.384 68.4084 115.893 68.6572L115.643 69.427C115.214 69.2284 114.837 68.9294 114.513 68.5276C114.19 68.1269 113.941 67.6643 113.771 67.1398C113.6 66.6153 113.53 66.0698 113.556 65.5033H113.559ZM118.848 62.0771L118.495 69.3698C119.216 69.3569 119.863 69.1981 120.432 68.8932C121.002 68.5895 121.457 68.1759 121.802 67.6526C122.145 67.1293 122.334 66.5441 122.365 65.8922C122.397 65.2416 122.265 64.6435 121.975 64.0956C121.681 63.5466 121.267 63.0946 120.73 62.7371C120.193 62.3785 119.567 62.1577 118.85 62.0759L118.848 62.0771ZM118.123 78.3014C118.823 78.5922 119.464 79.0034 120.045 79.5349C120.626 80.0653 121.1 80.682 121.467 81.3876C121.834 82.092 122.045 82.8571 122.1 83.6818C122.154 84.5053 121.998 85.3557 121.634 86.2295C121.202 87.2691 120.594 88.0553 119.813 88.5891C119.032 89.1242 118.195 89.4162 117.3 89.4676L117.194 88.6148C117.845 88.5646 118.41 88.4057 118.894 88.1394C119.376 87.8731 119.782 87.5378 120.11 87.136C120.439 86.733 120.699 86.3031 120.89 85.8429C121.195 85.1116 121.32 84.3955 121.264 83.6993C121.207 83.0031 121.016 82.3548 120.686 81.7555C120.359 81.1575 119.936 80.6318 119.42 80.1786C118.902 79.7265 118.338 79.3725 117.725 79.1167C117.037 78.8305 116.333 78.6775 115.615 78.6612C114.898 78.6436 114.21 78.7464 113.554 78.966C112.896 79.1868 112.31 79.5186 111.79 79.9636C111.271 80.4075 110.875 80.9589 110.603 81.6142C110.406 82.0838 110.286 82.5954 110.242 83.148C110.198 83.7005 110.253 84.2588 110.41 84.8254C110.566 85.3908 110.857 85.9164 111.284 86.4012L110.638 86.9795C110.163 86.4865 109.828 85.9036 109.633 85.2319C109.438 84.5614 109.364 83.8757 109.411 83.1783C109.46 82.4786 109.609 81.8291 109.86 81.2275C110.188 80.4402 110.662 79.7849 111.285 79.2616C111.908 78.7371 112.608 78.3528 113.384 78.1051C114.161 77.8598 114.961 77.7523 115.788 77.7897C116.613 77.8259 117.392 77.9965 118.125 78.3014H118.123ZM104.583 90.6439C104.938 90.11 105.373 89.6848 105.884 89.3648C106.397 89.0447 106.948 88.8379 107.54 88.7492C108.134 88.6592 108.731 88.6814 109.331 88.8111C109.935 88.9431 110.5 89.1837 111.033 89.5377C111.584 89.9056 112.035 90.3402 112.387 90.8471C112.739 91.3518 112.987 91.8973 113.129 92.4825C113.273 93.0689 113.295 93.66 113.201 94.2604C113.107 94.8597 112.882 95.4169 112.524 95.9332C112.173 96.4822 111.74 96.9121 111.225 97.224C110.712 97.5359 110.156 97.7427 109.558 97.842C108.959 97.9401 108.358 97.9249 107.756 97.794C107.153 97.6632 106.579 97.4156 106.027 97.0476C105.494 96.6937 105.054 96.265 104.701 95.7592C104.35 95.2545 104.101 94.7078 103.96 94.1226C103.816 93.5362 103.796 92.9475 103.895 92.3505C103.994 91.7536 104.223 91.1859 104.583 90.6439ZM110.526 90.2677C109.926 89.8694 109.287 89.6381 108.61 89.5809C107.933 89.519 107.294 89.6171 106.698 89.8753C106.099 90.1311 105.611 90.5329 105.234 91.0773C104.876 91.6356 104.694 92.2431 104.689 92.9031C104.682 93.5607 104.845 94.1939 105.171 94.8036C105.494 95.4111 105.95 95.9169 106.533 96.3199C107.149 96.7159 107.798 96.9471 108.483 97.0102C109.163 97.0721 109.809 96.9799 110.416 96.7287C111.023 96.4787 111.507 96.0734 111.865 95.5162C112.231 94.9636 112.418 94.3597 112.424 93.7009C112.43 93.0433 112.269 92.4101 111.945 91.8015C111.618 91.1918 111.145 90.6813 110.526 90.2677ZM109.774 105.115L109.136 105.761L101.159 97.8922C100.854 97.5908 100.582 97.4483 100.343 97.46C100.104 97.474 99.8845 97.5826 99.6847 97.7847C99.5503 97.9202 99.4265 98.0709 99.3108 98.2391C99.1939 98.4085 99.1028 98.5662 99.0374 98.7181L98.3936 98.3337C98.4847 98.1398 98.6132 97.9179 98.7792 97.6656C98.9451 97.4144 99.1028 97.2112 99.2524 97.0593C99.6017 96.7054 99.9897 96.5266 100.418 96.5255C100.846 96.5231 101.243 96.703 101.608 97.0628L109.772 105.116L109.774 105.115ZM94.2666 101.537C94.7761 101.151 95.3264 100.891 95.9153 100.756C96.5054 100.622 97.0919 100.608 97.6808 100.719C98.2709 100.83 98.8282 101.046 99.3529 101.366C99.8798 101.687 100.334 102.101 100.72 102.611C101.121 103.139 101.402 103.699 101.571 104.292C101.738 104.883 101.791 105.48 101.734 106.082C101.677 106.682 101.504 107.248 101.218 107.784C100.934 108.319 100.538 108.771 100.029 109.141C99.5164 109.544 98.9661 109.807 98.3795 109.935C97.7906 110.061 97.1994 110.075 96.6 109.971C96.0018 109.866 95.4397 109.654 94.9151 109.334C94.3881 109.013 93.9266 108.589 93.5258 108.06C93.1402 107.551 92.8645 107.001 92.6974 106.408C92.5303 105.816 92.4766 105.22 92.5327 104.618C92.5911 104.018 92.7652 103.455 93.0549 102.923C93.3436 102.393 93.7467 101.93 94.2666 101.537ZM100.001 103.132C99.5667 102.558 99.0386 102.13 98.4193 101.853C97.7988 101.574 97.1644 101.457 96.5159 101.505C95.8662 101.551 95.275 101.768 94.7387 102.161C94.2176 102.571 93.846 103.087 93.6252 103.706C93.4031 104.325 93.3471 104.976 93.4557 105.659C93.5632 106.339 93.8261 106.967 94.2444 107.539C94.6954 108.115 95.2353 108.547 95.858 108.832C96.482 109.113 97.1211 109.237 97.7766 109.199C98.4333 109.162 99.021 108.939 99.5422 108.529C100.071 108.13 100.447 107.618 100.666 106.998C100.888 106.379 100.945 105.728 100.839 105.047C100.73 104.364 100.45 103.725 100.001 103.132ZM89.1231 114.947C89.8382 114.528 90.3558 113.962 90.6748 113.252C90.9938 112.543 91.0651 111.77 90.8898 110.934L88.1066 105.875L88.8836 105.447L93.3295 113.525L92.5829 113.937L91.4951 111.959C91.5278 112.683 91.4098 113.354 91.141 113.968C90.8711 114.584 90.489 115.06 89.9995 115.397C89.9025 115.464 89.8113 115.521 89.7295 115.566C89.6454 115.613 89.5776 115.65 89.5262 115.678L89.1231 114.947ZM78.7625 106.84C78.5756 106.876 78.412 106.916 78.2694 106.959C78.1281 107.004 78.0299 107.056 77.9727 107.12C77.878 107.181 77.795 107.298 77.7238 107.47C77.6525 107.641 77.5801 107.959 77.5041 108.423C77.4293 108.89 77.3324 109.572 77.212 110.469L83.5298 118.358L82.6184 118.594L76.9853 111.501L75.7923 120.373L74.9148 120.602L76.754 107.584C76.775 107.382 76.8276 107.195 76.9117 107.02C76.9935 106.845 77.1103 106.693 77.2599 106.562C77.4095 106.43 77.6023 106.328 77.8406 106.254C77.9411 106.215 78.0486 106.179 78.1596 106.143C78.2741 106.108 78.405 106.076 78.558 106.049L78.7649 106.839L78.7625 106.84ZM67.4076 117.033C67.4099 117.894 67.2276 118.685 66.8619 119.407C66.4962 120.126 65.9938 120.708 65.3558 121.154C64.7166 121.597 63.9887 121.82 63.172 121.823C62.3657 121.824 61.6507 121.612 61.029 121.187C60.4051 120.763 59.9167 120.255 59.5591 119.663L59.5732 125.437L58.684 125.439L58.6548 113.643C58.6548 113.501 58.622 113.396 58.5554 113.324C58.49 113.253 58.3989 113.212 58.2809 113.201L58.2785 112.473C58.469 112.448 58.6104 112.442 58.705 112.454C58.92 112.488 59.0964 112.59 59.2402 112.753C59.3827 112.919 59.454 113.097 59.4551 113.287L59.4575 114.317C59.8349 113.701 60.3432 113.209 60.9823 112.838C61.6214 112.469 62.2781 112.284 62.9535 112.282C63.5938 112.28 64.1862 112.413 64.7318 112.675C65.2775 112.939 65.7496 113.298 66.1468 113.744C66.5453 114.192 66.8537 114.698 67.0758 115.264C67.2966 115.829 67.4064 116.42 67.4088 117.033H67.4076ZM59.5486 115.566L59.5568 118.592C59.7251 119.039 59.9926 119.447 60.3595 119.819C60.7276 120.187 61.1435 120.482 61.6063 120.7C62.0678 120.916 62.5246 121.024 62.9745 121.022C63.5085 121.021 63.991 120.908 64.4234 120.685C64.8545 120.459 65.2261 120.155 65.5392 119.778C65.8512 119.399 66.0907 118.972 66.2543 118.495C66.4202 118.018 66.5009 117.523 66.4997 117.016C66.4985 116.498 66.4027 116.001 66.2123 115.522C66.0206 115.045 65.7566 114.623 65.4189 114.251C65.08 113.882 64.6886 113.592 64.2434 113.389C63.7994 113.182 63.3157 113.081 62.7946 113.083C62.4744 113.083 62.1332 113.149 61.7733 113.281C61.4111 113.412 61.0688 113.59 60.7439 113.822C60.4179 114.053 60.1457 114.319 59.9284 114.62C59.7087 114.92 59.5825 115.238 59.5475 115.566H59.5486ZM55.8365 111.954L54.4869 121.093L53.6083 120.961L54.9753 111.826L55.8365 111.954ZM54.1574 123.181L53.9354 124.783L53.0579 124.651L53.2986 123.035L54.1574 123.181ZM49.4708 110.641L50.4581 120.586L49.5572 120.31L48.7382 111.398L43.0514 118.317L42.2007 118.058L48.5886 110.37L49.472 110.64L49.4708 110.641ZM40.1162 106.806C40.6911 107.113 41.1631 107.512 41.5335 107.999C41.9063 108.484 42.1657 109.02 42.3176 109.6C42.4683 110.186 42.5092 110.787 42.4367 111.411C42.3631 112.037 42.175 112.634 41.8677 113.205C41.4553 113.975 40.9096 114.58 40.2319 115.019C39.553 115.459 38.8087 115.705 37.999 115.761C37.1904 115.816 36.4099 115.642 35.6574 115.24C34.8851 114.827 34.3044 114.266 33.9141 113.565C33.5262 112.861 33.324 112.1 33.3112 111.284C33.2983 110.467 33.4935 109.685 33.8954 108.935C33.9281 108.873 33.962 108.81 33.9959 108.746C34.0298 108.685 34.0625 108.634 34.0964 108.598L41.2379 112.423C41.5242 111.787 41.6504 111.139 41.6153 110.478C41.5791 109.817 41.3992 109.217 41.079 108.675C40.7554 108.137 40.3137 107.715 39.7493 107.414C39.185 107.111 38.575 106.972 37.916 106.995C37.2582 107.02 36.7079 107.209 36.2639 107.562L35.675 107.005C36.0372 106.702 36.4695 106.49 36.9719 106.369C37.4732 106.248 37.9978 106.222 38.5435 106.293C39.0903 106.365 39.615 106.534 40.115 106.803L40.1162 106.806ZM40.9423 113.053L34.5042 109.606C34.2074 110.264 34.073 110.913 34.1046 111.558C34.1349 112.203 34.3137 112.792 34.6374 113.328C34.9622 113.862 35.4121 114.283 35.9869 114.592C36.5606 114.899 37.1577 115.038 37.777 115.01C38.3998 114.98 38.9852 114.8 39.539 114.468C40.094 114.137 40.5614 113.666 40.9435 113.053H40.9423ZM25.957 107.909C26.6382 108.382 27.3685 108.614 28.1467 108.606C28.9249 108.599 29.6575 108.341 30.3422 107.831L33.7704 103.185L34.4843 103.712L29.0101 111.132L28.3243 110.626L29.6633 108.81C29.0183 109.144 28.3605 109.318 27.6898 109.331C27.018 109.343 26.4267 109.197 25.9138 108.894C25.8109 108.833 25.7221 108.775 25.6462 108.717C25.5702 108.661 25.5083 108.616 25.4604 108.581L25.9558 107.909H25.957Z" fill="#FEFEFE"/>
<path d="M27.6872 97.8875C28.2107 98.4038 28.608 98.9715 28.879 99.5883C29.1513 100.206 29.2775 100.863 29.2565 101.559L28.5297 101.714C28.5075 101.011 28.3883 100.398 28.171 99.8768C27.9536 99.3547 27.6265 98.8769 27.1883 98.4447C26.6228 97.8875 26.0502 97.5546 25.4684 97.4424C24.8853 97.3326 24.3875 97.4868 23.9739 97.9062C23.6935 98.1912 23.5568 98.4938 23.5673 98.8115C23.5801 99.1269 23.6911 99.4867 23.9026 99.8885C24.1153 100.289 24.3864 100.76 24.7182 101.301C25.0477 101.859 25.3059 102.354 25.4882 102.784C25.674 103.212 25.7406 103.603 25.6939 103.955C25.6471 104.304 25.4543 104.653 25.1143 104.998C24.689 105.428 24.2333 105.674 23.7391 105.746C23.2471 105.813 22.7482 105.737 22.2458 105.513C21.741 105.291 21.2666 104.958 20.8191 104.518C20.305 104.01 19.9393 103.483 19.7208 102.936C19.5023 102.389 19.4322 101.877 19.5023 101.398L20.2431 101.33C20.1881 101.808 20.2641 102.28 20.4721 102.742C20.6801 103.206 20.9874 103.637 21.3916 104.037C21.6943 104.334 22.0238 104.576 22.3766 104.757C22.7295 104.941 23.0801 105.018 23.4318 104.991C23.7835 104.964 24.1153 104.791 24.4308 104.473C24.6796 104.221 24.814 103.962 24.8304 103.7C24.8502 103.437 24.7813 103.139 24.6236 102.81C24.4658 102.481 24.2543 102.088 23.9914 101.629C23.6012 100.995 23.288 100.428 23.0473 99.9294C22.8101 99.4294 22.6956 98.9715 22.7038 98.5592C22.7132 98.1433 22.9083 97.745 23.2904 97.3572C23.8793 96.7602 24.571 96.515 25.3644 96.6213C26.1589 96.7276 26.9324 97.1492 27.6837 97.8887L27.6872 97.8875ZM23.7659 93.8831L16.6887 99.8231L16.1185 99.1432L23.2074 93.2161L23.7659 93.8831ZM15.0552 101.165L13.8271 102.215L13.2569 101.536L14.5107 100.487L15.0552 101.165ZM19.5922 87.6546C19.9276 88.2002 20.1332 88.7714 20.2103 89.3706C20.2875 89.9699 20.2442 90.5563 20.076 91.1322C19.9089 91.708 19.6401 92.2419 19.2709 92.7325C18.9005 93.2255 18.4448 93.6378 17.8992 93.9731C17.3336 94.32 16.7506 94.5478 16.143 94.6553C15.5377 94.7639 14.9395 94.7604 14.3459 94.6448C13.7535 94.5291 13.2079 94.3025 12.7019 93.9672C12.196 93.632 11.7835 93.1939 11.4657 92.6519C11.114 92.104 10.9037 91.5317 10.8347 90.9336C10.7658 90.3355 10.8102 89.7468 10.9715 89.1604C11.1339 88.574 11.3979 88.0366 11.7672 87.5448C12.1387 87.0519 12.6038 86.6337 13.1693 86.2856C13.715 85.9515 14.2875 85.7307 14.8951 85.6221C15.5003 85.5134 16.0998 85.5169 16.6933 85.6326C17.2857 85.7482 17.8291 85.976 18.3292 86.3148C18.8292 86.6535 19.2511 87.0998 19.5922 87.6546ZM17.4493 93.2068C18.0627 92.8295 18.5395 92.3447 18.8748 91.756C19.2137 91.1637 19.3924 90.5446 19.4076 89.8951C19.424 89.2445 19.2639 88.6347 18.9262 88.0635C18.5699 87.504 18.092 87.0846 17.4949 86.8054C16.9001 86.5251 16.2575 86.4059 15.5669 86.4479C14.8799 86.4888 14.2291 86.6897 13.6192 87.0519C13.0022 87.4455 12.5196 87.9396 12.1761 88.5342C11.8349 89.1265 11.6492 89.7514 11.6246 90.4067C11.5966 91.0632 11.7625 91.6707 12.12 92.2291C12.4671 92.7944 12.9403 93.2161 13.5362 93.4965C14.1309 93.7768 14.7736 93.896 15.4618 93.8551C16.1512 93.813 16.8148 93.5969 17.4481 93.2068H17.4493ZM9.75277 93.3306L9.83689 94.0081L7.9814 93.8761L7.44158 92.9989L9.75277 93.3294V93.3306ZM13.7173 74.7701L14.0246 75.603L9.21295 77.3855C8.1076 77.7956 7.35512 78.2546 6.95901 78.7616C6.56174 79.2686 6.49047 79.8655 6.74519 80.5559C6.92747 81.0442 7.22075 81.481 7.6262 81.8677C8.03398 82.252 8.5037 82.5452 9.03885 82.745C9.57166 82.947 10.1208 83.03 10.6864 82.9973L16.0308 81.0161L16.3405 81.8478L7.6928 85.0532L7.40302 84.2705L9.47701 83.5019C8.94888 83.4318 8.44761 83.2648 7.9779 82.9961C7.50585 82.7286 7.08871 82.391 6.72533 81.9822C6.3596 81.5745 6.08151 81.1154 5.89223 80.6049C5.71462 80.1272 5.65269 79.6926 5.70177 79.3013C5.74968 78.9111 5.89924 78.5537 6.14461 78.2278C6.38765 77.9042 6.73351 77.6075 7.17518 77.3435C7.61802 77.0795 8.14499 76.833 8.75258 76.6076L13.7161 74.7689L13.7173 74.7701Z" fill="#FEFEFE"/>
<path d="M46.9551 65.1493H43.3447L43.8927 71.1968H39.6676C38.5377 71.1968 37.6263 70.2868 37.6263 69.156V52.9855C37.6263 51.891 38.5377 50.9822 39.6676 50.9822H49.7968C50.9267 50.9822 51.8357 51.8922 51.8357 52.9855V69.156C51.8357 70.2868 50.9267 71.1968 49.7968 71.1968H47.5008L46.9551 65.1493ZM47.6095 72.5063H52.3452C54.3514 72.5063 55.9919 70.8323 55.9919 68.829V53.3488C55.9919 51.3093 54.3526 49.6692 52.3452 49.6692H37.1168C35.1141 49.6692 33.4736 51.3081 33.4736 53.3488V68.829C33.4736 70.8312 35.113 72.5063 37.1168 72.5063H44.0037L44.2572 75.2023H47.828L47.6083 72.5063H47.6095Z" fill="#FEFEFE"/>
<path d="M61.9638 71.4515C61.3094 71.4515 60.7264 70.906 60.7264 70.2483V65.188L63.7503 67.5546L66.7719 69.8862V70.2483C66.7719 70.9072 66.2251 71.4515 65.5357 71.4515H61.9638ZM65.4621 72.3276C66.5183 72.3276 67.355 71.4889 67.4309 70.4668L69.4698 72.0321V68.7192L67.466 67.0803V65.8783C67.466 65.5162 67.355 65.1506 67.175 64.8585H66.7731V66.4974L63.7515 64.021L62.0374 62.5994V60.4885C62.0374 59.7958 62.5877 59.2503 63.2409 59.2503H64.8428C65.4983 59.2503 66.0451 59.7958 66.0451 60.4885V61.5457H67.1738V60.4173C67.1738 59.0692 66.1176 57.9771 64.768 57.9771H61.4543C60.1047 57.9771 59.0146 59.0704 59.0146 60.4173V61.9838C59.0146 62.7466 59.3768 63.4042 59.8874 63.8761C58.8685 63.9486 58.0308 64.8235 58.0308 65.8783V70.288C58.0308 71.4153 58.941 72.3276 60.0323 72.3276H65.4621Z" fill="#FEFEFE"/>
<path d="M89.5449 69.1561C89.5449 70.2869 88.6324 71.1968 87.541 71.1968H85.2088L84.6632 65.1494H81.0936L81.603 71.1968H77.3779C76.248 71.1968 75.3355 70.2869 75.3355 69.1561V52.9856C75.3355 51.8911 76.248 50.9822 77.3779 50.9822H87.541C88.6335 50.9822 89.5449 51.8922 89.5449 52.9856V69.1561ZM90.0544 49.6704H74.8622C72.8221 49.6704 71.1816 51.3093 71.1816 53.35V68.8302C71.1816 70.8324 72.821 72.5075 74.8622 72.5075H81.7105L81.9652 75.2035H85.536L85.3175 72.5075H90.052C92.0559 72.5075 93.7326 70.8335 93.7326 68.8302V53.35C93.7326 51.3105 92.0571 49.6704 90.052 49.6704H90.0544Z" fill="#FEFEFE"/>
</svg>
