<svg width="297" height="37" viewBox="0 0 297 37" fill="none" xmlns="http://www.w3.org/2000/svg">
<path d="M3.14746 36.4395H2.95215C2.75684 36.4395 2.53711 36.3662 2.29297 36.2197C0.925781 35.7803 0.242188 33.998 0.242188 30.873C0.242188 28.5944 0.608398 25.5833 1.34082 21.8398C1.95931 18.8288 2.3418 16.9814 2.48828 16.2979C3.31836 12.9124 4.10775 10.1211 4.85645 7.92383C4.889 7.79362 4.92969 7.67969 4.97852 7.58203C5.09245 7.24023 5.14941 7.02051 5.14941 6.92285C5.14941 6.8903 5.13314 6.87402 5.10059 6.87402C5.03548 6.87402 4.889 6.93099 4.66113 7.04492C3.35905 7.59831 2.61035 8.14355 2.41504 8.68066L2.29297 9.04688C1.80469 8.65625 1.56055 8.2168 1.56055 7.72852C1.56055 7.33789 1.68262 6.8903 1.92676 6.38574C2.48014 5.31152 3.46484 4.28613 4.88086 3.30957C7.55013 1.69824 10.1706 0.892578 12.7422 0.892578C14.1094 0.892578 15.4603 1.12044 16.7949 1.57617C20.6523 2.87826 22.8089 5.52311 23.2646 9.51074C23.1995 13.6449 21.4987 17.193 18.1621 20.1553C14.8255 23.1012 11.4645 24.5742 8.0791 24.5742C7.50944 24.5742 6.93164 24.5335 6.3457 24.4521C6.23177 24.4196 6.13411 24.4033 6.05273 24.4033C5.79232 24.4033 5.59701 24.6312 5.4668 25.0869C5.33659 25.5426 5.06803 27.3574 4.66113 30.5312C4.56348 31.3288 4.45768 32.0205 4.34375 32.6064C4.18099 33.5016 4.09961 34.2015 4.09961 34.7061C4.09961 35.2106 4.18099 35.528 4.34375 35.6582C4.49023 35.707 4.56348 35.764 4.56348 35.8291C4.56348 35.9268 4.35189 36.0488 3.92871 36.1953C3.52181 36.3581 3.26139 36.4395 3.14746 36.4395ZM6.83398 20.6191C9.37305 20.6191 11.8226 19.61 14.1826 17.5918C15.6963 16.2897 16.8926 14.8249 17.7715 13.1973C18.3411 11.9766 18.626 10.8942 18.626 9.9502C18.626 8.59928 18.0482 7.50065 16.8926 6.6543C15.737 5.79167 14.207 5.36035 12.3027 5.36035C10.9844 5.36035 9.21842 5.62891 7.00488 6.16602L7.44434 6.60547C8.014 7.1263 8.29883 7.98893 8.29883 9.19336C8.29883 10.3815 8.014 12.237 7.44434 14.7598C6.64681 18.194 6.24805 20.1064 6.24805 20.4971C6.24805 20.5785 6.44336 20.6191 6.83398 20.6191Z" fill="#ffffff"/>
<path d="M24.998 27.1621C24.8027 27.1621 24.6074 27.1458 24.4121 27.1133C23.0449 26.7064 22.2474 25.9414 22.0195 24.8184C21.7754 23.6953 21.6533 22.8652 21.6533 22.3281C21.6533 21.0586 21.9544 19.7077 22.5566 18.2754C22.6868 17.9987 22.752 17.8034 22.752 17.6895C22.752 17.6081 22.7194 17.429 22.6543 17.1523C22.5729 16.778 22.5322 16.4118 22.5322 16.0537C22.5322 15.0446 22.874 14.1006 23.5576 13.2217C24.4691 12.0173 25.8118 11.1709 27.5859 10.6826C28.237 10.5361 28.8229 10.4629 29.3438 10.4629C31.541 10.4629 32.6396 11.7324 32.6396 14.2715C32.6396 15.1341 32.5176 16.1351 32.2734 17.2744C32.1595 17.7139 32.1025 17.9987 32.1025 18.1289C32.1025 18.3079 32.3955 18.4137 32.9814 18.4463L34.1533 18.4707C34.9671 18.4707 35.667 18.43 36.2529 18.3486L37.1562 18.2266C37.1725 18.2266 37.1807 18.2347 37.1807 18.251C37.1807 18.2673 36.4564 18.43 35.0078 18.7393L31.6143 19.5449C30.6214 22.2467 29.5309 24.1917 28.3428 25.3799C27.1709 26.568 26.056 27.1621 24.998 27.1621ZM26.4385 23.3535C26.585 23.3535 26.8535 23.1419 27.2441 22.7188C27.5046 22.4421 27.7894 22.084 28.0986 21.6445C28.4079 21.1888 28.6602 20.79 28.8555 20.4482C29.0508 20.0902 29.1484 19.8623 29.1484 19.7646C29.1484 19.7484 29.1403 19.7321 29.124 19.7158C29.1077 19.6995 28.9775 19.6914 28.7334 19.6914C27.4313 19.7402 26.6989 19.8053 26.5361 19.8867C26.4222 20.0332 26.3408 20.554 26.292 21.4492L26.2676 22.3037C26.2676 22.8571 26.2839 23.1745 26.3164 23.2559C26.349 23.321 26.3896 23.3535 26.4385 23.3535ZM29.832 17.9824C29.9622 17.9824 30.0924 17.779 30.2227 17.3721V17.3477C30.7109 15.9479 30.9795 14.9062 31.0283 14.2227C31.0771 13.5391 31.1016 13.0996 31.1016 12.9043C31.1016 11.651 30.6865 11.0244 29.8564 11.0244C29.4821 11.0244 29.0833 11.1709 28.6602 11.4639C27.8789 12.001 27.3174 12.6113 26.9756 13.2949C26.6338 13.9622 26.4629 14.4831 26.4629 14.8574C26.4629 15.5573 27 16.3304 28.0742 17.1768C28.416 17.4535 28.8311 17.6732 29.3193 17.8359H29.3438C29.5553 17.9336 29.7181 17.9824 29.832 17.9824Z" fill="#ffffff"/>
<path d="M48.1182 27.3818C47.7438 27.3818 47.3776 27.3249 47.0195 27.2109C45.3594 26.4297 44.5293 24.9079 44.5293 22.6455C44.5293 21.5225 44.7327 20.2204 45.1396 18.7393C45.2536 18.5114 45.3105 18.3079 45.3105 18.1289C45.3105 18.0964 45.3024 18.0801 45.2861 18.0801C45.2373 18.0801 44.749 18.6823 43.8213 19.8867L43.5771 20.2041C42.2425 21.9294 41.1276 23.5326 40.2324 25.0137C39.6628 25.9577 39.207 26.5273 38.8652 26.7227C38.5234 26.918 38.2305 27.0156 37.9863 27.0156C37.7259 27.0156 37.4411 26.9424 37.1318 26.7959C36.0088 26.3402 35.4473 25.3066 35.4473 23.6953C35.4473 22.0026 36.1064 19.2113 37.4248 15.3213C37.8968 13.9215 38.2712 12.888 38.5479 12.2207C38.8245 11.5534 39.0931 11.1383 39.3535 10.9756C39.6139 10.7965 39.972 10.707 40.4277 10.707C41.7786 10.707 42.4541 11.4964 42.4541 13.0752C42.4541 13.9378 42.2507 15.0365 41.8438 16.3711C41.1764 18.5358 40.6719 20.2773 40.3301 21.5957L39.8662 23.3535C40.2731 22.8978 40.623 22.4665 40.916 22.0596C41.2253 21.6527 41.5508 21.2132 41.8926 20.7412C43.7969 18.0557 45.0908 16.4443 45.7744 15.9072C46.4743 15.3538 46.9951 15.0771 47.3369 15.0771C47.7113 15.0771 48.0205 15.2887 48.2646 15.7119C48.5251 16.07 48.6878 16.6803 48.7529 17.543C48.7855 18.0475 48.8099 18.7393 48.8262 19.6182C48.8587 21.2783 48.8994 22.1084 48.9482 22.1084C49.111 22.1084 49.7376 21.4167 50.8281 20.0332C51.2513 19.4798 51.6175 18.959 51.9268 18.4707C53.1149 16.6803 53.9368 15.3864 54.3926 14.5889C55.125 13.2705 55.4912 12.2858 55.4912 11.6348C55.4912 11.4232 55.3936 11.3174 55.1982 11.3174C55.0518 11.3174 54.8402 11.3743 54.5635 11.4883L54.4414 11.5127C54.4414 11.4476 54.596 11.3499 54.9053 11.2197C55.4749 10.9919 55.8737 10.8779 56.1016 10.8779C57.1432 10.8779 57.6641 11.6266 57.6641 13.124C57.6641 14.9307 57.0863 17.1198 55.9307 19.6914C54.9053 21.9538 53.6032 23.8743 52.0244 25.4531C50.641 26.7389 49.3389 27.3818 48.1182 27.3818Z" fill="#ffffff"/>
<path d="M61.1797 26.8936C60.9193 26.8936 60.6751 26.861 60.4473 26.7959C58.8359 26.389 57.9245 25.1602 57.7129 23.1094V23.0605C57.6803 22.6699 57.6641 22.2874 57.6641 21.9131C57.6641 20.2367 58.014 18.609 58.7139 17.0303C59.902 14.6702 61.1227 13.1159 62.376 12.3672C63.6292 11.6185 64.5651 11.2441 65.1836 11.2441C65.8835 11.2441 66.4613 11.5452 66.917 12.1475C67.0309 12.359 67.0879 12.6113 67.0879 12.9043C67.0879 13.2786 66.9821 13.7181 66.7705 14.2227C66.3962 15.1016 65.8672 15.9154 65.1836 16.6641C64.5 17.3965 63.8571 17.7627 63.2549 17.7627C63.0921 17.7627 62.9131 17.9987 62.7178 18.4707C62.5225 18.9264 62.3516 19.4798 62.2051 20.1309C62.0749 20.7819 62.0098 21.3841 62.0098 21.9375C62.0098 23.0605 62.555 23.6221 63.6455 23.6221C65.2568 23.6221 66.8519 22.7432 68.4307 20.9854C70.1071 19.1136 70.9941 18.1777 71.0918 18.1777C71.0918 18.4219 69.7897 20.0088 67.1855 22.9385C64.8418 25.5752 62.8398 26.8936 61.1797 26.8936ZM63.5234 17.0547C63.6536 17.0547 63.8571 16.9652 64.1338 16.7861C65.1429 16.2979 65.7939 15.4678 66.0869 14.2959C66.2008 13.8402 66.2578 13.4984 66.2578 13.2705C66.2578 13.0589 66.209 12.9531 66.1113 12.9531C65.8835 12.9531 65.3952 13.5065 64.6465 14.6133C63.8164 15.834 63.4014 16.5908 63.4014 16.8838C63.4014 16.9977 63.4421 17.0547 63.5234 17.0547Z" fill="#ffffff"/>
<path d="M72.4102 28.1143C72.2148 28.1143 72.0114 28.0736 71.7998 27.9922C70.3512 27.5527 69.627 26.1123 69.627 23.6709C69.627 22.027 69.9525 19.9355 70.6035 17.3965C71.8242 12.3672 73.1589 9.85254 74.6074 9.85254C74.9329 9.85254 75.2585 9.97461 75.584 10.2188C76.1536 10.5605 76.4466 10.943 76.4629 11.3662C76.4792 11.7731 76.4873 12.0173 76.4873 12.0986C76.4873 12.8473 76.292 13.9134 75.9014 15.2969C75.7223 15.8991 75.5433 16.5176 75.3643 17.1523C75.2015 17.7871 75.0632 18.3405 74.9492 18.8125C74.8353 19.2682 74.7783 19.5368 74.7783 19.6182C74.7946 19.6182 74.9248 19.3984 75.1689 18.959C75.4131 18.5033 75.7142 17.9255 76.0723 17.2256C76.4303 16.5094 76.7884 15.7933 77.1465 15.0771C77.5208 14.3447 77.8301 13.7262 78.0742 13.2217C78.9694 11.2686 79.6367 10.056 80.0762 9.58398C80.5156 9.11198 80.9551 8.87598 81.3945 8.87598C82.6966 8.87598 83.4697 9.81999 83.7139 11.708C83.8766 12.9775 84.015 13.8971 84.1289 14.4668C84.2428 15.0365 84.3812 15.4108 84.5439 15.5898C84.7067 15.7689 84.9508 15.891 85.2764 15.9561C85.4229 16.0049 85.5449 16.0293 85.6426 16.0293C85.7891 16.0293 85.8623 15.9642 85.8623 15.834C85.8623 15.7852 85.846 15.7201 85.8135 15.6387C85.7809 15.541 85.7646 15.4678 85.7646 15.4189C85.7646 15.3864 85.7728 15.3701 85.7891 15.3701C85.9518 15.3701 86.0332 15.5003 86.0332 15.7607C86.0332 16.0374 85.9518 16.3874 85.7891 16.8105C85.4635 17.6243 84.7799 18.0312 83.7383 18.0312C83.1849 18.0312 82.6234 17.8685 82.0537 17.543C80.9144 16.9245 80.1982 15.9561 79.9053 14.6377C79.8727 14.4912 79.8158 14.418 79.7344 14.418C79.3763 14.418 78.5869 16.127 77.3662 19.5449C76.113 23.1582 75.1364 25.4938 74.4365 26.5518C73.7367 27.5934 73.0612 28.1143 72.4102 28.1143Z" fill="#ffffff"/>
<path d="M88.2793 26.8936C88.0189 26.8936 87.7747 26.861 87.5469 26.7959C85.9355 26.389 85.0241 25.1602 84.8125 23.1094V23.0605C84.7799 22.6699 84.7637 22.2874 84.7637 21.9131C84.7637 20.2367 85.1136 18.609 85.8135 17.0303C87.0016 14.6702 88.2223 13.1159 89.4756 12.3672C90.7288 11.6185 91.6647 11.2441 92.2832 11.2441C92.9831 11.2441 93.5609 11.5452 94.0166 12.1475C94.1305 12.359 94.1875 12.6113 94.1875 12.9043C94.1875 13.2786 94.0817 13.7181 93.8701 14.2227C93.4958 15.1016 92.9668 15.9154 92.2832 16.6641C91.5996 17.3965 90.9567 17.7627 90.3545 17.7627C90.1917 17.7627 90.0127 17.9987 89.8174 18.4707C89.6221 18.9264 89.4512 19.4798 89.3047 20.1309C89.1745 20.7819 89.1094 21.3841 89.1094 21.9375C89.1094 23.0605 89.6546 23.6221 90.7451 23.6221C92.3564 23.6221 93.9515 22.7432 95.5303 20.9854C97.2067 19.1136 98.0938 18.1777 98.1914 18.1777C98.1914 18.4219 96.8893 20.0088 94.2852 22.9385C91.9414 25.5752 89.9395 26.8936 88.2793 26.8936ZM90.623 17.0547C90.7533 17.0547 90.9567 16.9652 91.2334 16.7861C92.2425 16.2979 92.8936 15.4678 93.1865 14.2959C93.3005 13.8402 93.3574 13.4984 93.3574 13.2705C93.3574 13.0589 93.3086 12.9531 93.2109 12.9531C92.9831 12.9531 92.4948 13.5065 91.7461 14.6133C90.916 15.834 90.501 16.5908 90.501 16.8838C90.501 16.9977 90.5417 17.0547 90.623 17.0547Z" fill="#ffffff"/>
<path d="M108.274 28.9199C107.819 28.9199 107.387 28.8385 106.98 28.6758C105.223 27.8132 104.344 25.9821 104.344 23.1826C104.344 21.9456 104.572 20.2692 105.027 18.1533C105.027 18.0882 105.019 18.0557 105.003 18.0557C104.889 18.0557 104.327 19.2682 103.318 21.6934C102.358 24.0371 101.528 25.5508 100.828 26.2344C100.145 26.918 99.4691 27.2598 98.8018 27.2598H98.6797C96.8405 26.9993 95.9209 25.8844 95.9209 23.915C95.9372 22.4827 96.4336 20.6273 97.4102 18.3486C98.7448 15.3538 100.145 13.2542 101.609 12.0498C102.993 10.9268 104.222 10.3652 105.296 10.3652C105.8 10.3652 106.289 10.4792 106.761 10.707C106.907 10.821 107.037 10.8779 107.151 10.8779C107.249 10.8779 107.396 10.6012 107.591 10.0479C110.097 3.58626 112.156 0.355469 113.768 0.355469H113.938C114.606 0.567057 114.939 1.07161 114.939 1.86914C114.939 2.86198 114.394 4.71745 113.304 7.43555C111.806 11.2604 110.724 14.4098 110.057 16.8838C109.389 19.3415 108.966 21.6771 108.787 23.8906C108.755 24.3952 108.738 24.7777 108.738 25.0381C108.738 25.1195 108.738 25.2415 108.738 25.4043C108.738 25.5508 108.795 25.6484 108.909 25.6973C109.039 25.7461 109.243 25.7705 109.52 25.7705C110.398 25.7705 111.204 25.4857 111.937 24.916C112.669 24.3464 113.369 23.6628 114.036 22.8652C114.72 22.0514 115.525 21.0667 116.453 19.9111C117.397 18.7393 117.894 18.1533 117.942 18.1533C117.959 18.1533 117.967 18.1777 117.967 18.2266C117.951 18.4382 117.267 19.4717 115.916 21.3271C114.826 22.9059 113.898 24.1348 113.133 25.0137C112.563 25.6973 112.083 26.3076 111.692 26.8447C110.602 28.2282 109.463 28.9199 108.274 28.9199ZM101.219 21.2295C101.235 21.2295 101.455 21.0342 101.878 20.6436C102.496 20.0413 103.164 19.195 103.88 18.1045C105.101 16.2979 105.727 15.1748 105.76 14.7354C105.76 14.7028 105.752 14.6784 105.735 14.6621C105.735 14.6458 105.719 14.6296 105.687 14.6133C105.524 14.6133 105.247 14.8249 104.856 15.248C103.782 16.4036 102.781 17.8359 101.854 19.5449C101.43 20.3262 101.219 20.8877 101.219 21.2295Z" fill="#ffffff"/>
<path d="M168.943 36.9277C166.355 36.9277 165.062 34.9421 165.062 30.9707C165.062 27.39 166.152 21.1318 168.333 12.1963C169.44 7.639 169.993 5.1569 169.993 4.75C169.993 4.70117 169.985 4.67676 169.969 4.67676C169.887 4.67676 169.399 5.1569 168.504 6.11719C163.654 11.3743 160.105 17.958 157.859 25.8682C157.501 27.2516 157.208 28.2201 156.98 28.7734C156.525 29.9128 155.825 30.4824 154.881 30.4824C154.604 30.4824 154.319 30.4092 154.026 30.2627C153.034 29.7744 152.537 28.749 152.537 27.1865C152.537 25.5101 152.879 22.9466 153.562 19.4961C154.409 15.2643 155.442 11.3337 156.663 7.7041C157.07 6.53223 157.273 5.85677 157.273 5.67773C157.273 5.59635 157.249 5.55566 157.2 5.55566C157.135 5.55566 157.029 5.62891 156.883 5.77539C155.792 6.84961 154.287 9.38053 152.366 13.3682C150.446 17.3558 148.574 21.848 146.751 26.8447C146.116 28.6025 145.604 29.8395 145.213 30.5557C144.839 31.2555 144.432 31.7113 143.992 31.9229C143.569 32.1182 143.178 32.2158 142.82 32.2158C142.316 32.2158 141.86 32.0205 141.453 31.6299C140.753 30.9626 140.387 29.9046 140.354 28.4561C140.403 26.4053 140.867 23.4105 141.746 19.4717C142.609 15.5329 143.577 11.8382 144.651 8.3877C145.742 4.9209 146.613 2.87826 147.264 2.25977C147.654 1.99935 148.037 1.86914 148.411 1.86914C149.339 1.86914 149.974 2.41439 150.315 3.50488C150.397 3.68392 150.438 3.89551 150.438 4.13965C150.438 4.74186 149.99 6.4834 149.095 9.36426C147.256 15.4678 146.019 20.6598 145.384 24.9404C145.384 24.9567 145.384 24.973 145.384 24.9893C145.384 24.9893 145.392 24.9893 145.408 24.9893C145.734 24.6149 146.344 23.5407 147.239 21.7666C148.134 19.9762 148.997 18.1289 149.827 16.2246C150.885 13.7832 151.723 11.8952 152.342 10.5605C152.977 9.22591 153.522 8.22493 153.978 7.55762C154.433 6.87402 154.922 6.28809 155.442 5.7998C156.142 5.09993 156.753 4.75 157.273 4.75C157.876 4.75 158.364 5.20573 158.738 6.11719C159.129 6.88216 159.324 7.92383 159.324 9.24219C159.324 10.7233 159.048 13.1973 158.494 16.6641C158.348 17.7057 158.226 18.5602 158.128 19.2275C158.03 19.8786 157.981 20.2611 157.981 20.375C157.998 20.3913 158.453 19.6019 159.349 18.0068C159.951 16.8675 160.765 15.3945 161.79 13.5879C162.962 11.5046 163.694 10.1781 163.987 9.6084C167.112 4.12337 169.188 1.34017 170.213 1.25879C171.255 1.17741 171.808 1.13672 171.873 1.13672C173.208 1.13672 173.875 2.47135 173.875 5.14062C173.875 6.58919 173.68 8.32259 173.289 10.3408C173.045 11.5615 172.573 13.7913 171.873 17.0303C170.701 22.4176 170.026 26.1855 169.847 28.334C169.684 30.4661 169.603 31.8659 169.603 32.5332C169.603 34.3561 169.863 35.2676 170.384 35.2676C170.644 35.2676 170.774 35.3164 170.774 35.4141C170.774 35.5117 170.701 35.6989 170.555 35.9756C170.197 36.6104 169.66 36.9277 168.943 36.9277Z" fill="#ffffff"/>
<path d="M176.268 27.1621C176.072 27.1621 175.877 27.1458 175.682 27.1133C174.314 26.7064 173.517 25.9414 173.289 24.8184C173.045 23.6953 172.923 22.8652 172.923 22.3281C172.923 21.0586 173.224 19.7077 173.826 18.2754C173.956 17.9987 174.021 17.8034 174.021 17.6895C174.021 17.6081 173.989 17.429 173.924 17.1523C173.842 16.778 173.802 16.4118 173.802 16.0537C173.802 15.0446 174.144 14.1006 174.827 13.2217C175.739 12.0173 177.081 11.1709 178.855 10.6826C179.507 10.5361 180.092 10.4629 180.613 10.4629C182.811 10.4629 183.909 11.7324 183.909 14.2715C183.909 15.1341 183.787 16.1351 183.543 17.2744C183.429 17.7139 183.372 17.9987 183.372 18.1289C183.372 18.3079 183.665 18.4137 184.251 18.4463L185.423 18.4707C186.237 18.4707 186.937 18.43 187.522 18.3486L188.426 18.2266C188.442 18.2266 188.45 18.2347 188.45 18.251C188.45 18.2673 187.726 18.43 186.277 18.7393L182.884 19.5449C181.891 22.2467 180.8 24.1917 179.612 25.3799C178.44 26.568 177.326 27.1621 176.268 27.1621ZM177.708 23.3535C177.854 23.3535 178.123 23.1419 178.514 22.7188C178.774 22.4421 179.059 22.084 179.368 21.6445C179.677 21.1888 179.93 20.79 180.125 20.4482C180.32 20.0902 180.418 19.8623 180.418 19.7646C180.418 19.7484 180.41 19.7321 180.394 19.7158C180.377 19.6995 180.247 19.6914 180.003 19.6914C178.701 19.7402 177.968 19.8053 177.806 19.8867C177.692 20.0332 177.61 20.554 177.562 21.4492L177.537 22.3037C177.537 22.8571 177.553 23.1745 177.586 23.2559C177.618 23.321 177.659 23.3535 177.708 23.3535ZM181.102 17.9824C181.232 17.9824 181.362 17.779 181.492 17.3721V17.3477C181.98 15.9479 182.249 14.9062 182.298 14.2227C182.347 13.5391 182.371 13.0996 182.371 12.9043C182.371 11.651 181.956 11.0244 181.126 11.0244C180.752 11.0244 180.353 11.1709 179.93 11.4639C179.148 12.001 178.587 12.6113 178.245 13.2949C177.903 13.9622 177.732 14.4831 177.732 14.8574C177.732 15.5573 178.27 16.3304 179.344 17.1768C179.686 17.4535 180.101 17.6732 180.589 17.8359H180.613C180.825 17.9336 180.988 17.9824 181.102 17.9824Z" fill="#ffffff"/>
<path d="M190.721 26.6982C188.507 26.6982 187.4 25.0869 187.4 21.8643C187.4 20.7412 187.539 19.4147 187.815 17.8848C188.287 14.9714 188.751 13.1322 189.207 12.3672C189.663 11.6022 190.127 11.2197 190.599 11.2197C190.892 11.2197 191.209 11.3337 191.551 11.5615C192.348 11.9359 192.747 12.9124 192.747 14.4912C192.747 15.2074 192.666 16.0456 192.503 17.0059C192.177 19.1217 192.015 20.8633 192.015 22.2305C192.015 22.6048 192.039 22.792 192.088 22.792C192.316 22.792 192.853 22.2874 193.699 21.2783C194.562 20.2692 195.555 18.9671 196.678 17.3721C199.477 13.3193 201.797 11.293 203.636 11.293C203.831 11.293 204.271 11.3825 204.954 11.5615H204.588C204.262 11.5615 203.921 11.7161 203.562 12.0254C203.221 12.3184 202.724 12.9043 202.073 13.7832C201.422 14.6458 200.91 15.305 200.535 15.7607C199.689 16.8187 198.362 18.6579 196.556 21.2783C194.977 23.5895 193.772 25.0706 192.942 25.7217C192.112 26.3727 191.372 26.6982 190.721 26.6982Z" fill="#ffffff"/>
<path d="M205.223 26.8936C204.962 26.8936 204.718 26.861 204.49 26.7959C202.879 26.389 201.967 25.1602 201.756 23.1094V23.0605C201.723 22.6699 201.707 22.2874 201.707 21.9131C201.707 20.2367 202.057 18.609 202.757 17.0303C203.945 14.6702 205.166 13.1159 206.419 12.3672C207.672 11.6185 208.608 11.2441 209.227 11.2441C209.926 11.2441 210.504 11.5452 210.96 12.1475C211.074 12.359 211.131 12.6113 211.131 12.9043C211.131 13.2786 211.025 13.7181 210.813 14.2227C210.439 15.1016 209.91 15.9154 209.227 16.6641C208.543 17.3965 207.9 17.7627 207.298 17.7627C207.135 17.7627 206.956 17.9987 206.761 18.4707C206.565 18.9264 206.395 19.4798 206.248 20.1309C206.118 20.7819 206.053 21.3841 206.053 21.9375C206.053 23.0605 206.598 23.6221 207.688 23.6221C209.3 23.6221 210.895 22.7432 212.474 20.9854C214.15 19.1136 215.037 18.1777 215.135 18.1777C215.135 18.4219 213.833 20.0088 211.229 22.9385C208.885 25.5752 206.883 26.8936 205.223 26.8936ZM207.566 17.0547C207.697 17.0547 207.9 16.9652 208.177 16.7861C209.186 16.2979 209.837 15.4678 210.13 14.2959C210.244 13.8402 210.301 13.4984 210.301 13.2705C210.301 13.0589 210.252 12.9531 210.154 12.9531C209.926 12.9531 209.438 13.5065 208.689 14.6133C207.859 15.834 207.444 16.5908 207.444 16.8838C207.444 16.9977 207.485 17.0547 207.566 17.0547Z" fill="#ffffff"/>
<path d="M234.886 28.5293C233.079 28.5293 231.81 27.6992 231.077 26.0391C230.914 25.6647 230.833 25.1764 230.833 24.5742C230.833 22.377 231.875 18.6172 233.958 13.2949L234.007 13.1484L233.982 13.0996C233.852 13.0996 232.64 15.248 230.345 19.5449C228.066 23.8255 226.666 26.1693 226.146 26.5762C225.641 26.9831 225.161 27.1865 224.705 27.1865C223.208 27.1865 222.459 26.332 222.459 24.623C222.459 22.8652 223.257 20.1797 224.852 16.5664C224.754 16.5664 224.013 17.5918 222.63 19.6426C221.263 21.6771 220.034 23.5977 218.943 25.4043C218.097 26.8691 217.487 27.7562 217.112 28.0654C216.738 28.3747 216.404 28.5293 216.111 28.5293C215.867 28.5293 215.623 28.4642 215.379 28.334C214.044 27.9922 213.377 26.6901 213.377 24.4277C213.377 22.7513 213.743 20.554 214.476 17.8359C215.761 12.7578 217.194 10.2188 218.772 10.2188C219.017 10.2188 219.261 10.2757 219.505 10.3896C220.107 10.6338 220.416 10.9512 220.433 11.3418C220.449 11.7161 220.457 11.9196 220.457 11.9521C220.457 12.7008 220.213 13.9215 219.725 15.6143C219.285 17.2093 218.886 18.8206 218.528 20.4482C218.187 22.0758 218.016 23.207 218.016 23.8418C218.39 23.3535 219.122 22.2467 220.213 20.5215C221.889 17.9499 223.379 15.8258 224.681 14.1494C225.999 12.473 226.886 11.5697 227.342 11.4395C227.456 11.4069 227.562 11.3906 227.659 11.3906C228.603 11.3906 229.075 12.5055 229.075 14.7354C229.075 15.6631 228.994 16.7861 228.831 18.1045C228.685 19.4229 228.611 20.1146 228.611 20.1797C228.644 20.1797 228.929 19.7972 229.466 19.0322C230.019 18.251 230.451 17.6081 230.76 17.1035C232.452 14.4017 233.673 12.5544 234.422 11.5615C235.171 10.5687 235.7 10.0723 236.009 10.0723L236.253 10.0479C237.295 10.0479 237.815 10.6989 237.815 12.001C237.815 13.3031 237.417 15.2155 236.619 17.7383C235.838 20.2448 235.447 22.0921 235.447 23.2803C235.447 24.5824 235.708 25.3229 236.229 25.502C236.375 25.5508 236.521 25.5752 236.668 25.5752C238.084 25.5752 239.744 24.3626 241.648 21.9375C243.553 19.5124 244.529 18.2754 244.578 18.2266C244.594 18.2266 244.603 18.251 244.603 18.2998C244.603 18.7067 243.821 19.9844 242.259 22.1328C240.713 24.265 239.354 25.8682 238.182 26.9424C237.01 28.0003 235.911 28.5293 234.886 28.5293Z" fill="#ffffff"/>
<path d="M246.873 26.8936C246.613 26.8936 246.368 26.861 246.141 26.7959C244.529 26.389 243.618 25.1602 243.406 23.1094V23.0605C243.374 22.6699 243.357 22.2874 243.357 21.9131C243.357 20.2367 243.707 18.609 244.407 17.0303C245.595 14.6702 246.816 13.1159 248.069 12.3672C249.323 11.6185 250.258 11.2441 250.877 11.2441C251.577 11.2441 252.155 11.5452 252.61 12.1475C252.724 12.359 252.781 12.6113 252.781 12.9043C252.781 13.2786 252.675 13.7181 252.464 14.2227C252.09 15.1016 251.561 15.9154 250.877 16.6641C250.193 17.3965 249.55 17.7627 248.948 17.7627C248.785 17.7627 248.606 17.9987 248.411 18.4707C248.216 18.9264 248.045 19.4798 247.898 20.1309C247.768 20.7819 247.703 21.3841 247.703 21.9375C247.703 23.0605 248.248 23.6221 249.339 23.6221C250.95 23.6221 252.545 22.7432 254.124 20.9854C255.8 19.1136 256.688 18.1777 256.785 18.1777C256.785 18.4219 255.483 20.0088 252.879 22.9385C250.535 25.5752 248.533 26.8936 246.873 26.8936ZM249.217 17.0547C249.347 17.0547 249.55 16.9652 249.827 16.7861C250.836 16.2979 251.487 15.4678 251.78 14.2959C251.894 13.8402 251.951 13.4984 251.951 13.2705C251.951 13.0589 251.902 12.9531 251.805 12.9531C251.577 12.9531 251.089 13.5065 250.34 14.6133C249.51 15.834 249.095 16.5908 249.095 16.8838C249.095 16.9977 249.135 17.0547 249.217 17.0547Z" fill="#ffffff"/>
<path d="M269.847 29.5059C269.326 29.5059 268.854 29.4082 268.431 29.2129C266.884 28.4479 266.111 27.0238 266.111 24.9404C266.111 23.3942 266.445 21.4411 267.112 19.0811C267.861 16.5094 268.74 14.4342 269.749 12.8555C269.944 12.5788 270.042 12.416 270.042 12.3672V12.3184C270.042 12.3021 270.026 12.2939 269.993 12.2939C269.928 12.2939 269.773 12.3509 269.529 12.4648C268.732 12.888 267.804 13.7262 266.746 14.9795C265.704 16.2165 264.695 17.6813 263.719 19.374C263.133 20.3994 262.433 21.4736 261.619 22.5967C260.822 23.7035 260.065 24.6719 259.349 25.502C258.632 26.332 258.104 26.8366 257.762 27.0156C257.518 27.1133 257.273 27.1621 257.029 27.1621C256.085 27.1621 255.385 26.682 254.93 25.7217C254.751 25.2334 254.661 24.6475 254.661 23.9639C254.661 23.0036 254.832 21.848 255.174 20.4971C255.76 18.1696 256.582 15.9967 257.64 13.9785C258.844 11.6836 259.951 10.5361 260.96 10.5361C261.757 10.5361 262.156 11.0814 262.156 12.1719C262.156 13.1647 261.847 14.5563 261.229 16.3467C260.04 19.9925 259.446 22.0433 259.446 22.499V22.5479C259.511 22.5479 259.918 22.0596 260.667 21.083C261.318 20.3018 262.352 19.1706 263.768 17.6895C265.184 16.1921 266.445 14.9062 267.552 13.832C269.049 12.4486 270.188 11.7568 270.97 11.7568C271.8 11.7568 272.215 12.5625 272.215 14.1738C272.215 15.362 271.995 16.9896 271.556 19.0566C270.97 21.6608 270.677 23.5814 270.677 24.8184C270.677 25.8763 270.896 26.4053 271.336 26.4053C273.387 26.1937 275.991 23.7686 279.148 19.1299C279.637 18.4626 279.897 18.1289 279.93 18.1289C279.93 18.1777 279.344 19.1624 278.172 21.083C274.77 26.6982 271.995 29.5059 269.847 29.5059Z" fill="#ffffff"/>
<path d="M281.956 29.042C281.582 29.042 281.281 29.0094 281.053 28.9443C279.279 28.3584 278.392 26.7145 278.392 24.0127C278.392 21.0342 279.523 16.07 281.785 9.12012C282.046 8.25749 282.176 7.80176 282.176 7.75293C282.176 7.72038 281.867 7.66341 281.248 7.58203C279.865 7.41927 278.847 7.11816 278.196 6.67871C277.545 6.23926 277.22 5.80794 277.22 5.38477C277.22 5.25456 277.244 5.12435 277.293 4.99414C277.423 4.78255 278.058 4.55469 279.197 4.31055C280.32 4.05013 281.688 3.8304 283.299 3.65137C283.445 3.65137 283.592 3.45605 283.738 3.06543C284.161 2.12142 284.585 1.64128 285.008 1.625C285.447 1.59245 285.683 1.57617 285.716 1.57617C286.465 1.57617 287.059 1.99121 287.498 2.82129L287.669 3.16309H289.622C294.277 3.24447 296.604 4.48958 296.604 6.89844C296.604 7.1263 296.588 7.3623 296.556 7.60645C296.523 7.76921 296.499 7.85059 296.482 7.85059C296.466 7.85059 296.458 7.8099 296.458 7.72852C296.425 7.37044 296.076 7.19141 295.408 7.19141C295.001 7.19141 294.489 7.25651 293.87 7.38672C293.659 7.43555 291.372 7.54134 287.01 7.7041L286.058 10.8047C283.925 17.8034 282.859 22.6455 282.859 25.3311C282.859 25.917 282.908 26.4053 283.006 26.7959C283.136 26.9912 283.34 27.0889 283.616 27.0889C284.918 27.0889 287.815 24.9079 292.308 20.5459C293.919 18.9834 294.765 18.2021 294.847 18.2021C294.847 18.251 294.66 18.4951 294.285 18.9346C291.404 22.2549 289.174 24.6393 287.596 26.0879C286.017 27.5365 284.666 28.4398 283.543 28.7979C283.152 28.9281 282.811 29.0013 282.518 29.0176C282.225 29.0339 282.037 29.042 281.956 29.042Z" fill="#ffffff"/>
</svg>
