<svg width="298" height="37" viewBox="0 0 298 37" fill="none" xmlns="http://www.w3.org/2000/svg">
<path d="M2.90527 36.084H2.70996C2.51465 36.084 2.29492 36.0107 2.05078 35.8643C0.683594 35.4248 0 33.6426 0 30.5176C0 28.2389 0.366211 25.2279 1.09863 21.4844C1.71712 18.4733 2.09961 16.626 2.24609 15.9424C3.07617 12.557 3.86556 9.76562 4.61426 7.56836C4.64681 7.43815 4.6875 7.32422 4.73633 7.22656C4.85026 6.88477 4.90723 6.66504 4.90723 6.56738C4.90723 6.53483 4.89095 6.51855 4.8584 6.51855C4.79329 6.51855 4.64681 6.57552 4.41895 6.68945C3.11686 7.24284 2.36816 7.78809 2.17285 8.3252L2.05078 8.69141C1.5625 8.30078 1.31836 7.86133 1.31836 7.37305C1.31836 6.98242 1.44043 6.53483 1.68457 6.03027C2.23796 4.95605 3.22266 3.93066 4.63867 2.9541C7.30794 1.34277 9.92839 0.537109 12.5 0.537109C13.8672 0.537109 15.2181 0.764974 16.5527 1.2207C20.4102 2.52279 22.5667 5.16764 23.0225 9.15527C22.9574 13.2894 21.2565 16.8376 17.9199 19.7998C14.5833 22.7458 11.2223 24.2188 7.83691 24.2188C7.26725 24.2188 6.68945 24.1781 6.10352 24.0967C5.98958 24.0641 5.89193 24.0479 5.81055 24.0479C5.55013 24.0479 5.35482 24.2757 5.22461 24.7314C5.0944 25.1872 4.82585 27.002 4.41895 30.1758C4.32129 30.9733 4.21549 31.665 4.10156 32.251C3.9388 33.1462 3.85742 33.846 3.85742 34.3506C3.85742 34.8551 3.9388 35.1725 4.10156 35.3027C4.24805 35.3516 4.32129 35.4085 4.32129 35.4736C4.32129 35.5713 4.1097 35.6934 3.68652 35.8398C3.27962 36.0026 3.01921 36.084 2.90527 36.084ZM6.5918 20.2637C9.13086 20.2637 11.5804 19.2546 13.9404 17.2363C15.4541 15.9342 16.6504 14.4694 17.5293 12.8418C18.099 11.6211 18.3838 10.5387 18.3838 9.59473C18.3838 8.24382 17.806 7.14518 16.6504 6.29883C15.4948 5.4362 13.9648 5.00488 12.0605 5.00488C10.7422 5.00488 8.97624 5.27344 6.7627 5.81055L7.20215 6.25C7.77181 6.77083 8.05664 7.63346 8.05664 8.83789C8.05664 10.026 7.77181 11.8815 7.20215 14.4043C6.40462 17.8385 6.00586 19.751 6.00586 20.1416C6.00586 20.223 6.20117 20.2637 6.5918 20.2637Z" fill="#CB3133"/>
<path d="M24.7559 26.8066C24.5605 26.8066 24.3652 26.7904 24.1699 26.7578C22.8027 26.3509 22.0052 25.5859 21.7773 24.4629C21.5332 23.3398 21.4111 22.5098 21.4111 21.9727C21.4111 20.7031 21.7122 19.3522 22.3145 17.9199C22.4447 17.6432 22.5098 17.4479 22.5098 17.334C22.5098 17.2526 22.4772 17.0736 22.4121 16.7969C22.3307 16.4225 22.29 16.0563 22.29 15.6982C22.29 14.6891 22.6318 13.7451 23.3154 12.8662C24.2269 11.6618 25.5697 10.8154 27.3438 10.3271C27.9948 10.1807 28.5807 10.1074 29.1016 10.1074C31.2988 10.1074 32.3975 11.377 32.3975 13.916C32.3975 14.7786 32.2754 15.7796 32.0312 16.9189C31.9173 17.3584 31.8604 17.6432 31.8604 17.7734C31.8604 17.9525 32.1533 18.0583 32.7393 18.0908L33.9111 18.1152C34.7249 18.1152 35.4248 18.0745 36.0107 17.9932L36.9141 17.8711C36.9303 17.8711 36.9385 17.8792 36.9385 17.8955C36.9385 17.9118 36.2142 18.0745 34.7656 18.3838L31.3721 19.1895C30.3792 21.8913 29.2887 23.8363 28.1006 25.0244C26.9287 26.2126 25.8138 26.8066 24.7559 26.8066ZM26.1963 22.998C26.3428 22.998 26.6113 22.7865 27.002 22.3633C27.2624 22.0866 27.5472 21.7285 27.8564 21.2891C28.1657 20.8333 28.418 20.4346 28.6133 20.0928C28.8086 19.7347 28.9062 19.5068 28.9062 19.4092C28.9062 19.3929 28.8981 19.3766 28.8818 19.3604C28.8656 19.3441 28.7354 19.3359 28.4912 19.3359C27.1891 19.3848 26.4567 19.4499 26.2939 19.5312C26.18 19.6777 26.0986 20.1986 26.0498 21.0938L26.0254 21.9482C26.0254 22.5016 26.0417 22.819 26.0742 22.9004C26.1068 22.9655 26.1475 22.998 26.1963 22.998ZM29.5898 17.627C29.7201 17.627 29.8503 17.4235 29.9805 17.0166V16.9922C30.4688 15.5924 30.7373 14.5508 30.7861 13.8672C30.835 13.1836 30.8594 12.7441 30.8594 12.5488C30.8594 11.2956 30.4443 10.6689 29.6143 10.6689C29.2399 10.6689 28.8411 10.8154 28.418 11.1084C27.6367 11.6455 27.0752 12.2559 26.7334 12.9395C26.3916 13.6068 26.2207 14.1276 26.2207 14.502C26.2207 15.2018 26.7578 15.9749 27.832 16.8213C28.1738 17.098 28.5889 17.3177 29.0771 17.4805H29.1016C29.3132 17.5781 29.4759 17.627 29.5898 17.627Z" fill="#CB3133"/>
<path d="M47.876 27.0264C47.5016 27.0264 47.1354 26.9694 46.7773 26.8555C45.1172 26.0742 44.2871 24.5524 44.2871 22.29C44.2871 21.167 44.4906 19.8649 44.8975 18.3838C45.0114 18.1559 45.0684 17.9525 45.0684 17.7734C45.0684 17.7409 45.0602 17.7246 45.0439 17.7246C44.9951 17.7246 44.5068 18.3268 43.5791 19.5312L43.335 19.8486C42.0003 21.5739 40.8854 23.1771 39.9902 24.6582C39.4206 25.6022 38.9648 26.1719 38.623 26.3672C38.2812 26.5625 37.9883 26.6602 37.7441 26.6602C37.4837 26.6602 37.1989 26.5869 36.8896 26.4404C35.7666 25.9847 35.2051 24.9512 35.2051 23.3398C35.2051 21.6471 35.8643 18.8558 37.1826 14.9658C37.6546 13.5661 38.029 12.5326 38.3057 11.8652C38.5824 11.1979 38.8509 10.7829 39.1113 10.6201C39.3717 10.4411 39.7298 10.3516 40.1855 10.3516C41.5365 10.3516 42.2119 11.141 42.2119 12.7197C42.2119 13.5824 42.0085 14.681 41.6016 16.0156C40.9342 18.1803 40.4297 19.9219 40.0879 21.2402L39.624 22.998C40.0309 22.5423 40.3809 22.111 40.6738 21.7041C40.9831 21.2972 41.3086 20.8577 41.6504 20.3857C43.5547 17.7002 44.8486 16.0889 45.5322 15.5518C46.2321 14.9984 46.7529 14.7217 47.0947 14.7217C47.4691 14.7217 47.7783 14.9333 48.0225 15.3564C48.2829 15.7145 48.4456 16.3249 48.5107 17.1875C48.5433 17.6921 48.5677 18.3838 48.584 19.2627C48.6165 20.9229 48.6572 21.7529 48.7061 21.7529C48.8688 21.7529 49.4954 21.0612 50.5859 19.6777C51.0091 19.1243 51.3753 18.6035 51.6846 18.1152C52.8727 16.3249 53.6947 15.0309 54.1504 14.2334C54.8828 12.915 55.249 11.9303 55.249 11.2793C55.249 11.0677 55.1514 10.9619 54.9561 10.9619C54.8096 10.9619 54.598 11.0189 54.3213 11.1328L54.1992 11.1572C54.1992 11.0921 54.3538 10.9945 54.6631 10.8643C55.2327 10.6364 55.6315 10.5225 55.8594 10.5225C56.901 10.5225 57.4219 11.2712 57.4219 12.7686C57.4219 14.5752 56.8441 16.7643 55.6885 19.3359C54.6631 21.5983 53.361 23.5189 51.7822 25.0977C50.3988 26.3835 49.0967 27.0264 47.876 27.0264Z" fill="#CB3133"/>
<path d="M60.9375 26.5381C60.6771 26.5381 60.4329 26.5055 60.2051 26.4404C58.5938 26.0335 57.6823 24.8047 57.4707 22.7539V22.7051C57.4382 22.3145 57.4219 21.932 57.4219 21.5576C57.4219 19.8812 57.7718 18.2536 58.4717 16.6748C59.6598 14.3148 60.8805 12.7604 62.1338 12.0117C63.387 11.263 64.3229 10.8887 64.9414 10.8887C65.6413 10.8887 66.2191 11.1898 66.6748 11.792C66.7887 12.0036 66.8457 12.2559 66.8457 12.5488C66.8457 12.9232 66.7399 13.3626 66.5283 13.8672C66.154 14.7461 65.625 15.5599 64.9414 16.3086C64.2578 17.041 63.6149 17.4072 63.0127 17.4072C62.8499 17.4072 62.6709 17.6432 62.4756 18.1152C62.2803 18.571 62.1094 19.1243 61.9629 19.7754C61.8327 20.4264 61.7676 21.0286 61.7676 21.582C61.7676 22.7051 62.3128 23.2666 63.4033 23.2666C65.0146 23.2666 66.6097 22.3877 68.1885 20.6299C69.8649 18.7581 70.752 17.8223 70.8496 17.8223C70.8496 18.0664 69.5475 19.6533 66.9434 22.583C64.5996 25.2197 62.5977 26.5381 60.9375 26.5381ZM63.2812 16.6992C63.4115 16.6992 63.6149 16.6097 63.8916 16.4307C64.9007 15.9424 65.5518 15.1123 65.8447 13.9404C65.9587 13.4847 66.0156 13.1429 66.0156 12.915C66.0156 12.7035 65.9668 12.5977 65.8691 12.5977C65.6413 12.5977 65.153 13.151 64.4043 14.2578C63.5742 15.4785 63.1592 16.2354 63.1592 16.5283C63.1592 16.6423 63.1999 16.6992 63.2812 16.6992Z" fill="#CB3133"/>
<path d="M72.168 27.7588C71.9727 27.7588 71.7692 27.7181 71.5576 27.6367C70.109 27.1973 69.3848 25.7568 69.3848 23.3154C69.3848 21.6715 69.7103 19.5801 70.3613 17.041C71.582 12.0117 72.9167 9.49707 74.3652 9.49707C74.6908 9.49707 75.0163 9.61914 75.3418 9.86328C75.9115 10.2051 76.2044 10.5876 76.2207 11.0107C76.237 11.4176 76.2451 11.6618 76.2451 11.7432C76.2451 12.4919 76.0498 13.5579 75.6592 14.9414C75.4801 15.5436 75.3011 16.1621 75.1221 16.7969C74.9593 17.4316 74.821 17.985 74.707 18.457C74.5931 18.9128 74.5361 19.1813 74.5361 19.2627C74.5524 19.2627 74.6826 19.043 74.9268 18.6035C75.1709 18.1478 75.472 17.57 75.8301 16.8701C76.1882 16.154 76.5462 15.4378 76.9043 14.7217C77.2786 13.9893 77.5879 13.3708 77.832 12.8662C78.7272 10.9131 79.3945 9.70052 79.834 9.22852C80.2734 8.75651 80.7129 8.52051 81.1523 8.52051C82.4544 8.52051 83.2275 9.46452 83.4717 11.3525C83.6344 12.6221 83.7728 13.5417 83.8867 14.1113C84.0007 14.681 84.139 15.0553 84.3018 15.2344C84.4645 15.4134 84.7087 15.5355 85.0342 15.6006C85.1807 15.6494 85.3027 15.6738 85.4004 15.6738C85.5469 15.6738 85.6201 15.6087 85.6201 15.4785C85.6201 15.4297 85.6038 15.3646 85.5713 15.2832C85.5387 15.1855 85.5225 15.1123 85.5225 15.0635C85.5225 15.0309 85.5306 15.0146 85.5469 15.0146C85.7096 15.0146 85.791 15.1449 85.791 15.4053C85.791 15.682 85.7096 16.0319 85.5469 16.4551C85.2214 17.2689 84.5378 17.6758 83.4961 17.6758C82.9427 17.6758 82.3812 17.513 81.8115 17.1875C80.6722 16.569 79.9561 15.6006 79.6631 14.2822C79.6305 14.1357 79.5736 14.0625 79.4922 14.0625C79.1341 14.0625 78.3447 15.7715 77.124 19.1895C75.8708 22.8027 74.8942 25.1383 74.1943 26.1963C73.4945 27.238 72.819 27.7588 72.168 27.7588Z" fill="#CB3133"/>
<path d="M88.0371 26.5381C87.7767 26.5381 87.5326 26.5055 87.3047 26.4404C85.6934 26.0335 84.7819 24.8047 84.5703 22.7539V22.7051C84.5378 22.3145 84.5215 21.932 84.5215 21.5576C84.5215 19.8812 84.8714 18.2536 85.5713 16.6748C86.7594 14.3148 87.9801 12.7604 89.2334 12.0117C90.4867 11.263 91.4225 10.8887 92.041 10.8887C92.7409 10.8887 93.3187 11.1898 93.7744 11.792C93.8883 12.0036 93.9453 12.2559 93.9453 12.5488C93.9453 12.9232 93.8395 13.3626 93.6279 13.8672C93.2536 14.7461 92.7246 15.5599 92.041 16.3086C91.3574 17.041 90.7145 17.4072 90.1123 17.4072C89.9495 17.4072 89.7705 17.6432 89.5752 18.1152C89.3799 18.571 89.209 19.1243 89.0625 19.7754C88.9323 20.4264 88.8672 21.0286 88.8672 21.582C88.8672 22.7051 89.4124 23.2666 90.5029 23.2666C92.1143 23.2666 93.7093 22.3877 95.2881 20.6299C96.9645 18.7581 97.8516 17.8223 97.9492 17.8223C97.9492 18.0664 96.6471 19.6533 94.043 22.583C91.6992 25.2197 89.6973 26.5381 88.0371 26.5381ZM90.3809 16.6992C90.5111 16.6992 90.7145 16.6097 90.9912 16.4307C92.0003 15.9424 92.6514 15.1123 92.9443 13.9404C93.0583 13.4847 93.1152 13.1429 93.1152 12.915C93.1152 12.7035 93.0664 12.5977 92.9688 12.5977C92.7409 12.5977 92.2526 13.151 91.5039 14.2578C90.6738 15.4785 90.2588 16.2354 90.2588 16.5283C90.2588 16.6423 90.2995 16.6992 90.3809 16.6992Z" fill="#CB3133"/>
<path d="M108.032 28.5645C107.576 28.5645 107.145 28.4831 106.738 28.3203C104.98 27.4577 104.102 25.6266 104.102 22.8271C104.102 21.5902 104.329 19.9137 104.785 17.7979C104.785 17.7327 104.777 17.7002 104.761 17.7002C104.647 17.7002 104.085 18.9128 103.076 21.3379C102.116 23.6816 101.286 25.1953 100.586 25.8789C99.9023 26.5625 99.2269 26.9043 98.5596 26.9043H98.4375C96.5983 26.6439 95.6787 25.529 95.6787 23.5596C95.695 22.1273 96.1914 20.2718 97.168 17.9932C98.5026 14.9984 99.9023 12.8988 101.367 11.6943C102.751 10.5713 103.979 10.0098 105.054 10.0098C105.558 10.0098 106.047 10.1237 106.519 10.3516C106.665 10.4655 106.795 10.5225 106.909 10.5225C107.007 10.5225 107.153 10.2458 107.349 9.69238C109.855 3.23079 111.914 0 113.525 0H113.696C114.364 0.211589 114.697 0.716146 114.697 1.51367C114.697 2.50651 114.152 4.36198 113.062 7.08008C111.564 10.9049 110.482 14.0544 109.814 16.5283C109.147 18.986 108.724 21.3216 108.545 23.5352C108.512 24.0397 108.496 24.4222 108.496 24.6826C108.496 24.764 108.496 24.8861 108.496 25.0488C108.496 25.1953 108.553 25.293 108.667 25.3418C108.797 25.3906 109.001 25.415 109.277 25.415C110.156 25.415 110.962 25.1302 111.694 24.5605C112.427 23.9909 113.127 23.3073 113.794 22.5098C114.478 21.696 115.283 20.7113 116.211 19.5557C117.155 18.3838 117.651 17.7979 117.7 17.7979C117.716 17.7979 117.725 17.8223 117.725 17.8711C117.708 18.0827 117.025 19.1162 115.674 20.9717C114.583 22.5505 113.656 23.7793 112.891 24.6582C112.321 25.3418 111.841 25.9521 111.45 26.4893C110.36 27.8727 109.22 28.5645 108.032 28.5645ZM100.977 20.874C100.993 20.874 101.213 20.6787 101.636 20.2881C102.254 19.6859 102.922 18.8395 103.638 17.749C104.858 15.9424 105.485 14.8193 105.518 14.3799C105.518 14.3473 105.509 14.3229 105.493 14.3066C105.493 14.2904 105.477 14.2741 105.444 14.2578C105.282 14.2578 105.005 14.4694 104.614 14.8926C103.54 16.0482 102.539 17.4805 101.611 19.1895C101.188 19.9707 100.977 20.5322 100.977 20.874Z" fill="#CB3133"/>
<path d="M168.701 36.5723C166.113 36.5723 164.819 34.5866 164.819 30.6152C164.819 27.0345 165.91 20.7764 168.091 11.8408C169.198 7.28353 169.751 4.80143 169.751 4.39453C169.751 4.3457 169.743 4.32129 169.727 4.32129C169.645 4.32129 169.157 4.80143 168.262 5.76172C163.411 11.0189 159.863 17.6025 157.617 25.5127C157.259 26.8962 156.966 27.8646 156.738 28.418C156.283 29.5573 155.583 30.127 154.639 30.127C154.362 30.127 154.077 30.0537 153.784 29.9072C152.791 29.4189 152.295 28.3936 152.295 26.8311C152.295 25.1546 152.637 22.5911 153.32 19.1406C154.167 14.9089 155.2 10.9782 156.421 7.34863C156.828 6.17676 157.031 5.5013 157.031 5.32227C157.031 5.24089 157.007 5.2002 156.958 5.2002C156.893 5.2002 156.787 5.27344 156.641 5.41992C155.55 6.49414 154.045 9.02507 152.124 13.0127C150.203 17.0003 148.332 21.4925 146.509 26.4893C145.874 28.2471 145.361 29.484 144.971 30.2002C144.596 30.9001 144.189 31.3558 143.75 31.5674C143.327 31.7627 142.936 31.8604 142.578 31.8604C142.074 31.8604 141.618 31.665 141.211 31.2744C140.511 30.6071 140.145 29.5492 140.112 28.1006C140.161 26.0498 140.625 23.055 141.504 19.1162C142.367 15.1774 143.335 11.4827 144.409 8.03223C145.5 4.56543 146.37 2.52279 147.021 1.9043C147.412 1.64388 147.795 1.51367 148.169 1.51367C149.097 1.51367 149.731 2.05892 150.073 3.14941C150.155 3.32845 150.195 3.54004 150.195 3.78418C150.195 4.38639 149.748 6.12793 148.853 9.00879C147.013 15.1123 145.776 20.3044 145.142 24.585C145.142 24.6012 145.142 24.6175 145.142 24.6338C145.142 24.6338 145.15 24.6338 145.166 24.6338C145.492 24.2594 146.102 23.1852 146.997 21.4111C147.892 19.6208 148.755 17.7734 149.585 15.8691C150.643 13.4277 151.481 11.5397 152.1 10.2051C152.734 8.87044 153.28 7.86947 153.735 7.20215C154.191 6.51855 154.679 5.93262 155.2 5.44434C155.9 4.74447 156.51 4.39453 157.031 4.39453C157.633 4.39453 158.122 4.85026 158.496 5.76172C158.887 6.52669 159.082 7.56836 159.082 8.88672C159.082 10.3678 158.805 12.8418 158.252 16.3086C158.105 17.3503 157.983 18.2048 157.886 18.8721C157.788 19.5231 157.739 19.9056 157.739 20.0195C157.756 20.0358 158.211 19.2464 159.106 17.6514C159.709 16.512 160.522 15.0391 161.548 13.2324C162.72 11.1491 163.452 9.82259 163.745 9.25293C166.87 3.7679 168.945 0.984701 169.971 0.90332C171.012 0.82194 171.566 0.78125 171.631 0.78125C172.965 0.78125 173.633 2.11589 173.633 4.78516C173.633 6.23372 173.438 7.96712 173.047 9.98535C172.803 11.2061 172.331 13.4359 171.631 16.6748C170.459 22.0622 169.784 25.8301 169.604 27.9785C169.442 30.1107 169.36 31.5104 169.36 32.1777C169.36 34.0007 169.621 34.9121 170.142 34.9121C170.402 34.9121 170.532 34.9609 170.532 35.0586C170.532 35.1562 170.459 35.3434 170.312 35.6201C169.954 36.2549 169.417 36.5723 168.701 36.5723Z" fill="#CB3133"/>
<path d="M176.025 26.8066C175.83 26.8066 175.635 26.7904 175.439 26.7578C174.072 26.3509 173.275 25.5859 173.047 24.4629C172.803 23.3398 172.681 22.5098 172.681 21.9727C172.681 20.7031 172.982 19.3522 173.584 17.9199C173.714 17.6432 173.779 17.4479 173.779 17.334C173.779 17.2526 173.747 17.0736 173.682 16.7969C173.6 16.4225 173.56 16.0563 173.56 15.6982C173.56 14.6891 173.901 13.7451 174.585 12.8662C175.496 11.6618 176.839 10.8154 178.613 10.3271C179.264 10.1807 179.85 10.1074 180.371 10.1074C182.568 10.1074 183.667 11.377 183.667 13.916C183.667 14.7786 183.545 15.7796 183.301 16.9189C183.187 17.3584 183.13 17.6432 183.13 17.7734C183.13 17.9525 183.423 18.0583 184.009 18.0908L185.181 18.1152C185.994 18.1152 186.694 18.0745 187.28 17.9932L188.184 17.8711C188.2 17.8711 188.208 17.8792 188.208 17.8955C188.208 17.9118 187.484 18.0745 186.035 18.3838L182.642 19.1895C181.649 21.8913 180.558 23.8363 179.37 25.0244C178.198 26.2126 177.083 26.8066 176.025 26.8066ZM177.466 22.998C177.612 22.998 177.881 22.7865 178.271 22.3633C178.532 22.0866 178.817 21.7285 179.126 21.2891C179.435 20.8333 179.688 20.4346 179.883 20.0928C180.078 19.7347 180.176 19.5068 180.176 19.4092C180.176 19.3929 180.168 19.3766 180.151 19.3604C180.135 19.3441 180.005 19.3359 179.761 19.3359C178.459 19.3848 177.726 19.4499 177.563 19.5312C177.45 19.6777 177.368 20.1986 177.319 21.0938L177.295 21.9482C177.295 22.5016 177.311 22.819 177.344 22.9004C177.376 22.9655 177.417 22.998 177.466 22.998ZM180.859 17.627C180.99 17.627 181.12 17.4235 181.25 17.0166V16.9922C181.738 15.5924 182.007 14.5508 182.056 13.8672C182.104 13.1836 182.129 12.7441 182.129 12.5488C182.129 11.2956 181.714 10.6689 180.884 10.6689C180.509 10.6689 180.111 10.8154 179.688 11.1084C178.906 11.6455 178.345 12.2559 178.003 12.9395C177.661 13.6068 177.49 14.1276 177.49 14.502C177.49 15.2018 178.027 15.9749 179.102 16.8213C179.443 17.098 179.858 17.3177 180.347 17.4805H180.371C180.583 17.5781 180.745 17.627 180.859 17.627Z" fill="#CB3133"/>
<path d="M190.479 26.3428C188.265 26.3428 187.158 24.7314 187.158 21.5088C187.158 20.3857 187.297 19.0592 187.573 17.5293C188.045 14.6159 188.509 12.7767 188.965 12.0117C189.421 11.2467 189.884 10.8643 190.356 10.8643C190.649 10.8643 190.967 10.9782 191.309 11.2061C192.106 11.5804 192.505 12.557 192.505 14.1357C192.505 14.8519 192.424 15.6901 192.261 16.6504C191.935 18.7663 191.772 20.5078 191.772 21.875C191.772 22.2493 191.797 22.4365 191.846 22.4365C192.074 22.4365 192.611 21.932 193.457 20.9229C194.32 19.9137 195.312 18.6117 196.436 17.0166C199.235 12.9639 201.554 10.9375 203.394 10.9375C203.589 10.9375 204.028 11.027 204.712 11.2061H204.346C204.02 11.2061 203.678 11.3607 203.32 11.6699C202.979 11.9629 202.482 12.5488 201.831 13.4277C201.18 14.2904 200.667 14.9495 200.293 15.4053C199.447 16.4632 198.12 18.3024 196.313 20.9229C194.735 23.234 193.53 24.7152 192.7 25.3662C191.87 26.0173 191.13 26.3428 190.479 26.3428Z" fill="#CB3133"/>
<path d="M205.396 28.7842C205.021 28.7842 204.663 28.7191 204.321 28.5889C202.319 27.8239 201.318 25.944 201.318 22.9492C201.318 21.0124 201.733 18.6117 202.563 15.7471C203.166 13.6637 203.711 12.2314 204.199 11.4502C204.688 10.6689 205.265 10.2783 205.933 10.2783C207.153 10.2783 207.764 11.0677 207.764 12.6465C207.764 13.2812 207.666 14.0299 207.471 14.8926C206.396 18.7663 205.859 21.5007 205.859 23.0957C205.859 24.4954 206.291 25.1953 207.153 25.1953C207.821 25.1953 208.602 24.8779 209.497 24.2432C209.953 23.9339 211.035 22.8923 212.744 21.1182C214.453 19.3441 215.356 18.4001 215.454 18.2861C215.747 17.9443 215.926 17.7734 215.991 17.7734L216.016 17.7979C216.016 17.863 214.95 19.3522 212.817 22.2656C210.685 25.179 209.098 26.9938 208.057 27.71C207.031 28.4261 206.144 28.7842 205.396 28.7842ZM207.568 9.32617C206.852 9.32617 206.364 9.00879 206.104 8.37402C205.973 8.0485 205.908 7.76367 205.908 7.51953C205.908 7.35677 205.924 7.20215 205.957 7.05566C206.266 6.0791 206.868 5.59082 207.764 5.59082C208.024 5.59082 208.285 5.65592 208.545 5.78613C209.098 6.04655 209.375 6.54297 209.375 7.27539C209.375 7.99154 209.115 8.55306 208.594 8.95996C208.268 9.2041 207.926 9.32617 207.568 9.32617Z" fill="#CB3133"/>
<path d="M235.767 28.1738C233.96 28.1738 232.69 27.3438 231.958 25.6836C231.795 25.3092 231.714 24.821 231.714 24.2188C231.714 22.0215 232.756 18.2617 234.839 12.9395L234.888 12.793L234.863 12.7441C234.733 12.7441 233.521 14.8926 231.226 19.1895C228.947 23.4701 227.547 25.8138 227.026 26.2207C226.522 26.6276 226.042 26.8311 225.586 26.8311C224.089 26.8311 223.34 25.9766 223.34 24.2676C223.34 22.5098 224.137 19.8242 225.732 16.2109C225.635 16.2109 224.894 17.2363 223.511 19.2871C222.144 21.3216 220.915 23.2422 219.824 25.0488C218.978 26.5137 218.368 27.4007 217.993 27.71C217.619 28.0192 217.285 28.1738 216.992 28.1738C216.748 28.1738 216.504 28.1087 216.26 27.9785C214.925 27.6367 214.258 26.3346 214.258 24.0723C214.258 22.3958 214.624 20.1986 215.356 17.4805C216.642 12.4023 218.075 9.86328 219.653 9.86328C219.897 9.86328 220.142 9.92025 220.386 10.0342C220.988 10.2783 221.297 10.5957 221.313 10.9863C221.33 11.3607 221.338 11.5641 221.338 11.5967C221.338 12.3454 221.094 13.5661 220.605 15.2588C220.166 16.8538 219.767 18.4652 219.409 20.0928C219.067 21.7204 218.896 22.8516 218.896 23.4863C219.271 22.998 220.003 21.8913 221.094 20.166C222.77 17.5944 224.259 15.4704 225.562 13.7939C226.88 12.1175 227.767 11.2142 228.223 11.084C228.337 11.0514 228.442 11.0352 228.54 11.0352C229.484 11.0352 229.956 12.1501 229.956 14.3799C229.956 15.3076 229.875 16.4307 229.712 17.749C229.565 19.0674 229.492 19.7591 229.492 19.8242C229.525 19.8242 229.81 19.4417 230.347 18.6768C230.9 17.8955 231.331 17.2526 231.641 16.748C233.333 14.0462 234.554 12.1989 235.303 11.2061C236.051 10.2132 236.58 9.7168 236.89 9.7168L237.134 9.69238C238.175 9.69238 238.696 10.3434 238.696 11.6455C238.696 12.9476 238.298 14.86 237.5 17.3828C236.719 19.8893 236.328 21.7367 236.328 22.9248C236.328 24.2269 236.589 24.9674 237.109 25.1465C237.256 25.1953 237.402 25.2197 237.549 25.2197C238.965 25.2197 240.625 24.0072 242.529 21.582C244.434 19.1569 245.41 17.9199 245.459 17.8711C245.475 17.8711 245.483 17.8955 245.483 17.9443C245.483 18.3512 244.702 19.6289 243.14 21.7773C241.593 23.9095 240.234 25.5127 239.062 26.5869C237.891 27.6449 236.792 28.1738 235.767 28.1738Z" fill="#CB3133"/>
<path d="M247.754 26.5381C247.493 26.5381 247.249 26.5055 247.021 26.4404C245.41 26.0335 244.499 24.8047 244.287 22.7539V22.7051C244.255 22.3145 244.238 21.932 244.238 21.5576C244.238 19.8812 244.588 18.2536 245.288 16.6748C246.476 14.3148 247.697 12.7604 248.95 12.0117C250.203 11.263 251.139 10.8887 251.758 10.8887C252.458 10.8887 253.035 11.1898 253.491 11.792C253.605 12.0036 253.662 12.2559 253.662 12.5488C253.662 12.9232 253.556 13.3626 253.345 13.8672C252.97 14.7461 252.441 15.5599 251.758 16.3086C251.074 17.041 250.431 17.4072 249.829 17.4072C249.666 17.4072 249.487 17.6432 249.292 18.1152C249.097 18.571 248.926 19.1243 248.779 19.7754C248.649 20.4264 248.584 21.0286 248.584 21.582C248.584 22.7051 249.129 23.2666 250.22 23.2666C251.831 23.2666 253.426 22.3877 255.005 20.6299C256.681 18.7581 257.568 17.8223 257.666 17.8223C257.666 18.0664 256.364 19.6533 253.76 22.583C251.416 25.2197 249.414 26.5381 247.754 26.5381ZM250.098 16.6992C250.228 16.6992 250.431 16.6097 250.708 16.4307C251.717 15.9424 252.368 15.1123 252.661 13.9404C252.775 13.4847 252.832 13.1429 252.832 12.915C252.832 12.7035 252.783 12.5977 252.686 12.5977C252.458 12.5977 251.969 13.151 251.221 14.2578C250.391 15.4785 249.976 16.2354 249.976 16.5283C249.976 16.6423 250.016 16.6992 250.098 16.6992Z" fill="#CB3133"/>
<path d="M270.728 29.1504C270.207 29.1504 269.735 29.0527 269.312 28.8574C267.765 28.0924 266.992 26.6683 266.992 24.585C266.992 23.0387 267.326 21.0856 267.993 18.7256C268.742 16.154 269.621 14.0788 270.63 12.5C270.825 12.2233 270.923 12.0605 270.923 12.0117V11.9629C270.923 11.9466 270.907 11.9385 270.874 11.9385C270.809 11.9385 270.654 11.9954 270.41 12.1094C269.613 12.5326 268.685 13.3708 267.627 14.624C266.585 15.861 265.576 17.3258 264.6 19.0186C264.014 20.0439 263.314 21.1182 262.5 22.2412C261.702 23.348 260.946 24.3164 260.229 25.1465C259.513 25.9766 258.984 26.4811 258.643 26.6602C258.398 26.7578 258.154 26.8066 257.91 26.8066C256.966 26.8066 256.266 26.3265 255.811 25.3662C255.632 24.8779 255.542 24.292 255.542 23.6084C255.542 22.6481 255.713 21.4925 256.055 20.1416C256.641 17.8141 257.463 15.6413 258.521 13.623C259.725 11.3281 260.832 10.1807 261.841 10.1807C262.638 10.1807 263.037 10.7259 263.037 11.8164C263.037 12.8092 262.728 14.2008 262.109 15.9912C260.921 19.637 260.327 21.6878 260.327 22.1436V22.1924C260.392 22.1924 260.799 21.7041 261.548 20.7275C262.199 19.9463 263.232 18.8151 264.648 17.334C266.064 15.8366 267.326 14.5508 268.433 13.4766C269.93 12.0931 271.069 11.4014 271.851 11.4014C272.681 11.4014 273.096 12.207 273.096 13.8184C273.096 15.0065 272.876 16.6341 272.437 18.7012C271.851 21.3053 271.558 23.2259 271.558 24.4629C271.558 25.5208 271.777 26.0498 272.217 26.0498C274.268 25.8382 276.872 23.4131 280.029 18.7744C280.518 18.1071 280.778 17.7734 280.811 17.7734C280.811 17.8223 280.225 18.807 279.053 20.7275C275.651 26.3428 272.876 29.1504 270.728 29.1504Z" fill="#CB3133"/>
<path d="M282.837 28.6865C282.463 28.6865 282.161 28.654 281.934 28.5889C280.16 28.0029 279.272 26.359 279.272 23.6572C279.272 20.6787 280.404 15.7145 282.666 8.76465C282.926 7.90202 283.057 7.44629 283.057 7.39746C283.057 7.36491 282.747 7.30794 282.129 7.22656C280.745 7.0638 279.728 6.7627 279.077 6.32324C278.426 5.88379 278.101 5.45247 278.101 5.0293C278.101 4.89909 278.125 4.76888 278.174 4.63867C278.304 4.42708 278.939 4.19922 280.078 3.95508C281.201 3.69466 282.568 3.47493 284.18 3.2959C284.326 3.2959 284.473 3.10059 284.619 2.70996C285.042 1.76595 285.465 1.28581 285.889 1.26953C286.328 1.23698 286.564 1.2207 286.597 1.2207C287.345 1.2207 287.939 1.63574 288.379 2.46582L288.55 2.80762H290.503C295.158 2.889 297.485 4.13411 297.485 6.54297C297.485 6.77083 297.469 7.00684 297.437 7.25098C297.404 7.41374 297.38 7.49512 297.363 7.49512C297.347 7.49512 297.339 7.45443 297.339 7.37305C297.306 7.01497 296.956 6.83594 296.289 6.83594C295.882 6.83594 295.369 6.90104 294.751 7.03125C294.539 7.08008 292.253 7.18587 287.891 7.34863L286.938 10.4492C284.806 17.4479 283.74 22.29 283.74 24.9756C283.74 25.5615 283.789 26.0498 283.887 26.4404C284.017 26.6357 284.22 26.7334 284.497 26.7334C285.799 26.7334 288.696 24.5524 293.188 20.1904C294.8 18.6279 295.646 17.8467 295.728 17.8467C295.728 17.8955 295.54 18.1396 295.166 18.5791C292.285 21.8994 290.055 24.2839 288.477 25.7324C286.898 27.181 285.547 28.0843 284.424 28.4424C284.033 28.5726 283.691 28.6458 283.398 28.6621C283.105 28.6784 282.918 28.6865 282.837 28.6865Z" fill="#CB3133"/>
</svg>
