<svg width="130" height="78" viewBox="0 0 130 78" fill="none" xmlns="http://www.w3.org/2000/svg">
<path d="M29.7637 33.4651H22.058L23.2258 46.3683H14.2053C11.7934 46.3683 9.84758 44.4268 9.84758 42.0141V7.51182C9.84758 5.17536 11.7934 3.23661 14.2053 3.23661H35.8315C38.2433 3.23661 40.1836 5.17536 40.1836 7.51182V42.0141C40.1836 44.4268 38.2433 46.3683 35.8315 46.3683H30.9301L29.7651 33.4651H29.7637ZM31.1603 49.1635H41.271C45.5537 49.1635 49.0543 45.5909 49.0543 41.3184V8.28646C49.0543 3.93504 45.5524 0.437256 41.271 0.437256H8.76024C4.48299 0.437256 0.982422 3.93643 0.982422 8.28646V41.3184C0.982422 45.5909 4.48438 49.1635 8.76024 49.1635H23.4616L24.0066 54.9146H31.6277L31.1617 49.1635H31.1603Z" fill="#373435"/>
<path d="M61.8057 46.9102C60.4077 46.9102 59.1637 45.7461 59.1637 44.3423V33.5468L65.6184 38.5953L72.0703 43.5676V44.3423C72.0703 45.7461 70.9025 46.9102 69.431 46.9102H61.8057ZM69.2743 48.7782C71.5266 48.7782 73.3144 46.9905 73.4752 44.8107L77.8288 48.1518V41.0815L73.5515 37.5851V35.02C73.5515 34.2453 73.3144 33.4665 72.9288 32.8443H72.0717V36.3421L65.6197 31.0566L61.9625 28.0258V23.522C61.9625 22.0405 63.1358 20.8778 64.531 20.8778H67.9512C69.3506 20.8778 70.5197 22.0419 70.5197 23.522V25.7753H72.9302V23.3654C72.9302 20.4885 70.6751 18.1589 67.7958 18.1589H60.7212C57.8392 18.1589 55.5119 20.4885 55.5119 23.3654V26.7093C55.5119 28.3362 56.2858 29.7401 57.3745 30.7476C55.1971 30.9014 53.4121 32.7666 53.4121 35.0213V44.4296C53.4121 46.8353 55.3552 48.781 57.6852 48.781H69.2757L69.2743 48.7782Z" fill="#373435"/>
<path d="M120.682 42.0141C120.682 44.4268 118.736 46.3683 116.404 46.3683H111.424L110.26 33.4651H102.641L103.728 46.3683H94.7076C92.2943 46.3683 90.3471 44.4268 90.3471 42.0141V7.51182C90.3471 5.17536 92.2943 3.23661 94.7076 3.23661H116.403C118.735 3.23661 120.68 5.17674 120.68 7.51182V42.0141H120.682ZM121.77 0.437256H89.3402C84.9825 0.437256 81.4819 3.93643 81.4819 8.28646V41.3184C81.4819 45.5909 84.9839 49.1635 89.3402 49.1635H103.96L104.505 54.9146H112.126L111.661 49.1635H121.77C126.048 49.1635 129.626 45.5909 129.626 41.3184V8.28646C129.626 3.93504 126.046 0.437256 121.77 0.437256Z" fill="#373435"/>
<path d="M33.8843 71.5456C33.8843 74.3421 32.7956 75.1196 31.0051 75.1196C30.3102 75.1196 29.6084 74.9657 29.1397 74.8895L28.7485 77.2177C29.3713 77.4533 30.4655 77.6085 31.3157 77.6085C34.7428 77.6085 36.991 76.1298 36.991 71.6204V61.2103H33.8843V71.5456Z" fill="#373435"/>
<path d="M77.4403 70.5353H75.2601L76.5804 66.5719C76.8925 65.6393 77.1241 64.4711 77.4403 63.5398V63.6215C77.7524 64.5528 77.9854 65.6393 78.2919 66.5719L79.6899 70.5353H77.4403ZM77.4403 61.2103H75.5694L70.1299 77.3756H73.3129L74.7941 72.79H80.1587L81.7162 77.3756H85.0656L79.5332 61.2103H77.4403Z" fill="#373435"/>
<path d="M98.9832 66.881C98.9832 69.3713 99.0609 71.389 99.2135 73.5661C98.3619 71.7771 97.4285 69.9131 96.2635 68.1227L91.8267 61.2089H88.3262V77.3743H91.2054V71.5428C91.2054 68.9777 91.1277 66.8034 91.0528 64.7039H91.1277C91.903 66.4916 93.0736 68.5107 94.1609 70.2222L98.5935 77.3729H101.862V61.2075H98.9832V66.8782V66.881Z" fill="#373435"/>
<path d="M47.7269 70.5353H45.5536L46.7949 66.5719C47.1055 65.6393 47.4204 64.4711 47.652 63.5398H47.7269V63.6215C47.9599 64.5528 48.1929 65.6393 48.5812 66.5719L49.9043 70.5353H47.7269ZM47.7269 61.2103H45.7838L40.3374 77.3756H43.5301L45.0071 72.79H50.4522L52.0055 77.3756H55.3522L49.7504 61.2103H47.7269Z" fill="#373435"/>
<path d="M63.9801 68.9791C63.5946 69.0595 63.2035 69.0595 62.8137 69.0595C62.1966 69.0595 61.7278 69.0595 61.3353 68.9791V63.4636C61.6473 63.386 62.2701 63.307 63.1327 63.307C63.4392 63.307 63.6695 63.3846 63.9801 63.3846C65.6167 63.6188 66.6305 64.5501 66.6305 66.1036C66.6305 67.6571 65.6167 68.6687 63.9801 68.9778V68.9791ZM68.0299 62.3771C67.0965 61.6759 65.772 61.2103 63.9801 61.1355C63.6695 61.0537 63.3588 61.0537 62.9718 61.0537C60.8734 61.0537 59.3173 61.2103 58.23 61.3641V77.3743H61.3367V71.2352C61.7292 71.3114 62.2714 71.3114 62.8151 71.3114H63.9815C65.6985 71.1534 67.2519 70.6129 68.2602 69.6817C69.1922 68.8253 69.7386 67.5032 69.7386 65.9498C69.7386 64.4683 69.0368 63.1546 68.0299 62.3771Z" fill="#373435"/>
</svg>
