<svg width="158" height="95" viewBox="0 0 158 95" fill="none" xmlns="http://www.w3.org/2000/svg">
<path d="M35.2444 40.442H25.808L27.2379 56.242H16.1917C13.238 56.242 10.8561 53.8632 10.8561 50.9094V8.66233C10.8561 5.80221 13.2393 3.42734 16.1917 3.42734H42.6716C45.6265 3.42734 48.002 5.80221 48.002 8.66233V50.9094C48.002 53.8645 45.6265 56.242 42.6716 56.242H36.6692L35.2444 40.442ZM36.9532 59.6656H49.333C54.5773 59.6656 58.8658 55.2907 58.8658 50.0583V9.61356C58.8658 4.28357 54.5786 0.00109863 49.333 0.00109863H9.52253C4.28718 0.00109863 0 4.28357 0 9.61356V50.0583C0 55.2907 4.28718 59.6656 9.52253 59.6656H27.5257L28.1925 66.7068H37.5236L36.9532 59.6656Z" fill="#BD3438"/>
<path d="M74.478 56.9058C72.7667 56.9058 71.243 55.4809 71.243 53.762V40.541L79.1468 46.7246L87.048 52.8133V53.762C87.048 55.4809 85.6193 56.9058 83.8155 56.9058H74.478ZM83.6215 59.1934C86.3812 59.1934 88.5691 57.0033 88.7669 54.3332L94.0974 58.4257V49.7683L88.8594 45.4871V42.3459C88.8594 41.3972 88.5691 40.4434 88.0963 39.6822H87.048V43.9647L79.1468 37.4922L74.6681 33.7797V28.2648C74.6681 26.4535 76.1058 25.026 77.8145 25.026H82.0028C83.714 25.026 85.1478 26.4522 85.1478 28.2648V31.0235H88.0976V28.0735C88.0976 24.551 85.3367 21.6986 81.8126 21.6986H73.1496C69.6204 21.6986 66.7708 24.551 66.7708 28.0735V32.1673C66.7708 34.1609 67.7177 35.8785 69.0512 37.1122C66.3867 37.2996 64.1987 39.5846 64.1987 42.3446V53.8634C64.1987 56.8108 66.5768 59.1934 69.4302 59.1934H83.6228H83.6215Z" fill="#BD3438"/>
<path d="M146.573 50.9096C146.573 53.8647 144.19 56.2421 141.334 56.2421H135.237L133.813 40.4422H124.482L125.814 56.2421H114.768C111.813 56.2421 109.43 53.8634 109.43 50.9096V8.66251C109.43 5.80239 111.814 3.42752 114.768 3.42752H141.335C144.191 3.42752 146.575 5.80239 146.575 8.66251V50.9096H146.573ZM147.906 0H108.194C102.86 0 98.5713 4.28376 98.5713 9.61374V50.0585C98.5713 55.2909 102.858 59.6645 108.194 59.6645H126.096L126.764 66.7083H136.097L135.527 59.6645H147.906C153.143 59.6645 157.526 55.2909 157.526 50.0585V9.61374C157.526 4.28376 153.143 0 147.906 0Z" fill="#BD3438"/>
<path d="M40.2883 87.0705C40.2883 90.4942 38.9548 91.4467 36.7604 91.4467C35.9099 91.4467 35.0517 91.2593 34.4774 91.1656L33.9995 94.0167C34.7601 94.3055 36.1001 94.4955 37.1433 94.4955C41.338 94.4955 44.0925 92.6842 44.0925 87.1642V74.4156H40.2883V87.0705Z" fill="#BD3438"/>
<path d="M93.6217 85.8331H90.952L92.5695 80.9806C92.9524 79.8381 93.235 78.4081 93.6204 77.2681V77.367C94.0033 78.5069 94.2885 79.8381 94.6649 80.9806L96.3775 85.8331H93.6204H93.6217ZM93.6217 74.4144H91.3297L84.6709 94.2093H88.5688L90.3816 88.5944H96.9505L98.8583 94.2093H102.959L96.1835 74.4144H93.6204H93.6217Z" fill="#BD3438"/>
<path d="M120.003 81.3593C120.003 84.4081 120.099 86.8818 120.284 89.5455C119.242 87.3555 118.099 85.0731 116.672 82.8818L111.24 74.4156H106.955V94.2106H110.479V87.0731C110.479 83.9318 110.383 81.2681 110.292 78.6981H110.383C111.332 80.8881 112.766 83.3606 114.097 85.4556L119.525 94.2118H123.528V74.4169H120.002V81.3606L120.003 81.3593Z" fill="#BD3438"/>
<path d="M57.2394 85.8331H54.5787L56.0998 80.9806C56.4801 79.8381 56.8643 78.4081 57.1482 77.2681H57.2394V77.367C57.5259 78.5069 57.8111 79.8381 58.2865 80.9806L59.9065 85.8331H57.2381H57.2394ZM57.2394 74.4144H54.8588L48.1909 94.2093H52.0991L53.908 88.5944H60.5746L62.4786 94.2093H66.5757L59.7177 74.4144H57.2407H57.2394Z" fill="#BD3438"/>
<path d="M77.1428 83.9306C76.67 84.0282 76.1908 84.0282 75.7154 84.0282C74.96 84.0282 74.3857 84.0282 73.9039 83.9306V77.1757C74.2881 77.0794 75.0499 76.9857 76.1047 76.9857C76.4811 76.9857 76.7625 77.0807 77.1428 77.0807C79.147 77.3682 80.3868 78.5082 80.3868 80.4119C80.3868 82.3144 79.1457 83.5519 77.1428 83.9319V83.9306ZM82.1019 75.8458C80.9572 74.987 79.3358 74.4157 77.1428 74.3246C76.7625 74.2257 76.3822 74.2257 75.9081 74.2257C73.3373 74.2257 71.4321 74.4157 70.1011 74.607V94.2106H73.9039V86.6944C74.3857 86.7869 75.0499 86.7869 75.7154 86.7869H77.1428C79.2446 86.5943 81.1473 85.9306 82.3833 84.7907C83.5228 83.7432 84.1935 82.1231 84.1935 80.2219C84.1935 78.4106 83.3327 76.7996 82.1019 75.847V75.8458Z" fill="#BD3438"/>
</svg>
