<svg width="79" height="48" viewBox="0 0 79 48" fill="none" xmlns="http://www.w3.org/2000/svg">
<path d="M17.5737 20.1956H12.869L13.5817 28.0857H8.07244C6.60001 28.0857 5.41146 26.8987 5.41146 25.423V4.32577C5.41146 2.8972 6.60001 1.71145 8.07244 1.71145H21.2772C22.7508 1.71145 23.9358 2.8972 23.9358 4.32577V25.423C23.9358 26.8987 22.7508 28.0857 21.2772 28.0857H18.284L17.5737 20.1956ZM18.4265 29.7948H24.6001C27.2152 29.7948 29.3531 27.6095 29.3531 24.9975V4.7996C29.3531 2.13931 27.2152 0 24.6001 0H4.74829C2.13797 0 0 2.13931 0 4.7996V24.9975C0 27.6095 2.13797 29.7948 4.74829 29.7948H13.7254L14.0576 33.3108H18.7104L18.4265 29.7948Z" fill="#5A0011"/>
<path d="M37.1383 28.4181C36.2855 28.4181 35.5257 27.7061 35.5257 26.8481V20.2463L39.4671 23.3344L43.4073 26.3742V26.8481C43.4073 27.7061 42.6947 28.4181 41.7959 28.4181H37.1395H37.1383ZM41.6993 29.559C43.0751 29.559 44.1659 28.4652 44.2649 27.1321L46.9223 29.1748V24.8526L44.3108 22.7144V21.1456C44.3108 20.6718 44.1659 20.1956 43.9303 19.816H43.4073V21.9542L39.4671 18.7222L37.2337 16.8682V14.1136C37.2337 13.2083 37.9499 12.4964 38.8016 12.4964H40.8901C41.7441 12.4964 42.4579 13.2083 42.4579 14.1136V15.4914H43.9291V14.0181C43.9291 12.2595 42.5522 10.8345 40.7947 10.8345H36.4752C34.7153 10.8345 33.2935 12.2595 33.2935 14.0181V16.0619C33.2935 17.0579 33.7659 17.9148 34.4302 18.5313C33.1015 18.6256 32.0107 19.7654 32.0107 21.1432V26.8964C32.0107 28.3674 33.1958 29.5567 34.6199 29.5567H41.697L41.6993 29.559Z" fill="#5A0011"/>
<path d="M73.0891 25.423C73.0891 26.8987 71.9006 28.0857 70.4764 28.0857H67.4361L66.727 20.1956H62.0742L62.7385 28.0857H57.2293C55.7557 28.0857 54.5671 26.8987 54.5671 25.423V4.32577C54.5671 2.8972 55.7557 1.71145 57.2293 1.71145H70.4764C71.9006 1.71145 73.0891 2.8972 73.0891 4.32577V25.423ZM73.7535 0H53.9511C51.2901 0 49.1533 2.13813 49.1533 4.7996V24.9975C49.1533 27.6095 51.2901 29.7948 53.9511 29.7948H62.8775L63.2109 33.3108H67.8638L67.5799 29.7948H73.7535C76.365 29.7948 78.55 27.6095 78.55 24.9975V4.7996C78.55 2.13813 76.365 0 73.7535 0Z" fill="#5A0011"/>
<path d="M20.0908 43.4817C20.0908 45.1908 19.4264 45.667 18.3321 45.667C17.9069 45.667 17.4793 45.5727 17.193 45.5255L16.9551 46.9505C17.3344 47.0943 18.0035 47.1886 18.5229 47.1886C20.6149 47.1886 21.9872 46.2846 21.9872 43.5265V37.1604H20.0908V43.4805V43.4817Z" fill="#5A0011"/>
<path d="M46.6854 42.8628H45.3543L46.1612 40.4394C46.3521 39.8689 46.4922 39.1547 46.6854 38.5854V38.6349C46.8762 39.2042 47.0176 39.8689 47.206 40.4394L48.0601 42.8628H46.6854ZM46.6854 37.1615H45.5428L42.2222 47.0471H44.167L45.0716 44.243H48.3475L49.2981 47.0471H51.343L47.9658 37.1615H46.6878H46.6854Z" fill="#5A0011"/>
<path d="M59.8407 40.6292C59.8407 42.152 59.889 43.3861 59.9821 44.7169C59.4614 43.6219 58.8913 42.4833 58.1798 41.3894L55.4717 37.1627H53.335V47.0483H55.0913V43.4828C55.0913 41.9151 55.0442 40.5844 54.9982 39.2996H55.0442C55.5177 40.3946 56.2315 41.6287 56.8959 42.6742L59.6028 47.0471H61.5982V37.1615H59.8407V40.6292Z" fill="#5A0011"/>
<path d="M28.5428 42.8628H27.2152L27.9738 40.4394C28.1635 39.8689 28.3543 39.1547 28.4968 38.5854H28.5428V38.6349C28.6853 39.2042 28.8266 39.8689 29.0646 40.4394L29.8727 42.8628H28.5428ZM28.5428 37.1615H27.3554L24.0312 47.0471H25.9807L26.883 44.243H30.2072L31.1554 47.0471H33.198L29.7784 37.1615H28.544H28.5428Z" fill="#5A0011"/>
<path d="M38.4682 41.9128C38.2326 41.9611 37.9935 41.9611 37.7555 41.9611C37.3798 41.9611 37.0935 41.9611 36.8532 41.9128V38.5394C37.0441 38.4922 37.4245 38.4439 37.9511 38.4439C38.1384 38.4439 38.2785 38.4922 38.4694 38.4922C39.4683 38.636 40.0867 39.2042 40.0867 40.1554C40.0867 41.1054 39.4671 41.7218 38.4694 41.9128H38.4682ZM40.9395 37.8746C40.3682 37.4468 39.5601 37.1615 38.4682 37.1155C38.2774 37.066 38.0877 37.066 37.851 37.066C36.5694 37.066 35.6199 37.1615 34.9556 37.2558V47.0471H36.8532V43.293C37.0924 43.3402 37.4245 43.3402 37.7555 43.3402H38.4682C39.5166 43.2435 40.4636 42.9123 41.0809 42.343C41.6486 41.8185 41.9832 41.0111 41.9832 40.0611C41.9832 39.1558 41.5544 38.352 40.9395 37.8758V37.8746Z" fill="#5A0011"/>
</svg>
