<svg width="47" height="39" viewBox="0 0 47 39" fill="none" xmlns="http://www.w3.org/2000/svg">
<path fill-rule="evenodd" clip-rule="evenodd" d="M22.2935 2.66468C23.1595 2.99415 25.7481 5.09422 26.6769 5.78278L35.1095 12.0806C35.6415 12.4752 39.0735 14.6985 39.0735 15.3906V36.3758H7.38291C7.38173 30.161 7.19456 20.6408 7.41017 14.8182L22.2935 2.66468ZM10.2215 5.21628L13.3893 5.2471C13.3929 5.81359 13.4557 6.87666 13.3952 7.38508C13.2839 8.3249 10.9654 9.83831 10.2286 10.3728L10.2215 5.21628ZM8.55576 11.5698C8.19088 12.4337 2.33374 16.9147 1.47246 17.6128C0.955936 18.0311 -0.104359 18.6569 0.280667 19.4462C1.11232 21.1492 3.89399 17.1968 5.69709 16.398C5.82741 19.0456 5.49214 37.1663 5.87954 37.6854C6.9351 38.4084 12.5506 38.0374 14.343 38.0374C18.7122 38.0374 39.1647 38.2851 40.5757 37.83C41.161 35.6399 40.4016 20.6159 40.7747 16.3637L44.9958 19.4758C46.3096 20.4571 47.5761 19.2815 45.7765 17.96C43.2105 16.0757 23.0446 0.809938 22.5257 0.760162C21.463 0.953339 16.3653 5.53033 15.1107 6.42155C14.9034 4.73274 15.6782 3.5393 13.7068 3.5393C7.64236 3.5393 8.55458 3.1814 8.55576 6.83872C8.55576 8.41495 8.55576 9.99236 8.55576 11.5686V11.5698Z" fill="#000000"/>
<path fill-rule="evenodd" clip-rule="evenodd" d="M15.9519 12.1185C17.3759 12.2477 18.2265 12.8971 18.7312 13.9104C19.6493 15.7557 18.2265 15.3385 20.0533 17.1352L29.0535 26.1422C30.6481 27.7777 30.6706 26.4302 32.3268 27.4174C33.2046 27.9412 33.8396 28.804 33.9368 30.1053C33.1264 29.6075 32.6928 28.6618 31.7996 28.343C31.0757 28.5693 28.9741 30.6753 28.7443 31.3983C29.057 32.28 30.0071 32.7363 30.5047 33.5363C29.134 33.4391 28.2336 32.728 27.7669 31.7941C26.8073 29.8801 28.2052 30.289 26.4495 28.5634L17.4517 19.5564C15.7979 17.8569 15.9199 19.2175 14.2009 18.2599C13.2295 17.7195 12.6442 16.9242 12.5684 15.4997L14.3419 17.1044C15.048 16.8875 17.2942 14.6405 17.5619 13.8832L15.9507 12.1185H15.9519ZM22.5305 18.1141C21.3873 16.9704 20.3092 16.2451 20.1659 15.2105C19.9372 13.5655 19.4231 12.5357 18.3272 11.7713C17.2349 11.0104 15.4425 10.6928 14.1654 11.3458C14.131 12.2726 15.6332 13.453 16.1486 13.9057C15.8654 14.503 14.9117 15.4618 14.3111 15.7427C13.8183 15.1762 12.7426 13.7801 11.7569 13.7576C11.1124 15.1821 11.3766 16.9207 12.2687 18.0134C13.2318 19.1949 13.9403 19.4414 15.7849 19.7792C16.5774 19.9238 16.8381 20.4429 17.3368 20.9442L24.0635 27.6781C25.5136 29.1287 26.1628 29.3693 26.3121 30.6659C26.7753 34.6586 31.0971 35.3424 32.3007 34.1253C32.1822 33.0918 30.6078 32.3831 30.1434 31.3793L31.8019 29.7557C32.7769 30.2179 33.4984 31.7858 34.5303 31.8984C35.6498 30.7725 35.3051 26.4574 30.8992 25.8945C29.8922 25.7641 29.8792 25.4655 29.2631 24.8409L22.5329 18.1117L22.5305 18.1141Z" fill="#000000"/>
</svg>
