<svg width="101" height="75" viewBox="0 0 101 75" fill="none" xmlns="http://www.w3.org/2000/svg">
<mask id="mask0_516_1857" style="mask-type:luminance" maskUnits="userSpaceOnUse" x="96" y="0" width="5" height="75">
<path d="M96 0H100.079V74.9128H96V0Z" fill="white"/>
</mask>
<g mask="url(#mask0_516_1857)">
<path fill-rule="evenodd" clip-rule="evenodd" d="M98.1221 38.2061L96.3154 -26.0806L96.3823 -26.5994L98.1221 38.2061Z" fill="#CD3263"/>
<path fill-rule="evenodd" clip-rule="evenodd" d="M98.1224 38.2061L96.3721 -26.512L96.4284 -26.9316L98.1224 38.2061Z" fill="#CF3166"/>
<path fill-rule="evenodd" clip-rule="evenodd" d="M98.1222 38.206L96.4165 -26.849L96.4728 -27.2559L98.1222 38.206Z" fill="#D03168"/>
<path fill-rule="evenodd" clip-rule="evenodd" d="M98.1223 38.2061L96.4624 -27.1741L96.5187 -27.5681L98.1223 38.2061Z" fill="#D2306B"/>
<path fill-rule="evenodd" clip-rule="evenodd" d="M98.1224 38.206L96.5083 -27.4902L96.5658 -27.8726L98.1224 38.206Z" fill="#D62E71"/>
<path fill-rule="evenodd" clip-rule="evenodd" d="M98.1221 38.2061L96.5537 -27.7955L96.6112 -28.165L98.1221 38.2061Z" fill="#D82D74"/>
<path fill-rule="evenodd" clip-rule="evenodd" d="M98.1222 38.2061L96.5996 -28.0927L96.656 -28.4495L98.1222 38.2061Z" fill="#DA2D76"/>
<path fill-rule="evenodd" clip-rule="evenodd" d="M98.1223 38.2062L96.6455 -28.3772L96.703 -28.7234L98.1223 38.2062Z" fill="#DB2C78"/>
<path fill-rule="evenodd" clip-rule="evenodd" d="M98.1224 38.206L96.6914 -28.6536L96.7501 -28.9858L98.1224 38.206Z" fill="#DC2C79"/>
<path fill-rule="evenodd" clip-rule="evenodd" d="M98.1223 38.206L96.7383 -28.9193L96.797 -29.2388L98.1223 38.206Z" fill="#DD2C7B"/>
<path fill-rule="evenodd" clip-rule="evenodd" d="M98.1222 38.2062L96.7852 -29.1745L96.8439 -29.48L98.1222 38.2062Z" fill="#DE2C7C"/>
<path fill-rule="evenodd" clip-rule="evenodd" d="M98.1222 38.2062L96.832 -29.4194L96.8919 -29.7131L98.1222 38.2062Z" fill="#DE2B7C"/>
<path fill-rule="evenodd" clip-rule="evenodd" d="M98.1224 38.2059L96.8804 -29.6551L96.9391 -29.936L98.1224 38.2059Z" fill="#DE2B7D"/>
<path fill-rule="evenodd" clip-rule="evenodd" d="M98.1223 38.206L96.9272 -29.88L96.9871 -30.147L98.1223 38.206Z" fill="#DE2B7E"/>
<path fill-rule="evenodd" clip-rule="evenodd" d="M98.122 38.206L96.9751 -30.0933L97.035 -30.3486L98.122 38.206Z" fill="#DF2B7E"/>
<path fill-rule="evenodd" clip-rule="evenodd" d="M98.1222 38.206L97.0234 -30.2973L97.0833 -30.5398L98.1222 38.206Z" fill="#DF2B7F"/>
<path fill-rule="evenodd" clip-rule="evenodd" d="M98.1224 38.2061L97.0718 -30.4908L97.1316 -30.7192L98.1224 38.2061Z" fill="#E12A80"/>
<path fill-rule="evenodd" clip-rule="evenodd" d="M98.1221 38.2061L97.1196 -30.6738L97.1807 -30.8894L98.1221 38.2061Z" fill="#E12A80"/>
<path fill-rule="evenodd" clip-rule="evenodd" d="M98.1223 38.2059L97.168 -30.8465L97.2278 -31.0493L98.1223 38.2059Z" fill="#E12A81"/>
<path fill-rule="evenodd" clip-rule="evenodd" d="M98.1224 38.2061L97.2173 -31.0084L97.2772 -31.1973L98.1224 38.2061Z" fill="#E12A81"/>
<path fill-rule="evenodd" clip-rule="evenodd" d="M98.1223 38.2061L97.2642 -31.1611L97.3252 -31.3359L98.1223 38.2061Z" fill="#E22A82"/>
<path fill-rule="evenodd" clip-rule="evenodd" d="M98.1223 38.2059L97.3135 -31.3011L97.3745 -31.4644L98.1223 38.2059Z" fill="#E22A83"/>
<path fill-rule="evenodd" clip-rule="evenodd" d="M98.1223 38.206L97.3628 -31.4316L97.4238 -31.582L98.1223 38.206Z" fill="#E32984"/>
<path fill-rule="evenodd" clip-rule="evenodd" d="M98.122 38.2061L97.4106 -31.5517L97.4729 -31.6892L98.122 38.2061Z" fill="#E52986"/>
<path fill-rule="evenodd" clip-rule="evenodd" d="M98.122 38.206L97.46 -31.6613L97.5222 -31.7837L98.122 38.206Z" fill="#E52987"/>
<path fill-rule="evenodd" clip-rule="evenodd" d="M98.1221 38.2061L97.5093 -31.7603L97.5715 -31.8699L98.1221 38.2061Z" fill="#E62888"/>
<path fill-rule="evenodd" clip-rule="evenodd" d="M98.1221 38.206L97.5586 -31.8478L97.6208 -31.9446L98.1221 38.206Z" fill="#E9278B"/>
<path fill-rule="evenodd" clip-rule="evenodd" d="M98.1221 38.2062L97.6079 -31.9258L97.6701 -32.0085L98.1221 38.2062Z" fill="#EB268F"/>
<path fill-rule="evenodd" clip-rule="evenodd" d="M98.1224 38.2061L97.6587 -31.9923L97.7209 -32.0623L98.1224 38.2061Z" fill="#DA507A"/>
<path fill-rule="evenodd" clip-rule="evenodd" d="M98.1224 38.206L97.708 -32.0483L97.7702 -32.1055L98.1224 38.206Z" fill="#D25D70"/>
<path fill-rule="evenodd" clip-rule="evenodd" d="M98.1224 38.2061L97.7573 -32.0948L97.8195 -32.1379L98.1224 38.2061Z" fill="#CE6468"/>
<path fill-rule="evenodd" clip-rule="evenodd" d="M98.1222 38.2061L97.8076 -32.1298L97.8687 -32.1602L98.1222 38.2061Z" fill="#C86D5E"/>
<path fill-rule="evenodd" clip-rule="evenodd" d="M98.1224 38.2061L97.856 -32.1532L97.9182 -32.1707L98.1224 38.2061Z" fill="#BC7A41"/>
<path fill-rule="evenodd" clip-rule="evenodd" d="M98.1223 38.2061L97.9062 -32.1672L97.9685 -32.1707L98.1223 38.2061Z" fill="#C88339"/>
<path fill-rule="evenodd" clip-rule="evenodd" d="M98.1223 38.2061L97.9556 -32.1694L98.0178 -32.1601L98.1223 38.2061Z" fill="#D18638"/>
<path fill-rule="evenodd" clip-rule="evenodd" d="M98.1221 38.206L98.0059 -32.1626L98.0681 -32.1393L98.1221 38.206Z" fill="#D78838"/>
<path fill-rule="evenodd" clip-rule="evenodd" d="M98.1221 38.2061L98.0552 -32.1438L98.1174 -32.1077L98.1221 38.2061Z" fill="#DD8A37"/>
<path fill-rule="evenodd" clip-rule="evenodd" d="M98.1224 38.206L98.106 -32.1147L98.1682 -32.0646L98.1224 38.206Z" fill="#ED8F35"/>
<path fill-rule="evenodd" clip-rule="evenodd" d="M98.1221 38.206L98.1549 -32.0752L98.2171 -32.0111L98.1221 38.206Z" fill="#F79533"/>
<path fill-rule="evenodd" clip-rule="evenodd" d="M98.1221 38.2059L98.2054 -32.0239L98.2676 -31.947L98.1221 38.2059Z" fill="#F69733"/>
<path fill-rule="evenodd" clip-rule="evenodd" d="M98.1221 38.2061L98.2547 -31.9631L98.3169 -31.8722L98.1221 38.2061Z" fill="#F69933"/>
<path fill-rule="evenodd" clip-rule="evenodd" d="M98.1221 38.2061L98.3052 -31.8909L98.3674 -31.7871L98.1221 38.2061Z" fill="#F59A33"/>
<path fill-rule="evenodd" clip-rule="evenodd" d="M98.1221 38.2061L98.3545 -31.8081L98.4167 -31.6927L98.1221 38.2061Z" fill="#F69C33"/>
<path fill-rule="evenodd" clip-rule="evenodd" d="M98.1221 38.206L98.405 -31.7161L98.466 -31.5867L98.1221 38.206Z" fill="#F69E33"/>
<path fill-rule="evenodd" clip-rule="evenodd" d="M98.1221 38.206L98.4531 -31.6123L98.5153 -31.4689L98.1221 38.206Z" fill="#F69F33"/>
<path fill-rule="evenodd" clip-rule="evenodd" d="M98.1221 38.206L98.5024 -31.498L98.5646 -31.3407L98.1221 38.206Z" fill="#F5A033"/>
<path fill-rule="evenodd" clip-rule="evenodd" d="M98.1221 38.2061L98.5529 -31.3721L98.6139 -31.203L98.1221 38.2061Z" fill="#F5A133"/>
<path fill-rule="evenodd" clip-rule="evenodd" d="M98.1221 38.2061L98.6022 -31.2368L98.6644 -31.055L98.1221 38.2061Z" fill="#F5A232"/>
<path fill-rule="evenodd" clip-rule="evenodd" d="M98.1221 38.2062L98.6515 -31.0911L98.7137 -30.8952L98.1221 38.2062Z" fill="#F5A332"/>
<path fill-rule="evenodd" clip-rule="evenodd" d="M98.1221 38.206L98.7008 -30.9351L98.763 -30.7264L98.1221 38.206Z" fill="#F6A432"/>
<path fill-rule="evenodd" clip-rule="evenodd" d="M98.1221 38.2061L98.7501 -30.7671L98.8123 -30.5467L98.1221 38.2061Z" fill="#F6A532"/>
<path fill-rule="evenodd" clip-rule="evenodd" d="M98.1221 38.2061L98.7994 -30.5898L98.8616 -30.3555L98.1221 38.2061Z" fill="#F5A532"/>
<path fill-rule="evenodd" clip-rule="evenodd" d="M98.1221 38.2062L98.8487 -30.4021L98.9098 -30.1538L98.1221 38.2062Z" fill="#F5A632"/>
<path fill-rule="evenodd" clip-rule="evenodd" d="M98.1221 38.206L98.898 -30.2041L98.959 -29.9441L98.1221 38.206Z" fill="#F5A732"/>
<path fill-rule="evenodd" clip-rule="evenodd" d="M98.1221 38.206L98.9473 -29.9954L99.0084 -29.7214L98.1221 38.206Z" fill="#F5A732"/>
<path fill-rule="evenodd" clip-rule="evenodd" d="M98.1221 38.2061L98.9954 -29.7761L99.0565 -29.4893L98.1221 38.2061Z" fill="#F5A832"/>
<path fill-rule="evenodd" clip-rule="evenodd" d="M98.1221 38.2062L99.0448 -29.5464L99.1034 -29.248L98.1221 38.2062Z" fill="#F5A932"/>
<path fill-rule="evenodd" clip-rule="evenodd" d="M98.1221 38.206L99.0917 -29.3076L99.1516 -28.9952L98.1221 38.206Z" fill="#F5A932"/>
<path fill-rule="evenodd" clip-rule="evenodd" d="M98.1221 38.206L99.1398 -29.0581L99.2009 -28.7328L98.1221 38.206Z" fill="#F5A932"/>
<path fill-rule="evenodd" clip-rule="evenodd" d="M98.1221 38.2061L99.188 -28.7969L99.2478 -28.46L98.1221 38.2061Z" fill="#F5AA32"/>
<path fill-rule="evenodd" clip-rule="evenodd" d="M98.1221 38.2061L99.2361 -28.5276L99.296 -28.1755L98.1221 38.2061Z" fill="#F5AB32"/>
<path fill-rule="evenodd" clip-rule="evenodd" d="M98.1221 38.2062L99.2842 -28.2466L99.3441 -27.884L98.1221 38.2062Z" fill="#F5AB32"/>
<path fill-rule="evenodd" clip-rule="evenodd" d="M98.1221 38.2062L99.3324 -27.9563L99.391 -27.5798L98.1221 38.2062Z" fill="#F5AB32"/>
<path fill-rule="evenodd" clip-rule="evenodd" d="M98.1221 38.2062L99.3793 -27.6555L99.4392 -27.2673L98.1221 38.2062Z" fill="#F5AC32"/>
<path fill-rule="evenodd" clip-rule="evenodd" d="M98.1221 38.2061L99.4274 -27.3455L99.4861 -26.9444L98.1221 38.2061Z" fill="#F5AD32"/>
<path fill-rule="evenodd" clip-rule="evenodd" d="M98.1221 38.2062L99.4744 -27.0237L99.5331 -26.6122L98.1221 38.2062Z" fill="#F5AD31"/>
<path fill-rule="evenodd" clip-rule="evenodd" d="M98.1221 38.2061L99.5213 -26.6938L99.5789 -26.2695L98.1221 38.2061Z" fill="#F5AE31"/>
<path fill-rule="evenodd" clip-rule="evenodd" d="M98.1221 38.206L99.5671 -26.3535L99.6258 -25.9163L98.1221 38.206Z" fill="#F5AF31"/>
<path fill-rule="evenodd" clip-rule="evenodd" d="M98.1221 38.2061L99.6141 -26.0037L99.6716 -25.5548L98.1221 38.2061Z" fill="#F5AF31"/>
<path fill-rule="evenodd" clip-rule="evenodd" d="M98.1221 38.2059L99.661 -25.6448L99.7174 -25.182L98.1221 38.2059Z" fill="#F5B031"/>
<path fill-rule="evenodd" clip-rule="evenodd" d="M98.1221 38.206L99.7057 -25.2751L99.7632 -24.8007L98.1221 38.206Z" fill="#F5B131"/>
<path fill-rule="evenodd" clip-rule="evenodd" d="M98.1221 38.2061L99.7514 -24.8962L99.8078 -24.4101L98.1221 38.2061Z" fill="#F5B231"/>
<path fill-rule="evenodd" clip-rule="evenodd" d="M98.1221 38.2061L99.7972 -24.5068L99.8536 -24.009L98.1221 38.2061Z" fill="#F5B331"/>
<path fill-rule="evenodd" clip-rule="evenodd" d="M98.1221 38.2061L99.8418 -24.1082L99.8982 -23.5987L98.1221 38.2061Z" fill="#F5B531"/>
<path fill-rule="evenodd" clip-rule="evenodd" d="M98.1221 38.206L99.8876 -23.7014L99.9428 -23.1803L98.1221 38.206Z" fill="#F5B531"/>
<path fill-rule="evenodd" clip-rule="evenodd" d="M98.1221 38.2061L99.9322 -23.2839L99.9874 -22.7512L98.1221 38.2061Z" fill="#F5B730"/>
<path fill-rule="evenodd" clip-rule="evenodd" d="M98.1221 38.2059L99.9768 -22.8574L100.032 -22.313L98.1221 38.2059Z" fill="#F5B930"/>
<path fill-rule="evenodd" clip-rule="evenodd" d="M98.1221 38.2062L100.02 -22.4224L100.075 -21.8663L98.1221 38.2062Z" fill="#F5BA30"/>
<path fill-rule="evenodd" clip-rule="evenodd" d="M98.1221 38.2061L100.065 -21.9771L100.119 -21.4105L98.1221 38.2061Z" fill="#F5BC30"/>
<path fill-rule="evenodd" clip-rule="evenodd" d="M98.1221 38.2061L100.108 -21.5225L100.162 -20.9442L98.1221 38.2061Z" fill="#F5BE2F"/>
<path fill-rule="evenodd" clip-rule="evenodd" d="M98.1221 38.2059L100.152 -21.0598L100.206 -20.4699L98.1221 38.2059Z" fill="#F5C12F"/>
<path fill-rule="evenodd" clip-rule="evenodd" d="M98.1221 38.2061L100.194 -20.5886L100.248 -19.9871L98.1221 38.2061Z" fill="#F6C72D"/>
<path fill-rule="evenodd" clip-rule="evenodd" d="M98.1221 38.2061L100.237 -20.1072L100.29 -19.4951L98.1221 38.2061Z" fill="#F8CD2B"/>
<path fill-rule="evenodd" clip-rule="evenodd" d="M98.1221 38.206L100.28 -19.6165L100.331 -18.9951L98.1221 38.206Z" fill="#F8D02A"/>
<path fill-rule="evenodd" clip-rule="evenodd" d="M98.1221 38.2061L100.321 -19.1187L100.372 -18.4845L98.1221 38.2061Z" fill="#F9D428"/>
<path fill-rule="evenodd" clip-rule="evenodd" d="M98.1221 38.206L100.362 -18.6116L100.414 -17.9669L98.1221 38.206Z" fill="#FBD926"/>
<path fill-rule="evenodd" clip-rule="evenodd" d="M98.1221 38.2059L100.404 -18.0952L100.455 -17.4401L98.1221 38.2059Z" fill="#E4CC2D"/>
<path fill-rule="evenodd" clip-rule="evenodd" d="M98.1221 38.2059L100.445 -17.5718L100.496 -16.905L98.1221 38.2059Z" fill="#B6AA38"/>
<path fill-rule="evenodd" clip-rule="evenodd" d="M98.1221 38.2062L100.485 -17.0388L100.536 -16.3615L98.1221 38.2062Z" fill="#9D993A"/>
<path fill-rule="evenodd" clip-rule="evenodd" d="M98.1221 38.2061L100.526 -16.4968L100.576 -15.8102L98.1221 38.2061Z" fill="#8E8E3B"/>
<path fill-rule="evenodd" clip-rule="evenodd" d="M98.1221 38.2061L100.566 -15.9478L100.615 -15.2506L98.1221 38.2061Z" fill="#82863B"/>
<path fill-rule="evenodd" clip-rule="evenodd" d="M98.1221 38.206L100.605 -15.3894L100.654 -14.6829L98.1221 38.206Z" fill="#757D3B"/>
<path fill-rule="evenodd" clip-rule="evenodd" d="M98.1221 38.2061L100.645 -14.8228L100.693 -14.1058L98.1221 38.2061Z" fill="#62703A"/>
<path fill-rule="evenodd" clip-rule="evenodd" d="M98.1221 38.206L100.684 -14.2493L100.732 -13.5218L98.1221 38.206Z" fill="#475D38"/>
<path fill-rule="evenodd" clip-rule="evenodd" d="M98.1221 38.2061L100.722 -13.6675L100.769 -12.9296L98.1221 38.2061Z" fill="#3C613B"/>
<path fill-rule="evenodd" clip-rule="evenodd" d="M98.1221 38.206L100.76 -13.0776L100.807 -12.3304L98.1221 38.206Z" fill="#3D6F40"/>
<path fill-rule="evenodd" clip-rule="evenodd" d="M98.1221 38.2061L100.797 -12.4795L100.844 -11.7229L98.1221 38.2061Z" fill="#3D7743"/>
<path fill-rule="evenodd" clip-rule="evenodd" d="M98.1221 38.2061L100.835 -11.8745L100.881 -11.1074L98.1221 38.2061Z" fill="#3E7E45"/>
<path fill-rule="evenodd" clip-rule="evenodd" d="M98.1221 38.2062L100.871 -11.2612L100.916 -10.4848L98.1221 38.2062Z" fill="#3D8346"/>
<path fill-rule="evenodd" clip-rule="evenodd" d="M98.1221 38.2061L100.907 -10.6411L100.951 -9.85655L98.1221 38.2061Z" fill="#3D8B49"/>
<path fill-rule="evenodd" clip-rule="evenodd" d="M98.1221 38.2061L100.943 -10.0127L100.988 -9.21996L98.1221 38.2061Z" fill="#3A984D"/>
<path fill-rule="evenodd" clip-rule="evenodd" d="M98.1221 38.206L100.978 -9.37744L101.022 -8.5754L98.1221 38.206Z" fill="#1DBC08"/>
<path fill-rule="evenodd" clip-rule="evenodd" d="M98.1221 38.206L101.013 -8.73511L101.057 -7.92373L98.1221 38.206Z" fill="#31B155"/>
<path fill-rule="evenodd" clip-rule="evenodd" d="M98.1221 38.2061L101.049 -8.08569L101.091 -7.26615L98.1221 38.2061Z" fill="#36AF56"/>
<path fill-rule="evenodd" clip-rule="evenodd" d="M98.1221 38.206L101.083 -7.42944L101.125 -6.60059L98.1221 38.206Z" fill="#3BAF57"/>
<path fill-rule="evenodd" clip-rule="evenodd" d="M98.1221 38.206L101.116 -6.76611L101.158 -5.92793L98.1221 38.206Z" fill="#3DAE57"/>
<path fill-rule="evenodd" clip-rule="evenodd" d="M98.1221 38.2061L101.15 -6.0957L101.191 -5.24935L98.1221 38.2061Z" fill="#40AD58"/>
<path fill-rule="evenodd" clip-rule="evenodd" d="M98.1221 38.206L101.182 -5.41846L101.222 -4.56396L98.1221 38.206Z" fill="#42AC59"/>
<path fill-rule="evenodd" clip-rule="evenodd" d="M98.1221 38.206L101.214 -4.73535L101.254 -3.87149L98.1221 38.206Z" fill="#44AC59"/>
<path fill-rule="evenodd" clip-rule="evenodd" d="M98.1221 38.2061L101.247 -4.04517L101.286 -3.17317L98.1221 38.2061Z" fill="#45AB5A"/>
<path fill-rule="evenodd" clip-rule="evenodd" d="M98.1221 38.2059L101.277 -3.34814L101.316 -2.47031L98.1221 38.2059Z" fill="#46AB5B"/>
<path fill-rule="evenodd" clip-rule="evenodd" d="M98.1221 38.2061L101.309 -2.64502L101.347 -1.75905L98.1221 38.2061Z" fill="#47AA5B"/>
<path fill-rule="evenodd" clip-rule="evenodd" d="M98.1221 38.206L101.34 -1.9375L101.377 -1.04216L98.1221 38.206Z" fill="#48AB5C"/>
<path fill-rule="evenodd" clip-rule="evenodd" d="M98.1221 38.206L101.369 -1.22168L101.407 -0.31937L98.1221 38.206Z" fill="#49AA5C"/>
<path fill-rule="evenodd" clip-rule="evenodd" d="M98.1221 38.2061L101.398 -0.5L101.435 0.409311L98.1221 38.2061Z" fill="#4AA95C"/>
<path fill-rule="evenodd" clip-rule="evenodd" d="M98.1221 38.206L101.428 0.227295L101.464 1.14244L98.1221 38.206Z" fill="#4AA95D"/>
<path fill-rule="evenodd" clip-rule="evenodd" d="M98.1221 38.2061L101.456 0.960693L101.491 1.88281L98.1221 38.2061Z" fill="#4AA95D"/>
<path fill-rule="evenodd" clip-rule="evenodd" d="M98.1221 38.2062L101.484 1.69873L101.518 2.62902L98.1221 38.2062Z" fill="#4CA95E"/>
<path fill-rule="evenodd" clip-rule="evenodd" d="M98.1221 38.2061L101.512 2.44238L101.544 3.37967L98.1221 38.2061Z" fill="#4CA95E"/>
<path fill-rule="evenodd" clip-rule="evenodd" d="M98.1221 38.206L101.538 3.19189L101.571 4.13618L98.1221 38.206Z" fill="#4DA95E"/>
<path fill-rule="evenodd" clip-rule="evenodd" d="M98.1221 38.2061L101.564 3.94629L101.597 4.89641L98.1221 38.2061Z" fill="#4DA95E"/>
<path fill-rule="evenodd" clip-rule="evenodd" d="M98.1221 38.2061L101.59 4.70752L101.621 5.66231L98.1221 38.2061Z" fill="#4DA85F"/>
<path fill-rule="evenodd" clip-rule="evenodd" d="M98.1221 38.2059L101.616 5.47095L101.646 6.43388L98.1221 38.2059Z" fill="#4FA85F"/>
<path fill-rule="evenodd" clip-rule="evenodd" d="M98.1221 38.2061L101.64 6.2417L101.671 7.20927L98.1221 38.2061Z" fill="#4FA85F"/>
<path fill-rule="evenodd" clip-rule="evenodd" d="M98.1221 38.206L101.665 7.01685L101.694 7.99028L98.1221 38.206Z" fill="#50A75F"/>
<path fill-rule="evenodd" clip-rule="evenodd" d="M98.1221 38.2061L101.688 7.79565L101.718 8.77609L98.1221 38.2061Z" fill="#50A760"/>
<path fill-rule="evenodd" clip-rule="evenodd" d="M98.1221 38.206L101.712 8.58008L101.74 9.56635L98.1221 38.206Z" fill="#51A760"/>
<path fill-rule="evenodd" clip-rule="evenodd" d="M98.1221 38.206L101.734 9.36938L101.762 10.3603L98.1221 38.206Z" fill="#52A761"/>
<path fill-rule="evenodd" clip-rule="evenodd" d="M98.1221 38.206L101.756 10.1621L101.783 11.1589L98.1221 38.206Z" fill="#52A661"/>
<path fill-rule="evenodd" clip-rule="evenodd" d="M98.1221 38.2062L101.779 10.9585L101.805 11.961L98.1221 38.2062Z" fill="#54A662"/>
<path fill-rule="evenodd" clip-rule="evenodd" d="M98.1221 38.2061L101.8 11.7605L101.825 12.7677L98.1221 38.2061Z" fill="#53A562"/>
<path fill-rule="evenodd" clip-rule="evenodd" d="M98.1221 38.206L101.82 12.5659L101.844 13.5778L98.1221 38.206Z" fill="#55A564"/>
<path fill-rule="evenodd" clip-rule="evenodd" d="M98.1221 38.206L101.84 13.375L101.864 14.3927L98.1221 38.206Z" fill="#56A464"/>
<path fill-rule="evenodd" clip-rule="evenodd" d="M98.1221 38.206L101.859 14.1887L101.882 15.2088L98.1221 38.206Z" fill="#57A365"/>
<path fill-rule="evenodd" clip-rule="evenodd" d="M98.1221 38.206L101.877 15.0059L101.901 16.0306L98.1221 38.206Z" fill="#59A266"/>
<path fill-rule="evenodd" clip-rule="evenodd" d="M98.1221 38.206L101.896 15.8254L101.918 16.856L98.1221 38.206Z" fill="#5AA268"/>
<path fill-rule="evenodd" clip-rule="evenodd" d="M98.1221 38.206L101.914 16.6497L101.935 17.6825L98.1221 38.206Z" fill="#5DA169"/>
<path fill-rule="evenodd" clip-rule="evenodd" d="M98.1221 38.206L101.931 17.4773L101.951 18.5137L98.1221 38.206Z" fill="#60A367"/>
<path fill-rule="evenodd" clip-rule="evenodd" d="M98.1221 38.2059L101.948 18.3062L101.968 19.3483L98.1221 38.2059Z" fill="#64AA5F"/>
<path fill-rule="evenodd" clip-rule="evenodd" d="M98.1221 38.2062L101.963 19.1399L101.983 20.1844L98.1221 38.2062Z" fill="#66AD5D"/>
<path fill-rule="evenodd" clip-rule="evenodd" d="M98.1221 38.206L101.978 19.9744L101.997 21.0247L98.1221 38.206Z" fill="#67B05B"/>
<path fill-rule="evenodd" clip-rule="evenodd" d="M98.1221 38.2059L101.994 20.8137L102.011 21.8653L98.1221 38.2059Z" fill="#6AB456"/>
<path fill-rule="evenodd" clip-rule="evenodd" d="M98.1221 38.2061L102.008 21.6567L102.024 22.7106L98.1221 38.2061Z" fill="#6AB850"/>
<path fill-rule="evenodd" clip-rule="evenodd" d="M98.1221 38.206L102.021 22.4995L102.037 23.558L98.1221 38.206Z" fill="#59A653"/>
<path fill-rule="evenodd" clip-rule="evenodd" d="M98.1221 38.2061L102.033 23.3459L102.05 24.4068L98.1221 38.2061Z" fill="#4D9C55"/>
<path fill-rule="evenodd" clip-rule="evenodd" d="M98.1221 38.2061L102.046 24.1958L102.062 25.259L98.1221 38.2061Z" fill="#459556"/>
<path fill-rule="evenodd" clip-rule="evenodd" d="M98.1221 38.2061L102.058 25.0457L102.072 26.1112L98.1221 38.2061Z" fill="#3F9057"/>
<path fill-rule="evenodd" clip-rule="evenodd" d="M98.1221 38.206L102.07 25.8989L102.083 26.9668L98.1221 38.206Z" fill="#3A8C57"/>
<path fill-rule="evenodd" clip-rule="evenodd" d="M98.1221 38.2062L102.08 26.7524L102.092 27.8238L98.1221 38.2062Z" fill="#358958"/>
<path fill-rule="evenodd" clip-rule="evenodd" d="M98.1221 38.2061L102.09 27.6091L102.102 28.6817L98.1221 38.2061Z" fill="#2F8458"/>
<path fill-rule="evenodd" clip-rule="evenodd" d="M98.1221 38.2059L102.099 28.467L102.11 29.5419L98.1221 38.2059Z" fill="#267E58"/>
<path fill-rule="evenodd" clip-rule="evenodd" d="M98.1221 38.2061L102.109 29.3264L102.118 30.4024L98.1221 38.2061Z" fill="#1A7559"/>
<path fill-rule="evenodd" clip-rule="evenodd" d="M98.1221 38.206L102.116 30.1877L102.126 31.2649L98.1221 38.206Z" fill="#086958"/>
<path fill-rule="evenodd" clip-rule="evenodd" d="M98.1221 38.206L102.124 31.0493L102.131 32.1288L98.1221 38.206Z" fill="#106E6A"/>
<path fill-rule="evenodd" clip-rule="evenodd" d="M98.1221 38.2061L102.13 31.9121L102.138 32.9916L98.1221 38.2061Z" fill="#157175"/>
<path fill-rule="evenodd" clip-rule="evenodd" d="M98.1221 38.2061L102.136 32.7759L102.143 33.8577L98.1221 38.2061Z" fill="#15737C"/>
<path fill-rule="evenodd" clip-rule="evenodd" d="M98.1221 38.206L102.141 33.6409L102.149 34.7227L98.1221 38.206Z" fill="#177481"/>
<path fill-rule="evenodd" clip-rule="evenodd" d="M98.1221 38.2061L102.146 34.5071L102.152 35.5889L98.1221 38.2061Z" fill="#1A7687"/>
<path fill-rule="evenodd" clip-rule="evenodd" d="M98.1221 38.2061L102.151 35.3721L102.156 36.4551L98.1221 38.2061Z" fill="#1D7890"/>
<path fill-rule="evenodd" clip-rule="evenodd" d="M98.1221 38.2062L102.156 36.2395L102.159 37.3225L98.1221 38.2062Z" fill="#257B9F"/>
<path fill-rule="evenodd" clip-rule="evenodd" d="M98.1221 38.206L102.158 37.1055L102.161 38.1896L98.1221 38.206Z" fill="#2881B1"/>
<path fill-rule="evenodd" clip-rule="evenodd" d="M98.1221 38.2061L102.161 37.9729L102.164 39.0571L98.1221 38.2061Z" fill="#2E84B3"/>
<path fill-rule="evenodd" clip-rule="evenodd" d="M98.1221 38.2061L102.163 38.8391L102.165 39.9244L98.1221 38.2061Z" fill="#3087B5"/>
<path fill-rule="evenodd" clip-rule="evenodd" d="M98.1221 38.2061L102.165 39.7064L102.166 40.7894L98.1221 38.2061Z" fill="#308AB6"/>
<path fill-rule="evenodd" clip-rule="evenodd" d="M98.1221 38.2061L102.165 40.5738L102.166 41.6567L98.1221 38.2061Z" fill="#328CB8"/>
<path fill-rule="evenodd" clip-rule="evenodd" d="M98.1221 38.2061L102.166 41.4399L102.165 42.5218L98.1221 38.2061Z" fill="#328EB9"/>
<path fill-rule="evenodd" clip-rule="evenodd" d="M98.1221 38.2061L102.165 42.3061L102.164 43.3868L98.1221 38.2061Z" fill="#3190BB"/>
<path fill-rule="evenodd" clip-rule="evenodd" d="M98.1221 38.2061L102.164 43.1711L102.163 44.2518L98.1221 38.2061Z" fill="#3392BC"/>
<path fill-rule="evenodd" clip-rule="evenodd" d="M98.1221 38.2061L102.163 44.0361L102.159 45.1144L98.1221 38.2061Z" fill="#3594BD"/>
<path fill-rule="evenodd" clip-rule="evenodd" d="M98.1221 38.2061L102.16 44.8999L102.157 45.9771L98.1221 38.2061Z" fill="#3695BE"/>
<path fill-rule="evenodd" clip-rule="evenodd" d="M98.1221 38.2061L102.158 45.7615L102.153 46.8386L98.1221 38.2061Z" fill="#3697BF"/>
<path fill-rule="evenodd" clip-rule="evenodd" d="M98.1221 38.2061L102.154 46.623L102.149 47.6978L98.1221 38.2061Z" fill="#3798BF"/>
<path fill-rule="evenodd" clip-rule="evenodd" d="M98.1221 38.2061L102.15 47.4833L102.144 48.557L98.1221 38.2061Z" fill="#3999C0"/>
<path fill-rule="evenodd" clip-rule="evenodd" d="M98.1221 38.2061L102.145 48.3425L102.138 49.4138L98.1221 38.2061Z" fill="#389AC1"/>
<path fill-rule="evenodd" clip-rule="evenodd" d="M98.1221 38.2061L102.14 49.1982L102.132 50.2695L98.1221 38.2061Z" fill="#399BC2"/>
<path fill-rule="evenodd" clip-rule="evenodd" d="M98.1221 38.2061L102.133 50.055L102.126 51.1217L98.1221 38.2061Z" fill="#3A9CC2"/>
<path fill-rule="evenodd" clip-rule="evenodd" d="M98.1221 38.2061L102.129 50.9084L102.119 51.9739L98.1221 38.2061Z" fill="#3A9DC3"/>
<path fill-rule="evenodd" clip-rule="evenodd" d="M98.1221 38.2061L102.122 51.7594L102.112 52.8226L98.1221 38.2061Z" fill="#3B9EC3"/>
<path fill-rule="evenodd" clip-rule="evenodd" d="M98.1221 38.2061L102.113 52.6104L102.103 53.6689L98.1221 38.2061Z" fill="#3A9FC4"/>
<path fill-rule="evenodd" clip-rule="evenodd" d="M98.1221 38.2061L102.105 53.4567L102.093 54.5141L98.1221 38.2061Z" fill="#3BA0C4"/>
<path fill-rule="evenodd" clip-rule="evenodd" d="M98.1221 38.2061L102.096 54.3031L102.084 55.3558L98.1221 38.2061Z" fill="#3CA0C4"/>
<path fill-rule="evenodd" clip-rule="evenodd" d="M98.1221 38.2061L102.086 55.1459L102.073 56.1963L98.1221 38.2061Z" fill="#3DA1C4"/>
<path fill-rule="evenodd" clip-rule="evenodd" d="M98.1221 38.2061L102.077 55.9853L102.063 57.0333L98.1221 38.2061Z" fill="#3CA2C5"/>
<path fill-rule="evenodd" clip-rule="evenodd" d="M98.1221 38.2061L102.065 56.8235L102.051 57.8669L98.1221 38.2061Z" fill="#3DA3C5"/>
<path fill-rule="evenodd" clip-rule="evenodd" d="M98.1221 38.2061L102.055 57.6582L102.039 58.6981L98.1221 38.2061Z" fill="#3DA4C6"/>
<path fill-rule="evenodd" clip-rule="evenodd" d="M98.1221 38.2061L102.042 58.4894L102.026 59.5258L98.1221 38.2061Z" fill="#3EA5C7"/>
<path fill-rule="evenodd" clip-rule="evenodd" d="M98.1221 38.2061L102.03 59.3182L102.014 60.35L98.1221 38.2061Z" fill="#3FA6C8"/>
<path fill-rule="evenodd" clip-rule="evenodd" d="M98.1221 38.2061L102.017 60.1436L101.999 61.1718L98.1221 38.2061Z" fill="#40A7C8"/>
<path fill-rule="evenodd" clip-rule="evenodd" d="M98.1221 38.2061L102.003 60.9655L101.985 61.9891L98.1221 38.2061Z" fill="#40A9C9"/>
<path fill-rule="evenodd" clip-rule="evenodd" d="M98.1221 38.2061L101.989 61.785L101.97 62.8039L98.1221 38.2061Z" fill="#42AACA"/>
<path fill-rule="evenodd" clip-rule="evenodd" d="M98.1221 38.2061L101.974 62.5999L101.954 63.6141L98.1221 38.2061Z" fill="#43ACCB"/>
<path fill-rule="evenodd" clip-rule="evenodd" d="M98.1221 38.2061L101.958 63.4113L101.937 64.4208L98.1221 38.2061Z" fill="#45AECC"/>
<path fill-rule="evenodd" clip-rule="evenodd" d="M98.1221 38.2061L101.942 64.2192L101.921 65.2229L98.1221 38.2061Z" fill="#45B0CD"/>
<path fill-rule="evenodd" clip-rule="evenodd" d="M98.1221 38.2061L101.925 65.0224L101.903 66.0226L98.1221 38.2061Z" fill="#46B2CF"/>
<path fill-rule="evenodd" clip-rule="evenodd" d="M98.1221 38.2061L101.908 65.8221L101.886 66.8165L98.1221 38.2061Z" fill="#47B5D0"/>
<path fill-rule="evenodd" clip-rule="evenodd" d="M98.1221 38.2061L101.89 66.6172L101.867 67.6058L98.1221 38.2061Z" fill="#4AB8D1"/>
<path fill-rule="evenodd" clip-rule="evenodd" d="M98.1221 38.2061L101.871 67.4087L101.848 68.3915L98.1221 38.2061Z" fill="#4CBBD3"/>
<path fill-rule="evenodd" clip-rule="evenodd" d="M98.1221 38.2061L101.853 68.1945L101.828 69.1737L98.1221 38.2061Z" fill="#4EC0D6"/>
<path fill-rule="evenodd" clip-rule="evenodd" d="M98.1221 38.2061L101.833 68.9767L101.808 69.9489L98.1221 38.2061Z" fill="#53C6DA"/>
<path fill-rule="evenodd" clip-rule="evenodd" d="M98.1221 38.2061L101.813 69.7555L101.787 70.7207L98.1221 38.2061Z" fill="#69CBE0"/>
<path fill-rule="evenodd" clip-rule="evenodd" d="M98.1221 38.2061L101.793 70.5272L101.766 71.4866L98.1221 38.2061Z" fill="#73CDE2"/>
<path fill-rule="evenodd" clip-rule="evenodd" d="M98.1221 38.2061L101.771 71.2943L101.744 72.249L98.1221 38.2061Z" fill="#78CFE4"/>
<path fill-rule="evenodd" clip-rule="evenodd" d="M98.1221 38.2061L101.749 72.0579L101.721 73.0044L98.1221 38.2061Z" fill="#82D2E8"/>
<path fill-rule="evenodd" clip-rule="evenodd" d="M98.1221 38.2061L101.727 72.8156L101.698 73.7553L98.1221 38.2061Z" fill="#87EAFD"/>
<path fill-rule="evenodd" clip-rule="evenodd" d="M98.1221 38.2061L101.704 73.5675L101.674 74.5013L98.1221 38.2061Z" fill="#749AAB"/>
<path fill-rule="evenodd" clip-rule="evenodd" d="M98.1221 38.2061L101.68 74.3136L101.651 75.2416L98.1221 38.2061Z" fill="#647F8D"/>
<path fill-rule="evenodd" clip-rule="evenodd" d="M98.1221 38.2061L101.657 75.0562L101.626 75.9748L98.1221 38.2061Z" fill="#5A6F7B"/>
<path fill-rule="evenodd" clip-rule="evenodd" d="M98.1221 38.2061L101.632 75.7918L101.6 76.7046L98.1221 38.2061Z" fill="#546470"/>
<path fill-rule="evenodd" clip-rule="evenodd" d="M98.1221 38.2061L101.607 76.5228L101.574 77.4274L98.1221 38.2061Z" fill="#4D5A65"/>
<path fill-rule="evenodd" clip-rule="evenodd" d="M98.1221 38.2061L101.582 77.2456L101.549 78.1444L98.1221 38.2061Z" fill="#434C56"/>
<path fill-rule="evenodd" clip-rule="evenodd" d="M98.1221 38.2061L101.556 77.9648L101.522 78.8555L98.1221 38.2061Z" fill="#373B43"/>
<path fill-rule="evenodd" clip-rule="evenodd" d="M98.1221 38.2061L101.529 78.6771L101.496 79.5608L98.1221 38.2061Z" fill="#312E36"/>
<path fill-rule="evenodd" clip-rule="evenodd" d="M98.1221 38.2061L101.503 79.3836L101.468 80.2579L98.1221 38.2061Z" fill="#3A303D"/>
<path fill-rule="evenodd" clip-rule="evenodd" d="M98.1221 38.2061L101.475 80.0831L101.439 80.9504L98.1221 38.2061Z" fill="#403142"/>
<path fill-rule="evenodd" clip-rule="evenodd" d="M98.1221 38.2061L101.447 80.7779L101.411 81.6359L98.1221 38.2061Z" fill="#443145"/>
<path fill-rule="evenodd" clip-rule="evenodd" d="M98.1221 38.2061L101.418 81.4633L101.382 82.3144L98.1221 38.2061Z" fill="#483248"/>
<path fill-rule="evenodd" clip-rule="evenodd" d="M98.1221 38.2061L101.389 82.1442L101.351 82.987L98.1221 38.2061Z" fill="#4D324B"/>
<path fill-rule="evenodd" clip-rule="evenodd" d="M98.1221 38.2061L101.36 82.818L101.322 83.6527L98.1221 38.2061Z" fill="#55324F"/>
<path fill-rule="evenodd" clip-rule="evenodd" d="M98.1221 38.2061L101.329 83.486L101.29 84.3113L98.1221 38.2061Z" fill="#623158"/>
<path fill-rule="evenodd" clip-rule="evenodd" d="M98.1221 38.2061L101.299 84.1458L101.26 84.963L98.1221 38.2061Z" fill="#6B315F"/>
<path fill-rule="evenodd" clip-rule="evenodd" d="M98.1221 38.2061L101.267 84.7998L101.228 85.6077L98.1221 38.2061Z" fill="#6F3163"/>
<path fill-rule="evenodd" clip-rule="evenodd" d="M98.1221 38.2061L101.235 85.4456L101.195 86.2453L98.1221 38.2061Z" fill="#713266"/>
<path fill-rule="evenodd" clip-rule="evenodd" d="M98.1221 38.2061L101.204 86.0845L101.162 86.8748L98.1221 38.2061Z" fill="#743368"/>
<path fill-rule="evenodd" clip-rule="evenodd" d="M98.1221 38.2061L101.171 86.7163L101.13 87.4974L98.1221 38.2061Z" fill="#76336B"/>
<path fill-rule="evenodd" clip-rule="evenodd" d="M98.1221 38.2061L101.138 87.3412L101.097 88.1129L98.1221 38.2061Z" fill="#78346D"/>
<path fill-rule="evenodd" clip-rule="evenodd" d="M98.1221 38.2061L101.105 87.9578L101.063 88.7203L98.1221 38.2061Z" fill="#79346E"/>
<path fill-rule="evenodd" clip-rule="evenodd" d="M98.1221 38.2061L101.071 88.5676L101.027 89.3195L98.1221 38.2061Z" fill="#7B3570"/>
<path fill-rule="evenodd" clip-rule="evenodd" d="M98.1221 38.2061L101.037 89.1691L100.992 89.9117L98.1221 38.2061Z" fill="#7C3571"/>
<path fill-rule="evenodd" clip-rule="evenodd" d="M98.1221 38.2061L101.002 89.7637L100.957 90.4969L98.1221 38.2061Z" fill="#7D3572"/>
<path fill-rule="evenodd" clip-rule="evenodd" d="M98.1221 38.2061L100.966 90.35L100.922 91.0728L98.1221 38.2061Z" fill="#7E3573"/>
<path fill-rule="evenodd" clip-rule="evenodd" d="M98.1221 38.2061L100.93 90.9283L100.887 91.6406L98.1221 38.2061Z" fill="#7F3674"/>
<path fill-rule="evenodd" clip-rule="evenodd" d="M98.1221 38.2061L100.896 91.4983L100.85 92.2013L98.1221 38.2061Z" fill="#7F3675"/>
<path fill-rule="evenodd" clip-rule="evenodd" d="M98.1221 38.2061L100.86 92.0603L100.813 92.7527L98.1221 38.2061Z" fill="#803776"/>
<path fill-rule="evenodd" clip-rule="evenodd" d="M98.1221 38.2061L100.822 92.614L100.775 93.2959L98.1221 38.2061Z" fill="#813777"/>
<path fill-rule="evenodd" clip-rule="evenodd" d="M98.1221 38.2061L100.784 93.1596L100.738 93.8322L98.1221 38.2061Z" fill="#823778"/>
<path fill-rule="evenodd" clip-rule="evenodd" d="M98.1221 38.2061L100.747 93.697L100.699 94.358L98.1221 38.2061Z" fill="#833779"/>
<path fill-rule="evenodd" clip-rule="evenodd" d="M98.1221 38.2061L100.708 94.2274L100.66 94.8767L98.1221 38.2061Z" fill="#84377B"/>
<path fill-rule="evenodd" clip-rule="evenodd" d="M98.1221 38.2061L100.671 94.7474L100.621 95.3873L98.1221 38.2061Z" fill="#85387D"/>
<path fill-rule="evenodd" clip-rule="evenodd" d="M98.1221 38.2061L100.631 95.2592L100.583 95.8887L98.1221 38.2061Z" fill="#87397E"/>
<path fill-rule="evenodd" clip-rule="evenodd" d="M98.1221 38.2061L100.592 95.7627L100.543 96.3806L98.1221 38.2061Z" fill="#883981"/>
<path fill-rule="evenodd" clip-rule="evenodd" d="M98.1221 38.2061L100.552 96.2571L100.502 96.8644L98.1221 38.2061Z" fill="#8A3A83"/>
<path fill-rule="evenodd" clip-rule="evenodd" d="M98.1221 38.2061L100.512 96.742L100.462 97.3377L98.1221 38.2061Z" fill="#8D3B86"/>
<path fill-rule="evenodd" clip-rule="evenodd" d="M98.1221 38.2061L100.471 97.22L100.421 97.8052L98.1221 38.2061Z" fill="#8F3C8A"/>
<path fill-rule="evenodd" clip-rule="evenodd" d="M98.1221 38.2061L100.431 97.6874L100.379 98.261L98.1221 38.2061Z" fill="#933D8F"/>
<path fill-rule="evenodd" clip-rule="evenodd" d="M98.1221 38.2061L100.39 98.1456L100.337 98.7087L98.1221 38.2061Z" fill="#984096"/>
<path fill-rule="evenodd" clip-rule="evenodd" d="M98.1221 38.2061L100.348 98.5956L100.296 99.1458L98.1221 38.2061Z" fill="#9E4598"/>
<path fill-rule="evenodd" clip-rule="evenodd" d="M98.1221 38.2061L100.307 99.0374L100.255 99.576L98.1221 38.2061Z" fill="#A24899"/>
<path fill-rule="evenodd" clip-rule="evenodd" d="M98.1221 38.2061L100.266 99.4676L100.212 99.9957L98.1221 38.2061Z" fill="#A44A9A"/>
<path fill-rule="evenodd" clip-rule="evenodd" d="M98.1221 38.2061L100.223 99.8896L100.169 100.406L98.1221 38.2061Z" fill="#A64C9B"/>
<path fill-rule="evenodd" clip-rule="evenodd" d="M98.1221 38.2061L100.18 100.303L100.126 100.807L98.1221 38.2061Z" fill="#A84D9C"/>
<path fill-rule="evenodd" clip-rule="evenodd" d="M98.1221 38.2061L100.136 100.706L100.082 101.199L98.1221 38.2061Z" fill="#A94F9C"/>
<path fill-rule="evenodd" clip-rule="evenodd" d="M98.1221 38.2061L100.093 101.1L100.039 101.58L98.1221 38.2061Z" fill="#AB509D"/>
<path fill-rule="evenodd" clip-rule="evenodd" d="M98.1221 38.2061L100.05 101.484L99.9944 101.953L98.1221 38.2061Z" fill="#AF539E"/>
<path fill-rule="evenodd" clip-rule="evenodd" d="M98.1221 38.2061L100.006 101.859L99.9498 102.314L98.1221 38.2061Z" fill="#B357A0"/>
<path fill-rule="evenodd" clip-rule="evenodd" d="M98.1221 38.2061L99.9616 102.223L99.9052 102.669L98.1221 38.2061Z" fill="#EA46E3"/>
<path fill-rule="evenodd" clip-rule="evenodd" d="M98.1221 38.2061L99.917 102.579L99.8606 103.01L98.1221 38.2061Z" fill="#B357A0"/>
<path fill-rule="evenodd" clip-rule="evenodd" d="M98.1221 38.2061L99.8723 102.924L99.816 103.345L98.1221 38.2061Z" fill="#AF539E"/>
<path fill-rule="evenodd" clip-rule="evenodd" d="M98.1221 38.2061L99.8266 103.261L99.7702 103.668L98.1221 38.2061Z" fill="#AB509D"/>
<path fill-rule="evenodd" clip-rule="evenodd" d="M98.1221 38.2061L99.7808 103.586L99.7244 103.98L98.1221 38.2061Z" fill="#A94F9C"/>
<path fill-rule="evenodd" clip-rule="evenodd" d="M98.1221 38.2061L99.7362 103.902L99.6786 104.285L98.1221 38.2061Z" fill="#A84D9C"/>
<path fill-rule="evenodd" clip-rule="evenodd" d="M98.1221 38.2061L99.6892 104.208L99.6329 104.578L98.1221 38.2061Z" fill="#A64C9B"/>
<path fill-rule="evenodd" clip-rule="evenodd" d="M98.1221 38.2061L99.6446 104.504L99.5871 104.86L98.1221 38.2061Z" fill="#A44A9A"/>
<path fill-rule="evenodd" clip-rule="evenodd" d="M98.1221 38.2061L99.5988 104.789L99.5401 105.134L98.1221 38.2061Z" fill="#A24899"/>
<path fill-rule="evenodd" clip-rule="evenodd" d="M98.1221 38.2061L99.5519 105.066L99.4932 105.397L98.1221 38.2061Z" fill="#9E4598"/>
<path fill-rule="evenodd" clip-rule="evenodd" d="M98.1221 38.2061L99.5049 105.33L99.4462 105.651L98.1221 38.2061Z" fill="#984096"/>
<path fill-rule="evenodd" clip-rule="evenodd" d="M98.1221 38.2061L99.458 105.587L99.3993 105.892L98.1221 38.2061Z" fill="#933D8F"/>
<path fill-rule="evenodd" clip-rule="evenodd" d="M98.1221 38.2061L99.411 105.83L99.3511 106.125L98.1221 38.2061Z" fill="#8F3C8A"/>
<path fill-rule="evenodd" clip-rule="evenodd" d="M98.1221 38.2061L99.3629 106.066L99.3042 106.348L98.1221 38.2061Z" fill="#8D3B86"/>
<path fill-rule="evenodd" clip-rule="evenodd" d="M98.1221 38.2061L99.3159 106.291L99.256 106.558L98.1221 38.2061Z" fill="#8A3A83"/>
<path fill-rule="evenodd" clip-rule="evenodd" d="M98.1221 38.2061L99.2678 106.504L99.2079 106.76L98.1221 38.2061Z" fill="#883981"/>
<path fill-rule="evenodd" clip-rule="evenodd" d="M98.1221 38.2061L99.2197 106.709L99.1598 106.952L98.1221 38.2061Z" fill="#87397E"/>
<path fill-rule="evenodd" clip-rule="evenodd" d="M98.1221 38.2061L99.1715 106.903L99.1117 107.131L98.1221 38.2061Z" fill="#85387D"/>
<path fill-rule="evenodd" clip-rule="evenodd" d="M98.1221 38.2061L99.1234 107.085L99.0647 107.302L98.1221 38.2061Z" fill="#84377B"/>
<path fill-rule="evenodd" clip-rule="evenodd" d="M98.1221 38.2061L99.0753 107.258L99.0154 107.461L98.1221 38.2061Z" fill="#833779"/>
<path fill-rule="evenodd" clip-rule="evenodd" d="M98.1221 38.2061L99.0283 107.421L98.9673 107.611L98.1221 38.2061Z" fill="#823778"/>
<path fill-rule="evenodd" clip-rule="evenodd" d="M98.1221 38.2061L98.979 107.572L98.918 107.748L98.1221 38.2061Z" fill="#813777"/>
<path fill-rule="evenodd" clip-rule="evenodd" d="M98.1221 38.2061L98.9297 107.713L98.8687 107.876L98.1221 38.2061Z" fill="#803776"/>
<path fill-rule="evenodd" clip-rule="evenodd" d="M98.1221 38.2061L98.8816 107.844L98.8194 107.994L98.1221 38.2061Z" fill="#7F3675"/>
<path fill-rule="evenodd" clip-rule="evenodd" d="M98.1221 38.2061L98.8323 107.964L98.77 108.1L98.1221 38.2061Z" fill="#7F3674"/>
<path fill-rule="evenodd" clip-rule="evenodd" d="M98.1221 38.2061L98.783 108.073L98.7208 108.197L98.1221 38.2061Z" fill="#7E3573"/>
<path fill-rule="evenodd" clip-rule="evenodd" d="M98.1221 38.2061L98.7337 108.172L98.6714 108.282L98.1221 38.2061Z" fill="#7D3572"/>
<path fill-rule="evenodd" clip-rule="evenodd" d="M98.1221 38.2061L98.6844 108.26L98.6221 108.357L98.1221 38.2061Z" fill="#7C3571"/>
<path fill-rule="evenodd" clip-rule="evenodd" d="M98.1221 38.2061L98.6351 108.337L98.5728 108.421L98.1221 38.2061Z" fill="#7B3570"/>
<path fill-rule="evenodd" clip-rule="evenodd" d="M98.1221 38.2061L98.5858 108.404L98.5235 108.474L98.1221 38.2061Z" fill="#79346E"/>
<path fill-rule="evenodd" clip-rule="evenodd" d="M98.1221 38.2061L98.5353 108.46L98.4731 108.518L98.1221 38.2061Z" fill="#78346D"/>
<path fill-rule="evenodd" clip-rule="evenodd" d="M98.1221 38.2061L98.486 108.506L98.4249 108.55L98.1221 38.2061Z" fill="#76336B"/>
<path fill-rule="evenodd" clip-rule="evenodd" d="M98.1221 38.2061L98.4378 108.541L98.3756 108.571L98.1221 38.2061Z" fill="#743368"/>
<path fill-rule="evenodd" clip-rule="evenodd" d="M98.1221 38.2061L98.3874 108.565L98.3252 108.583L98.1221 38.2061Z" fill="#713266"/>
<path fill-rule="evenodd" clip-rule="evenodd" d="M98.1221 38.2061L98.3381 108.579L98.2758 108.583L98.1221 38.2061Z" fill="#6F3163"/>
<path fill-rule="evenodd" clip-rule="evenodd" d="M98.1221 38.2061L98.2876 108.582L98.2254 108.572L98.1221 38.2061Z" fill="#6B315F"/>
<path fill-rule="evenodd" clip-rule="evenodd" d="M98.1221 38.2061L98.2383 108.573L98.1761 108.551L98.1221 38.2061Z" fill="#623158"/>
<path fill-rule="evenodd" clip-rule="evenodd" d="M98.1221 38.2061L98.1878 108.556L98.1256 108.519L98.1221 38.2061Z" fill="#55324F"/>
<path fill-rule="evenodd" clip-rule="evenodd" d="M98.1224 38.2061L98.1389 108.526L98.0767 108.477L98.1224 38.2061Z" fill="#4D324B"/>
<path fill-rule="evenodd" clip-rule="evenodd" d="M98.1221 38.2061L98.0881 108.486L98.0259 108.423L98.1221 38.2061Z" fill="#483248"/>
<path fill-rule="evenodd" clip-rule="evenodd" d="M98.1223 38.2061L98.039 108.436L97.9756 108.359L98.1223 38.2061Z" fill="#443145"/>
<path fill-rule="evenodd" clip-rule="evenodd" d="M98.1223 38.2061L97.9885 108.374L97.9263 108.284L98.1223 38.2061Z" fill="#403142"/>
<path fill-rule="evenodd" clip-rule="evenodd" d="M98.1223 38.2061L97.9392 108.303L97.877 108.2L98.1223 38.2061Z" fill="#3A303D"/>
<path fill-rule="evenodd" clip-rule="evenodd" d="M98.1223 38.2061L97.8887 108.221L97.8276 108.105L98.1223 38.2061Z" fill="#312E36"/>
<path fill-rule="evenodd" clip-rule="evenodd" d="M98.1223 38.2061L97.8394 108.128L97.7783 107.998L98.1223 38.2061Z" fill="#373B43"/>
<path fill-rule="evenodd" clip-rule="evenodd" d="M98.122 38.2061L97.7898 108.024L97.7275 107.881L98.122 38.2061Z" fill="#434C56"/>
<path fill-rule="evenodd" clip-rule="evenodd" d="M98.1224 38.2061L97.7409 107.909L97.6787 107.753L98.1224 38.2061Z" fill="#4D5A65"/>
<path fill-rule="evenodd" clip-rule="evenodd" d="M98.1224 38.2061L97.6916 107.784L97.6294 107.615L98.1224 38.2061Z" fill="#546470"/>
<path fill-rule="evenodd" clip-rule="evenodd" d="M98.1224 38.2061L97.6411 107.649L97.5801 107.467L98.1224 38.2061Z" fill="#5A6F7B"/>
<path fill-rule="evenodd" clip-rule="evenodd" d="M98.1224 38.2061L97.5918 107.503L97.5308 107.307L98.1224 38.2061Z" fill="#647F8D"/>
<path fill-rule="evenodd" clip-rule="evenodd" d="M98.1221 38.2061L97.5422 107.347L97.48 107.137L98.1221 38.2061Z" fill="#749AAB"/>
<path fill-rule="evenodd" clip-rule="evenodd" d="M98.1224 38.2061L97.4932 107.179L97.4321 106.958L98.1224 38.2061Z" fill="#87EAFD"/>
<path fill-rule="evenodd" clip-rule="evenodd" d="M98.1224 38.2061L97.4439 107.003L97.3828 106.768L98.1224 38.2061Z" fill="#82D2E8"/>
<path fill-rule="evenodd" clip-rule="evenodd" d="M98.1224 38.2061L97.3945 106.814L97.3335 106.566L98.1224 38.2061Z" fill="#78CFE4"/>
<path fill-rule="evenodd" clip-rule="evenodd" d="M98.1223 38.2061L97.3452 106.616L97.2842 106.355L98.1223 38.2061Z" fill="#73CDE2"/>
<path fill-rule="evenodd" clip-rule="evenodd" d="M98.1221 38.2061L97.2969 106.407L97.2358 106.133L98.1221 38.2061Z" fill="#69CBE0"/>
<path fill-rule="evenodd" clip-rule="evenodd" d="M98.1224 38.2061L97.2479 106.188L97.188 105.902L98.1224 38.2061Z" fill="#53C6DA"/>
<path fill-rule="evenodd" clip-rule="evenodd" d="M98.1222 38.2061L97.2007 105.959L97.1396 105.659L98.1222 38.2061Z" fill="#4EC0D6"/>
<path fill-rule="evenodd" clip-rule="evenodd" d="M98.122 38.2061L97.1512 105.72L97.0913 105.406L98.122 38.2061Z" fill="#4CBBD3"/>
<path fill-rule="evenodd" clip-rule="evenodd" d="M98.1223 38.2061L97.1033 105.469L97.0435 105.145L98.1223 38.2061Z" fill="#4AB8D1"/>
<path fill-rule="evenodd" clip-rule="evenodd" d="M98.1221 38.2061L97.055 105.209L96.9951 104.871L98.1221 38.2061Z" fill="#47B5D0"/>
<path fill-rule="evenodd" clip-rule="evenodd" d="M98.1223 38.2061L97.0071 104.939L96.9473 104.588L98.1223 38.2061Z" fill="#46B2CF"/>
<path fill-rule="evenodd" clip-rule="evenodd" d="M98.1221 38.2061L96.9588 104.658L96.8989 104.295L98.1221 38.2061Z" fill="#45B0CD"/>
<path fill-rule="evenodd" clip-rule="evenodd" d="M98.1222 38.2061L96.9119 104.368L96.8521 103.992L98.1222 38.2061Z" fill="#45AECC"/>
<path fill-rule="evenodd" clip-rule="evenodd" d="M98.1223 38.2061L96.8639 104.067L96.8052 103.68L98.1223 38.2061Z" fill="#43ACCB"/>
<path fill-rule="evenodd" clip-rule="evenodd" d="M98.1224 38.2061L96.817 103.758L96.7583 103.357L98.1224 38.2061Z" fill="#42AACA"/>
<path fill-rule="evenodd" clip-rule="evenodd" d="M98.1225 38.2061L96.7701 103.436L96.7114 103.023L98.1225 38.2061Z" fill="#40A9C9"/>
<path fill-rule="evenodd" clip-rule="evenodd" d="M98.122 38.2061L96.7228 103.106L96.6641 102.682L98.122 38.2061Z" fill="#40A7C8"/>
<path fill-rule="evenodd" clip-rule="evenodd" d="M98.1221 38.2061L96.6759 102.766L96.6172 102.328L98.1221 38.2061Z" fill="#3FA6C8"/>
<path fill-rule="evenodd" clip-rule="evenodd" d="M98.1223 38.2061L96.6291 102.416L96.5728 101.966L98.1223 38.2061Z" fill="#3EA5C7"/>
<path fill-rule="evenodd" clip-rule="evenodd" d="M98.1222 38.2061L96.5844 102.057L96.5269 101.594L98.1222 38.2061Z" fill="#3DA4C6"/>
<path fill-rule="evenodd" clip-rule="evenodd" d="M98.1221 38.2061L96.5373 101.686L96.481 101.213L98.1221 38.2061Z" fill="#3DA3C5"/>
<path fill-rule="evenodd" clip-rule="evenodd" d="M98.1225 38.2061L96.4919 101.307L96.4355 100.822L98.1225 38.2061Z" fill="#3CA2C5"/>
<path fill-rule="evenodd" clip-rule="evenodd" d="M98.1223 38.2061L96.4472 100.919L96.3896 100.421L98.1223 38.2061Z" fill="#3DA1C4"/>
<path fill-rule="evenodd" clip-rule="evenodd" d="M98.122 38.2061L96.4011 100.52L96.3447 100.011L98.122 38.2061Z" fill="#3CA0C4"/>
<path fill-rule="evenodd" clip-rule="evenodd" d="M98.1222 38.2061L96.3566 100.113L96.3003 99.5923L98.1222 38.2061Z" fill="#3BA0C4"/>
<path fill-rule="evenodd" clip-rule="evenodd" d="M98.1224 38.2061L96.3122 99.6961L96.2559 99.1622L98.1224 38.2061Z" fill="#3A9FC4"/>
<path fill-rule="evenodd" clip-rule="evenodd" d="M98.1223 38.2061L96.2676 99.2694L96.2124 98.725L98.1223 38.2061Z" fill="#3B9EC3"/>
<path fill-rule="evenodd" clip-rule="evenodd" d="M98.122 38.2061L96.2227 98.8334L96.1675 98.2785L98.122 38.2061Z" fill="#3A9DC3"/>
<path fill-rule="evenodd" clip-rule="evenodd" d="M98.122 38.2061L96.1792 98.3892L96.124 97.8215L98.122 38.2061Z" fill="#3A9CC2"/>
<path fill-rule="evenodd" clip-rule="evenodd" d="M98.122 38.2061L96.1346 97.9346L96.0806 97.3552L98.122 38.2061Z" fill="#399BC2"/>
<path fill-rule="evenodd" clip-rule="evenodd" d="M98.1222 38.2061L96.0914 97.4718L96.0386 96.8819L98.1222 38.2061Z" fill="#389AC1"/>
<path fill-rule="evenodd" clip-rule="evenodd" d="M98.122 38.2061L96.0489 96.9996L95.9961 96.3993L98.122 38.2061Z" fill="#3999C0"/>
<path fill-rule="evenodd" clip-rule="evenodd" d="M98.1223 38.2061L96.0058 96.5194L95.9541 95.9073L98.1223 38.2061Z" fill="#3798BF"/>
<path fill-rule="evenodd" clip-rule="evenodd" d="M98.1221 38.2061L95.9645 96.0297L95.9116 95.406L98.1221 38.2061Z" fill="#3697BF"/>
<path fill-rule="evenodd" clip-rule="evenodd" d="M98.1221 38.2061L95.9223 95.5296L95.8706 94.8954L98.1221 38.2061Z" fill="#3695BE"/>
<path fill-rule="evenodd" clip-rule="evenodd" d="M98.1222 38.2061L95.8812 95.0225L95.8296 94.3778L98.1222 38.2061Z" fill="#3594BD"/>
<path fill-rule="evenodd" clip-rule="evenodd" d="M98.1223 38.2061L95.8402 94.5072L95.7886 93.852L98.1223 38.2061Z" fill="#3392BC"/>
<path fill-rule="evenodd" clip-rule="evenodd" d="M98.1224 38.2061L95.7992 93.9826L95.7476 93.317L98.1224 38.2061Z" fill="#3190BB"/>
<path fill-rule="evenodd" clip-rule="evenodd" d="M98.1222 38.2061L95.758 93.4499L95.7075 92.7737L98.1222 38.2061Z" fill="#328EB9"/>
<path fill-rule="evenodd" clip-rule="evenodd" d="M98.1221 38.2061L95.718 92.9089L95.6675 92.2223L98.1221 38.2061Z" fill="#328CB8"/>
<path fill-rule="evenodd" clip-rule="evenodd" d="M98.1225 38.2061L95.6784 92.3599L95.6279 91.6615L98.1225 38.2061Z" fill="#308AB6"/>
<path fill-rule="evenodd" clip-rule="evenodd" d="M98.1221 38.2061L95.6382 91.8002L95.5889 91.0938L98.1221 38.2061Z" fill="#3087B5"/>
<path fill-rule="evenodd" clip-rule="evenodd" d="M98.1223 38.2061L95.5996 91.2349L95.5503 90.5179L98.1223 38.2061Z" fill="#2E84B3"/>
<path fill-rule="evenodd" clip-rule="evenodd" d="M98.122 38.2061L95.5594 90.6601L95.5112 89.9339L98.122 38.2061Z" fill="#2881B1"/>
<path fill-rule="evenodd" clip-rule="evenodd" d="M98.1224 38.2061L95.5223 90.0785L95.4741 89.3428L98.1224 38.2061Z" fill="#257B9F"/>
<path fill-rule="evenodd" clip-rule="evenodd" d="M98.1224 38.2061L95.4835 89.4886L95.4365 88.7424L98.1224 38.2061Z" fill="#1D7890"/>
<path fill-rule="evenodd" clip-rule="evenodd" d="M98.1222 38.2061L95.4457 88.8917L95.3999 88.1351L98.1222 38.2061Z" fill="#1A7687"/>
<path fill-rule="evenodd" clip-rule="evenodd" d="M98.1224 38.2061L95.4084 88.2854L95.3638 87.5207L98.1224 38.2061Z" fill="#177481"/>
<path fill-rule="evenodd" clip-rule="evenodd" d="M98.1222 38.2061L95.3729 87.6734L95.3271 86.8982L98.1222 38.2061Z" fill="#15737C"/>
<path fill-rule="evenodd" clip-rule="evenodd" d="M98.1223 38.2061L95.3366 87.052L95.292 86.2687L98.1223 38.2061Z" fill="#157175"/>
<path fill-rule="evenodd" clip-rule="evenodd" d="M98.1223 38.2061L95.3003 86.4249L95.2568 85.631L98.1223 38.2061Z" fill="#106E6A"/>
<path fill-rule="evenodd" clip-rule="evenodd" d="M98.1224 38.2061L95.2651 85.7896L95.2217 84.9875L98.1224 38.2061Z" fill="#086958"/>
<path fill-rule="evenodd" clip-rule="evenodd" d="M98.1224 38.2061L95.23 85.1472L95.1865 84.3358L98.1224 38.2061Z" fill="#1A7559"/>
<path fill-rule="evenodd" clip-rule="evenodd" d="M98.1223 38.2061L95.1958 84.4979L95.1523 83.6772L98.1223 38.2061Z" fill="#267E58"/>
<path fill-rule="evenodd" clip-rule="evenodd" d="M98.122 38.2061L95.1614 83.8416L95.1191 83.0115L98.122 38.2061Z" fill="#2F8458"/>
<path fill-rule="evenodd" clip-rule="evenodd" d="M98.1223 38.2061L95.1277 83.1782L95.0854 82.34L98.1223 38.2061Z" fill="#358958"/>
<path fill-rule="evenodd" clip-rule="evenodd" d="M98.122 38.2061L95.0933 82.5079L95.0522 81.6615L98.122 38.2061Z" fill="#3A8C57"/>
<path fill-rule="evenodd" clip-rule="evenodd" d="M98.1224 38.2061L95.0609 81.8306L95.021 80.9761L98.1224 38.2061Z" fill="#3F9057"/>
<path fill-rule="evenodd" clip-rule="evenodd" d="M98.1224 38.2061L95.0292 81.1474L94.9893 80.2836L98.1224 38.2061Z" fill="#459556"/>
<path fill-rule="evenodd" clip-rule="evenodd" d="M98.1224 38.2061L94.9974 80.4561L94.9575 79.5865L98.1224 38.2061Z" fill="#4D9C55"/>
<path fill-rule="evenodd" clip-rule="evenodd" d="M98.1221 38.2061L94.9655 79.7601L94.9268 78.8823L98.1221 38.2061Z" fill="#59A653"/>
<path fill-rule="evenodd" clip-rule="evenodd" d="M98.1224 38.2061L94.9341 79.0572L94.8965 78.1712L98.1224 38.2061Z" fill="#6AB850"/>
<path fill-rule="evenodd" clip-rule="evenodd" d="M98.1221 38.2061L94.9033 78.3484L94.8657 77.4543L98.1221 38.2061Z" fill="#6AB456"/>
<path fill-rule="evenodd" clip-rule="evenodd" d="M98.1222 38.2061L94.874 77.6338L94.8364 76.7315L98.1222 38.2061Z" fill="#67B05B"/>
<path fill-rule="evenodd" clip-rule="evenodd" d="M98.122 38.2061L94.8445 76.9121L94.8081 76.0028L98.122 38.2061Z" fill="#66AD5D"/>
<path fill-rule="evenodd" clip-rule="evenodd" d="M98.1224 38.2061L94.8155 76.1847L94.7803 75.2696L98.1224 38.2061Z" fill="#64AA5F"/>
<path fill-rule="evenodd" clip-rule="evenodd" d="M98.122 38.2061L94.787 75.4514L94.7529 74.5293L98.122 38.2061Z" fill="#60A367"/>
<path fill-rule="evenodd" clip-rule="evenodd" d="M98.1222 38.2061L94.7601 74.7135L94.7261 73.7832L98.1222 38.2061Z" fill="#5DA169"/>
<path fill-rule="evenodd" clip-rule="evenodd" d="M98.1223 38.2061L94.7321 73.9697L94.6992 73.0324L98.1223 38.2061Z" fill="#5AA268"/>
<path fill-rule="evenodd" clip-rule="evenodd" d="M98.1225 38.2061L94.7064 73.2201L94.6724 72.277L98.1225 38.2061Z" fill="#59A266"/>
<path fill-rule="evenodd" clip-rule="evenodd" d="M98.1224 38.2061L94.6794 72.4647L94.6465 71.5157L98.1224 38.2061Z" fill="#57A365"/>
<path fill-rule="evenodd" clip-rule="evenodd" d="M98.1222 38.2061L94.6533 71.7058L94.6216 70.7487L98.1222 38.2061Z" fill="#56A464"/>
<path fill-rule="evenodd" clip-rule="evenodd" d="M98.1224 38.2061L94.6277 70.9411L94.5972 69.977L98.1224 38.2061Z" fill="#55A564"/>
<path fill-rule="evenodd" clip-rule="evenodd" d="M98.1221 38.2061L94.6028 70.1705L94.5723 69.2017L98.1221 38.2061Z" fill="#53A562"/>
<path fill-rule="evenodd" clip-rule="evenodd" d="M98.1222 38.2061L94.5782 69.3952L94.5488 68.4206L98.1222 38.2061Z" fill="#54A662"/>
<path fill-rule="evenodd" clip-rule="evenodd" d="M98.1222 38.2061L94.5547 68.6165L94.5254 67.6349L98.1222 38.2061Z" fill="#52A661"/>
<path fill-rule="evenodd" clip-rule="evenodd" d="M98.1221 38.2061L94.5311 67.8319L94.5029 66.8457L98.1221 38.2061Z" fill="#52A761"/>
<path fill-rule="evenodd" clip-rule="evenodd" d="M98.1224 38.2061L94.5091 67.0427L94.481 66.0518L98.1224 38.2061Z" fill="#51A760"/>
<path fill-rule="evenodd" clip-rule="evenodd" d="M98.122 38.2061L94.4865 66.2499L94.4595 65.2532L98.122 38.2061Z" fill="#50A760"/>
<path fill-rule="evenodd" clip-rule="evenodd" d="M98.1222 38.2061L94.4655 65.4526L94.4385 64.45L98.1222 38.2061Z" fill="#50A75F"/>
<path fill-rule="evenodd" clip-rule="evenodd" d="M98.1221 38.2061L94.4443 64.6505L94.4185 63.6445L98.1221 38.2061Z" fill="#4FA85F"/>
<path fill-rule="evenodd" clip-rule="evenodd" d="M98.1221 38.2061L94.4231 63.845L94.3984 62.8342L98.1221 38.2061Z" fill="#4FA85F"/>
<path fill-rule="evenodd" clip-rule="evenodd" d="M98.1223 38.2061L94.4034 63.0371L94.3799 62.0193L98.1223 38.2061Z" fill="#4DA85F"/>
<path fill-rule="evenodd" clip-rule="evenodd" d="M98.122 38.2061L94.3843 62.2233L94.3608 61.2022L98.122 38.2061Z" fill="#4DA95E"/>
<path fill-rule="evenodd" clip-rule="evenodd" d="M98.1222 38.2061L94.3658 61.4062L94.3423 60.3814L98.1222 38.2061Z" fill="#4DA95E"/>
<path fill-rule="evenodd" clip-rule="evenodd" d="M98.1223 38.2061L94.347 60.5866L94.3247 59.5561L98.1223 38.2061Z" fill="#4CA95E"/>
<path fill-rule="evenodd" clip-rule="evenodd" d="M98.1221 38.2061L94.3292 59.7624L94.3081 58.7284L98.1221 38.2061Z" fill="#4CA95E"/>
<path fill-rule="evenodd" clip-rule="evenodd" d="M98.1224 38.2061L94.3131 58.9347L94.292 57.8972L98.1224 38.2061Z" fill="#4AA95D"/>
<path fill-rule="evenodd" clip-rule="evenodd" d="M98.1221 38.2061L94.2963 58.1058L94.2764 57.0648L98.1221 38.2061Z" fill="#4AA95D"/>
<path fill-rule="evenodd" clip-rule="evenodd" d="M98.1222 38.2061L94.28 57.2723L94.2612 56.2278L98.1222 38.2061Z" fill="#4AA95C"/>
<path fill-rule="evenodd" clip-rule="evenodd" d="M98.1223 38.2061L94.2649 56.4365L94.2461 55.3873L98.1223 38.2061Z" fill="#49AA5C"/>
<path fill-rule="evenodd" clip-rule="evenodd" d="M98.1222 38.2061L94.2495 55.5971L94.2319 54.5456L98.1222 38.2061Z" fill="#48AB5C"/>
<path fill-rule="evenodd" clip-rule="evenodd" d="M98.1224 38.2061L94.2357 54.7554L94.2192 53.7004L98.1224 38.2061Z" fill="#47AA5B"/>
<path fill-rule="evenodd" clip-rule="evenodd" d="M98.1222 38.2061L94.2225 53.9125L94.2061 52.854L98.1222 38.2061Z" fill="#46AB5B"/>
<path fill-rule="evenodd" clip-rule="evenodd" d="M98.1222 38.2061L94.2096 53.0651L94.1943 52.0053L98.1222 38.2061Z" fill="#45AB5A"/>
<path fill-rule="evenodd" clip-rule="evenodd" d="M98.1222 38.2061L94.1967 52.2175L94.1826 51.1531L98.1222 38.2061Z" fill="#44AC59"/>
<path fill-rule="evenodd" clip-rule="evenodd" d="M98.1222 38.2061L94.185 51.3665L94.1709 50.301L98.1222 38.2061Z" fill="#42AC59"/>
<path fill-rule="evenodd" clip-rule="evenodd" d="M98.1224 38.2061L94.1745 50.5132L94.1616 49.4453L98.1224 38.2061Z" fill="#40AD58"/>
<path fill-rule="evenodd" clip-rule="evenodd" d="M98.122 38.2061L94.1636 49.6598L94.1519 48.5885L98.122 38.2061Z" fill="#3DAE57"/>
<path fill-rule="evenodd" clip-rule="evenodd" d="M98.1221 38.2061L94.1543 48.8029L94.1426 47.7304L98.1221 38.2061Z" fill="#3BAF57"/>
<path fill-rule="evenodd" clip-rule="evenodd" d="M98.122 38.2061L94.1449 47.945L94.1343 46.8701L98.122 38.2061Z" fill="#36AF56"/>
<path fill-rule="evenodd" clip-rule="evenodd" d="M98.1224 38.2061L94.137 47.0858L94.1265 46.0098L98.1224 38.2061Z" fill="#31B155"/>
<path fill-rule="evenodd" clip-rule="evenodd" d="M98.1221 38.2061L94.1285 46.2243L94.1191 45.1471L98.1221 38.2061Z" fill="#1DBC08"/>
<path fill-rule="evenodd" clip-rule="evenodd" d="M98.1223 38.2061L94.1205 45.3627L94.1123 44.2844L98.1223 38.2061Z" fill="#3A984D"/>
<path fill-rule="evenodd" clip-rule="evenodd" d="M98.1224 38.2061L94.1135 44.4989L94.1064 43.4194L98.1224 38.2061Z" fill="#3D8B49"/>
<path fill-rule="evenodd" clip-rule="evenodd" d="M98.1224 38.2061L94.1076 43.6362L94.1006 42.5544L98.1224 38.2061Z" fill="#3D8346"/>
<path fill-rule="evenodd" clip-rule="evenodd" d="M98.1222 38.2061L94.1016 42.7712L94.0957 41.6894L98.1222 38.2061Z" fill="#3E7E45"/>
<path fill-rule="evenodd" clip-rule="evenodd" d="M98.122 38.2061L94.0967 41.9051L94.0908 40.822L98.122 38.2061Z" fill="#3D7743"/>
<path fill-rule="evenodd" clip-rule="evenodd" d="M98.1221 38.2061L94.0921 41.0389L94.0874 39.9559L98.1221 38.2061Z" fill="#3D6F40"/>
<path fill-rule="evenodd" clip-rule="evenodd" d="M98.1222 38.2061L94.0887 40.1727L94.084 39.0886L98.1222 38.2061Z" fill="#3C613B"/>
<path fill-rule="evenodd" clip-rule="evenodd" d="M98.1221 38.2061L94.0851 39.3065L94.0815 38.2224L98.1221 38.2061Z" fill="#475D38"/>
<path fill-rule="evenodd" clip-rule="evenodd" d="M98.122 38.206L94.0826 38.4392L94.0791 37.355L98.122 38.206Z" fill="#62703A"/>
<path fill-rule="evenodd" clip-rule="evenodd" d="M98.1222 38.2061L94.0805 37.572L94.0781 36.4878L98.1222 38.2061Z" fill="#757D3B"/>
<path fill-rule="evenodd" clip-rule="evenodd" d="M98.1222 38.2061L94.0793 36.7046L94.0781 35.6216L98.1222 38.2061Z" fill="#82863B"/>
<path fill-rule="evenodd" clip-rule="evenodd" d="M98.1222 38.2061L94.0781 35.8372V34.7554L98.1222 38.2061Z" fill="#8E8E3B"/>
<path fill-rule="evenodd" clip-rule="evenodd" d="M98.1222 38.2061L94.0781 34.9722V33.8904L98.1222 38.2061Z" fill="#9D993A"/>
<path fill-rule="evenodd" clip-rule="evenodd" d="M98.1222 38.206L94.0781 34.106L94.0793 33.0242L98.1222 38.206Z" fill="#B6AA38"/>
<path fill-rule="evenodd" clip-rule="evenodd" d="M98.122 38.2061L94.0791 33.241L94.0815 32.1592L98.122 38.2061Z" fill="#E4CC2D"/>
<path fill-rule="evenodd" clip-rule="evenodd" d="M98.1223 38.2059L94.0806 32.3759L94.0841 31.2964L98.1223 38.2059Z" fill="#FBD926"/>
<path fill-rule="evenodd" clip-rule="evenodd" d="M98.1224 38.2061L94.083 31.5133L94.0865 30.4338L98.1224 38.2061Z" fill="#F9D428"/>
<path fill-rule="evenodd" clip-rule="evenodd" d="M98.1223 38.2061L94.0864 30.6507L94.0899 29.5735L98.1223 38.2061Z" fill="#F8D02A"/>
<path fill-rule="evenodd" clip-rule="evenodd" d="M98.1222 38.206L94.0898 29.788L94.0945 28.7131L98.1222 38.206Z" fill="#F8CD2B"/>
<path fill-rule="evenodd" clip-rule="evenodd" d="M98.1221 38.2062L94.0933 28.9289L94.0991 27.8552L98.1221 38.2062Z" fill="#F6C72D"/>
<path fill-rule="evenodd" clip-rule="evenodd" d="M98.1223 38.2061L94.0981 28.0697L94.1052 26.9983L98.1223 38.2061Z" fill="#F5C12F"/>
<path fill-rule="evenodd" clip-rule="evenodd" d="M98.1223 38.206L94.104 27.2128L94.1111 26.1426L98.1223 38.206Z" fill="#F5BE2F"/>
<path fill-rule="evenodd" clip-rule="evenodd" d="M98.1223 38.2062L94.1099 26.3572L94.1181 25.2905L98.1223 38.2062Z" fill="#F5BC30"/>
<path fill-rule="evenodd" clip-rule="evenodd" d="M98.1222 38.2061L94.1157 25.5026L94.1251 24.4382L98.1222 38.2061Z" fill="#F5BA30"/>
<path fill-rule="evenodd" clip-rule="evenodd" d="M98.122 38.2061L94.1226 24.6516L94.1331 23.5896L98.122 38.2061Z" fill="#F5B930"/>
<path fill-rule="evenodd" clip-rule="evenodd" d="M98.1221 38.206L94.1309 23.8016L94.1414 22.7419L98.1221 38.206Z" fill="#F5B730"/>
<path fill-rule="evenodd" clip-rule="evenodd" d="M98.1222 38.2062L94.1392 22.9543L94.1509 21.897L98.1222 38.2062Z" fill="#F5B531"/>
<path fill-rule="evenodd" clip-rule="evenodd" d="M98.1221 38.2061L94.1484 22.1091L94.1602 21.0564L98.1221 38.2061Z" fill="#F5B531"/>
<path fill-rule="evenodd" clip-rule="evenodd" d="M98.1225 38.2061L94.1582 21.2662L94.1699 20.2158L98.1225 38.2061Z" fill="#F5B331"/>
<path fill-rule="evenodd" clip-rule="evenodd" d="M98.1223 38.2059L94.1675 20.4267L94.1804 19.3787L98.1223 38.2059Z" fill="#F5B231"/>
<path fill-rule="evenodd" clip-rule="evenodd" d="M98.122 38.206L94.1777 19.5886L94.1918 18.5452L98.122 38.206Z" fill="#F5B131"/>
<path fill-rule="evenodd" clip-rule="evenodd" d="M98.122 38.2061L94.1895 18.7528L94.2035 17.7141L98.122 38.2061Z" fill="#F5B031"/>
<path fill-rule="evenodd" clip-rule="evenodd" d="M98.122 38.206L94.2012 17.9215L94.2164 16.8862L98.122 38.206Z" fill="#F5AF31"/>
<path fill-rule="evenodd" clip-rule="evenodd" d="M98.122 38.2061L94.2129 17.0927L94.2293 16.061L98.122 38.2061Z" fill="#F5AF31"/>
<path fill-rule="evenodd" clip-rule="evenodd" d="M98.122 38.206L94.2271 16.2685L94.2435 15.2402L98.122 38.206Z" fill="#F5AE31"/>
<path fill-rule="evenodd" clip-rule="evenodd" d="M98.1223 38.2061L94.2402 15.4455L94.259 14.4231L98.1223 38.2061Z" fill="#F5AD31"/>
<path fill-rule="evenodd" clip-rule="evenodd" d="M98.1222 38.206L94.2554 14.627L94.2742 13.6082L98.1222 38.206Z" fill="#F5AD32"/>
<path fill-rule="evenodd" clip-rule="evenodd" d="M98.1223 38.2061L94.2695 13.8123L94.2895 12.7969L98.1223 38.2061Z" fill="#F5AC32"/>
<path fill-rule="evenodd" clip-rule="evenodd" d="M98.1224 38.206L94.2861 13.0008L94.3061 11.9912L98.1224 38.206Z" fill="#F5AB32"/>
<path fill-rule="evenodd" clip-rule="evenodd" d="M98.1223 38.206L94.3013 12.1929L94.3224 11.188L98.1223 38.206Z" fill="#F5AB32"/>
<path fill-rule="evenodd" clip-rule="evenodd" d="M98.1223 38.206L94.3188 11.3896L94.34 10.3894L98.1223 38.206Z" fill="#F5AB32"/>
<path fill-rule="evenodd" clip-rule="evenodd" d="M98.1224 38.2062L94.3354 10.5901L94.3577 9.5957L98.1224 38.2062Z" fill="#F5AA32"/>
<path fill-rule="evenodd" clip-rule="evenodd" d="M98.1224 38.206L94.353 9.79375L94.3765 8.80518L98.1224 38.206Z" fill="#F5A932"/>
<path fill-rule="evenodd" clip-rule="evenodd" d="M98.1222 38.2061L94.3716 9.00344L94.3951 8.01953L98.1222 38.2061Z" fill="#F5A932"/>
<path fill-rule="evenodd" clip-rule="evenodd" d="M98.1225 38.206L94.3906 8.21638L94.4153 7.23828L98.1225 38.206Z" fill="#F5A932"/>
<path fill-rule="evenodd" clip-rule="evenodd" d="M98.122 38.2061L94.4102 7.43424L94.4348 6.46313L98.122 38.2061Z" fill="#F5A832"/>
<path fill-rule="evenodd" clip-rule="evenodd" d="M98.1221 38.2061L94.4302 6.65664L94.456 5.69141L98.1221 38.2061Z" fill="#F5A732"/>
<path fill-rule="evenodd" clip-rule="evenodd" d="M98.1224 38.2061L94.4517 5.88491L94.4775 4.92432L98.1224 38.2061Z" fill="#F5A732"/>
<path fill-rule="evenodd" clip-rule="evenodd" d="M98.1223 38.2061L94.4727 5.11668L94.4997 4.16309L98.1223 38.2061Z" fill="#F5A632"/>
<path fill-rule="evenodd" clip-rule="evenodd" d="M98.1222 38.2061L94.4937 4.35431L94.5218 3.40771L98.1222 38.2061Z" fill="#F5A532"/>
<path fill-rule="evenodd" clip-rule="evenodd" d="M98.1223 38.2061L94.5161 3.59652L94.5455 2.65576L98.1223 38.2061Z" fill="#F6A532"/>
<path fill-rule="evenodd" clip-rule="evenodd" d="M98.1223 38.2062L94.5396 2.84468L94.5689 1.91089L98.1223 38.2062Z" fill="#F6A432"/>
<path fill-rule="evenodd" clip-rule="evenodd" d="M98.1223 38.2059L94.563 2.0972L94.5923 1.17041L98.1223 38.2059Z" fill="#F5A332"/>
<path fill-rule="evenodd" clip-rule="evenodd" d="M98.1222 38.206L94.5864 1.35582L94.6169 0.436035L98.1222 38.206Z" fill="#F5A232"/>
<path fill-rule="evenodd" clip-rule="evenodd" d="M98.122 38.2061L94.6108 0.620331L94.6425 -0.29248L98.122 38.2061Z" fill="#F5A133"/>
<path fill-rule="evenodd" clip-rule="evenodd" d="M98.122 38.206L94.6367 -0.110738L94.6684 -1.01538L98.122 38.206Z" fill="#F5A033"/>
<path fill-rule="evenodd" clip-rule="evenodd" d="M98.1223 38.2062L94.6616 -0.834536L94.6945 -1.73218L98.1223 38.2062Z" fill="#F69F33"/>
<path fill-rule="evenodd" clip-rule="evenodd" d="M98.1221 38.2061L94.6885 -1.55272L94.7213 -2.44336L98.1221 38.2061Z" fill="#F69E33"/>
<path fill-rule="evenodd" clip-rule="evenodd" d="M98.1222 38.2061L94.7144 -2.26501L94.7484 -3.14868L98.1222 38.2061Z" fill="#F69C33"/>
<path fill-rule="evenodd" clip-rule="evenodd" d="M98.122 38.2062L94.7412 -2.97137L94.7753 -3.8457L98.122 38.2062Z" fill="#F59A33"/>
<path fill-rule="evenodd" clip-rule="evenodd" d="M98.1222 38.206L94.7695 -3.67217L94.8036 -4.53833L98.1222 38.206Z" fill="#F69933"/>
<path fill-rule="evenodd" clip-rule="evenodd" d="M98.122 38.2059L94.7964 -4.36585L94.8316 -5.22388L98.122 38.2059Z" fill="#F69733"/>
<path fill-rule="evenodd" clip-rule="evenodd" d="M98.1222 38.2062L94.8247 -5.05113L94.8611 -5.90332L98.1222 38.2062Z" fill="#F79533"/>
<path fill-rule="evenodd" clip-rule="evenodd" d="M98.1221 38.206L94.854 -5.7321L94.8916 -6.57495L98.1221 38.206Z" fill="#ED8F35"/>
<path fill-rule="evenodd" clip-rule="evenodd" d="M98.1224 38.2061L94.8848 -6.40693L94.9223 -7.24048L98.1224 38.2061Z" fill="#DD8A37"/>
<path fill-rule="evenodd" clip-rule="evenodd" d="M98.1223 38.2061L94.9141 -7.07379L94.9528 -7.89917L98.1223 38.2061Z" fill="#D78838"/>
<path fill-rule="evenodd" clip-rule="evenodd" d="M98.1221 38.2062L94.9443 -7.73357L94.9831 -8.55078L98.1221 38.2062Z" fill="#D18638"/>
<path fill-rule="evenodd" clip-rule="evenodd" d="M98.1221 38.2061L94.9761 -8.38765L95.016 -9.19556L98.1221 38.2061Z" fill="#C88339"/>
<path fill-rule="evenodd" clip-rule="evenodd" d="M98.1222 38.2061L95.0078 -9.03352L95.0477 -9.83325L98.1222 38.2061Z" fill="#BC7A41"/>
<path fill-rule="evenodd" clip-rule="evenodd" d="M98.1222 38.2062L95.0396 -9.67341L95.0806 -10.4626L98.1222 38.2062Z" fill="#C86D5E"/>
<path fill-rule="evenodd" clip-rule="evenodd" d="M98.1221 38.206L95.0723 -10.3055L95.1134 -11.0842L98.1221 38.206Z" fill="#CE6468"/>
<path fill-rule="evenodd" clip-rule="evenodd" d="M98.1224 38.206L95.1055 -10.9291L95.1477 -11.6997L98.1224 38.206Z" fill="#D25D70"/>
<path fill-rule="evenodd" clip-rule="evenodd" d="M98.122 38.2059L95.1392 -11.547L95.1814 -12.3071L98.122 38.2059Z" fill="#DA507A"/>
<path fill-rule="evenodd" clip-rule="evenodd" d="M98.1224 38.2062L95.1724 -12.1554L95.2158 -12.9084L98.1224 38.2062Z" fill="#EB268F"/>
<path fill-rule="evenodd" clip-rule="evenodd" d="M98.1223 38.2061L95.2075 -12.7581L95.251 -13.5007L98.1223 38.2061Z" fill="#E9278B"/>
<path fill-rule="evenodd" clip-rule="evenodd" d="M98.1224 38.2059L95.2417 -13.3517L95.2863 -14.085L98.1224 38.2059Z" fill="#E62888"/>
<path fill-rule="evenodd" clip-rule="evenodd" d="M98.1224 38.2061L95.2769 -13.9379L95.3215 -14.6606L98.1224 38.2061Z" fill="#E52987"/>
<path fill-rule="evenodd" clip-rule="evenodd" d="M98.1221 38.206L95.313 -14.5163L95.3576 -15.2297L98.1221 38.206Z" fill="#E52986"/>
<path fill-rule="evenodd" clip-rule="evenodd" d="M98.1224 38.2059L95.3496 -15.0864L95.3942 -15.7893L98.1224 38.2059Z" fill="#E32984"/>
<path fill-rule="evenodd" clip-rule="evenodd" d="M98.1221 38.2061L95.3857 -15.6481L95.4304 -16.3406L98.1221 38.2061Z" fill="#E22A83"/>
<path fill-rule="evenodd" clip-rule="evenodd" d="M98.122 38.2061L95.4209 -16.2019L95.4678 -16.885L98.122 38.2061Z" fill="#E22A82"/>
<path fill-rule="evenodd" clip-rule="evenodd" d="M98.1221 38.206L95.4585 -16.7487L95.5055 -17.4202L98.1221 38.206Z" fill="#E12A81"/>
<path fill-rule="evenodd" clip-rule="evenodd" d="M98.1221 38.2061L95.4961 -17.2849L95.5442 -17.947L98.1221 38.2061Z" fill="#E12A81"/>
<path fill-rule="evenodd" clip-rule="evenodd" d="M98.1224 38.2061L95.5352 -17.8141L95.5833 -18.4646L98.1224 38.2061Z" fill="#E12A80"/>
<path fill-rule="evenodd" clip-rule="evenodd" d="M98.1223 38.206L95.5737 -18.3353L95.6219 -18.9753L98.1223 38.206Z" fill="#E12A80"/>
<path fill-rule="evenodd" clip-rule="evenodd" d="M98.1221 38.206L95.6123 -18.8471L95.6616 -19.4766L98.1221 38.206Z" fill="#DF2B7F"/>
<path fill-rule="evenodd" clip-rule="evenodd" d="M98.1224 38.2061L95.6514 -19.3506L95.7018 -19.9685L98.1224 38.2061Z" fill="#DF2B7E"/>
<path fill-rule="evenodd" clip-rule="evenodd" d="M98.1221 38.206L95.6909 -19.845L95.7414 -20.4524L98.1221 38.206Z" fill="#DE2B7E"/>
<path fill-rule="evenodd" clip-rule="evenodd" d="M98.1222 38.2061L95.731 -20.3299L95.7814 -20.9268L98.1222 38.2061Z" fill="#DE2B7D"/>
<path fill-rule="evenodd" clip-rule="evenodd" d="M98.1221 38.2061L95.772 -20.8078L95.8224 -21.3931L98.1221 38.2061Z" fill="#DE2B7C"/>
<path fill-rule="evenodd" clip-rule="evenodd" d="M98.1221 38.2061L95.813 -21.2753L95.8635 -21.8489L98.1221 38.2061Z" fill="#DE2C7C"/>
<path fill-rule="evenodd" clip-rule="evenodd" d="M98.122 38.206L95.854 -21.7347L95.9057 -22.2966L98.122 38.206Z" fill="#DD2C7B"/>
<path fill-rule="evenodd" clip-rule="evenodd" d="M98.1224 38.2061L95.8955 -22.1835L95.9472 -22.7349L98.1224 38.2061Z" fill="#DC2C79"/>
<path fill-rule="evenodd" clip-rule="evenodd" d="M98.1221 38.2061L95.9375 -22.6252L95.9892 -23.1638L98.1221 38.2061Z" fill="#DB2C78"/>
<path fill-rule="evenodd" clip-rule="evenodd" d="M98.1223 38.2061L95.98 -23.0566L96.0316 -23.5835L98.1223 38.2061Z" fill="#DA2D76"/>
<path fill-rule="evenodd" clip-rule="evenodd" d="M98.1223 38.2061L96.021 -23.4786L96.0738 -23.9939L98.1223 38.2061Z" fill="#D82D74"/>
<path fill-rule="evenodd" clip-rule="evenodd" d="M98.122 38.206L96.063 -23.8902L96.117 -24.395L98.122 38.206Z" fill="#D62E71"/>
<path fill-rule="evenodd" clip-rule="evenodd" d="M98.122 38.2061L96.1064 -24.2947L96.1604 -24.7866L98.122 38.2061Z" fill="#D2306B"/>
<path fill-rule="evenodd" clip-rule="evenodd" d="M98.1221 38.206L96.1499 -24.6877L96.2051 -25.168L98.1221 38.206Z" fill="#D03168"/>
<path fill-rule="evenodd" clip-rule="evenodd" d="M98.1221 38.206L96.1934 -25.0735L96.2485 -25.541L98.1221 38.206Z" fill="#CF3166"/>
<path fill-rule="evenodd" clip-rule="evenodd" d="M98.1224 38.2059L96.2383 -25.4466L96.2935 -25.9036L98.1224 38.2059Z" fill="#CD3263"/>
<path fill-rule="evenodd" clip-rule="evenodd" d="M98.1224 38.2059L96.2817 -25.8115L96.3263 -26.1682L98.1224 38.2059Z" fill="#C90857"/>
</g>
<path d="M14.1044 55.1491C11.9843 55.1491 10.0627 54.7375 8.33585 53.9145C6.61022 53.0903 5.12876 51.991 3.89147 50.6142C2.65536 49.2374 1.69746 47.6788 1.01777 45.9383C0.339258 44.1978 0 42.4095 0 40.5745C0 38.658 0.359214 36.8301 1.07999 35.0896C1.79959 33.3479 2.79153 31.7962 4.05582 30.4334C5.31893 29.0707 6.81448 27.9911 8.54011 27.1949C10.2657 26.3975 12.1616 26 14.2276 26C16.3207 26 18.2283 26.4185 19.9551 27.2555C21.6807 28.0926 23.1563 29.2129 24.3783 30.6153C25.6015 32.0189 26.5524 33.5834 27.2321 35.311C27.9118 37.0376 28.251 38.8189 28.251 40.655C28.251 42.5435 27.8977 44.3586 27.191 46.1003C26.4843 47.8408 25.4994 49.3924 24.2363 50.7552C22.972 52.118 21.4776 53.1906 19.7508 53.974C18.0252 54.7574 16.1434 55.1479 14.1044 55.1479V55.1491ZM14.1455 50.2097C15.5048 50.2097 16.714 49.9322 17.774 49.3796C18.8328 48.8259 19.7168 48.0833 20.4235 47.153C21.1313 46.2227 21.6678 45.1828 22.0341 44.0357C22.4003 42.8886 22.5834 41.7356 22.5834 40.5745C22.5834 39.333 22.3862 38.1322 21.993 36.9711C21.5997 35.8112 21.0421 34.7865 20.3213 33.8946C19.6017 33.004 18.719 32.2894 17.6719 31.7496C16.6259 31.2099 15.4508 30.9394 14.1455 30.9394C12.7591 30.9394 11.5429 31.2168 10.497 31.7694C9.45105 32.3232 8.57415 33.0658 7.86746 33.996C7.16077 34.9263 6.62431 35.9604 6.25688 37.0935C5.89062 38.2266 5.70749 39.3878 5.70749 40.5745C5.70749 41.8161 5.89766 43.0168 6.27801 44.1779C6.65835 45.3379 7.20773 46.3638 7.92851 47.2544C8.64928 48.1463 9.53205 48.8597 10.5792 49.3995C11.6251 49.9392 12.8143 50.2097 14.1455 50.2097ZM13.575 44.2992H18.8739L28.413 54.9474H23.114L13.575 44.2992Z" fill="#FEFEFE"/>
<path d="M51.3653 54.9474L37.7481 40.5967C36.6071 39.3948 35.6891 38.3631 34.9965 37.4993C34.3027 36.6284 33.8073 35.8392 33.508 35.1176C33.2086 34.3948 33.0596 33.6254 33.0596 32.7965C33.0596 31.4396 33.4059 30.2458 34.0985 29.2199C34.7922 28.1952 35.7431 27.399 36.9522 26.8382C38.1613 26.2787 39.5136 26.0012 41.008 26.0012C42.3674 26.0012 43.6246 26.2379 44.7786 26.703C45.9337 27.1693 46.8787 27.8711 47.6124 28.8026C48.346 29.7329 48.7123 30.8951 48.7123 32.2766C48.7123 33.5321 48.393 34.6653 47.7544 35.6772C47.1158 36.6891 46.2659 37.6205 45.207 38.4774C44.147 39.3272 42.9508 40.1572 41.6196 40.9535C40.6418 41.5678 39.7508 42.1612 38.949 42.7476C38.1472 43.3281 37.5215 43.9425 37.0731 44.5965C36.6259 45.2447 36.4005 45.9535 36.4005 46.7229C36.4005 47.4655 36.6188 48.1533 37.0531 48.7945C37.4875 49.4287 38.0921 49.9416 38.8668 50.3193C39.6416 50.7028 40.5044 50.8998 41.4564 50.8998C42.6245 50.8998 43.7596 50.6154 44.8596 50.0489C45.9595 49.4823 46.9456 48.679 47.8154 47.6403C48.6853 46.6016 49.3697 45.3531 49.8745 43.8947C50.3769 42.4375 50.6281 40.8042 50.6281 38.9961H55.0725C55.0725 41.5608 54.6781 43.8341 53.8904 45.8182C53.1015 47.8024 52.0415 49.4893 50.7103 50.8789C49.3779 52.2696 47.8706 53.3282 46.1849 54.0579C44.5004 54.7866 42.7466 55.1503 40.9258 55.1503C38.942 55.1503 37.2163 54.7597 35.7478 53.9693C34.2804 53.1859 33.1452 52.1542 32.3446 50.8719C31.5429 49.5907 31.1426 48.2069 31.1426 46.7159C31.1426 45.2179 31.4947 43.9169 32.2014 42.7954C32.9093 41.6751 33.805 40.683 34.8932 39.8133C35.9802 38.9495 37.0661 38.1801 38.1543 37.5191C39.3505 36.7765 40.3553 36.1493 41.1712 35.6293C41.987 35.1106 42.6116 34.5977 43.0471 34.0789C43.4814 33.5659 43.6986 33.0063 43.6986 32.392C43.6986 31.6762 43.4474 31.1027 42.9449 30.6643C42.4413 30.226 41.7969 30.0103 41.008 30.0103C40.4105 30.0103 39.8869 30.1316 39.4385 30.367C38.9913 30.6037 38.6438 30.9208 38.3996 31.3183C38.1543 31.7158 38.0334 32.1693 38.0334 32.6683C38.0334 33.0448 38.1496 33.4109 38.3797 33.7816C38.6109 34.1512 39.0183 34.6384 39.6029 35.2318C40.1863 35.8322 40.9951 36.6704 42.0281 37.7557L58.5378 54.9486H51.3641L51.3653 54.9474Z" fill="#FEFEFE"/>
<path d="M73.9076 55.1491C71.7875 55.1491 69.8659 54.7375 68.1391 53.9145C66.4134 53.0903 64.932 51.991 63.6947 50.6142C62.4586 49.2374 61.5007 47.6788 60.821 45.9383C60.1425 44.1978 59.8032 42.4095 59.8032 40.5745C59.8032 38.658 60.1624 36.8301 60.8832 35.0896C61.6028 33.3479 62.5948 31.7962 63.859 30.4334C65.1222 29.0707 66.6177 27.9911 68.3433 27.1949C70.069 26.3975 71.9648 26 74.0309 26C76.1239 26 78.0315 26.4185 79.7583 27.2555C81.4839 28.0926 82.9595 29.2129 84.1816 30.6153C85.4048 32.0189 86.3556 33.5834 87.0353 35.311C87.715 37.0376 88.0542 38.8189 88.0542 40.655C88.0542 42.5435 87.7009 44.3586 86.9942 46.1003C86.2875 47.8408 85.3026 49.3924 84.0395 50.7552C82.7752 52.118 81.2808 53.1906 79.554 53.974C77.8284 54.7574 75.9467 55.1479 73.9076 55.1479V55.1491ZM73.9487 50.2097C75.3081 50.2097 76.5172 49.9322 77.5772 49.3796C78.6361 48.8259 79.52 48.0833 80.2267 47.153C80.9345 46.2227 81.471 45.1828 81.8373 44.0357C82.2035 42.8886 82.3867 41.7356 82.3867 40.5745C82.3867 39.333 82.1895 38.1322 81.7962 36.9711C81.4029 35.8112 80.8453 34.7865 80.1246 33.8946C79.405 33.004 78.5222 32.2894 77.4751 31.7496C76.4291 31.2099 75.2541 30.9394 73.9487 30.9394C72.5623 30.9394 71.3462 31.2168 70.3002 31.7694C69.2543 32.3232 68.3774 33.0658 67.6707 33.996C66.964 34.9263 66.4275 35.9604 66.0601 37.0935C65.6938 38.2266 65.5107 39.3878 65.5107 40.5745C65.5107 41.8161 65.7009 43.0168 66.0812 44.1779C66.4616 45.3379 67.011 46.3638 67.7317 47.2544C68.4525 48.1463 69.3353 48.8597 70.3824 49.3995C71.4283 49.9392 72.6175 50.2097 73.9487 50.2097ZM73.3782 44.2992H78.6771L88.2162 54.9474H82.9173L73.3782 44.2992Z" fill="#FEFEFE"/>
</svg>
